<svg width="694" height="466" viewBox="0 0 694 466" fill="none" xmlns="http://www.w3.org/2000/svg">
<path d="M596.202 22.8901C596.303 22.8903 596.399 22.9304 596.471 23.0018C596.542 23.0731 596.582 23.1699 596.582 23.2707V38.4748C596.582 38.5757 596.542 38.6724 596.471 38.7438C596.399 38.8151 596.303 38.8553 596.202 38.8554H593.621C593.52 38.8553 593.423 38.8152 593.352 38.7438C593.281 38.6725 593.24 38.5757 593.24 38.4748V23.2707C593.24 23.1698 593.281 23.0731 593.352 23.0018C593.423 22.9304 593.52 22.8903 593.621 22.8901H596.202ZM574.739 22.8901C574.84 22.8902 574.937 22.9304 575.008 23.0017C575.079 23.0731 575.12 23.1698 575.12 23.2707V38.4748C575.12 38.5757 575.079 38.6725 575.008 38.7438C574.937 38.8152 574.84 38.8553 574.739 38.8554H572.158C572.057 38.8553 571.96 38.8152 571.889 38.7438C571.818 38.6725 571.778 38.5757 571.777 38.4748V23.2707C571.778 23.1698 571.818 23.0731 571.889 23.0018C571.96 22.9304 572.057 22.8903 572.158 22.8901H574.739Z" fill="#17466C"/>
<path d="M562.681 10.8106L582.47 9.28271L566.683 11.9747L562.899 11.3198L562.681 10.8106Z" fill="#17466C"/>
<path d="M566.537 11.7351L562.754 11.0803L562.717 10.9936L562.535 11.0076L562.754 11.5169L566.537 12.1717L582.325 9.28271L577.646 9.84096L566.537 11.7351Z" fill="#6C63FF"/>
<path d="M607.498 10.8106L627.288 9.28271L611.5 11.9747L607.716 11.3198L607.498 10.8106Z" fill="#17466C"/>
<path d="M611.718 11.7351L607.935 11.0803L607.897 10.9936L607.716 11.0076L607.935 11.5169L611.718 12.1717L627.506 9.28271L622.827 9.84096L611.718 11.7351Z" fill="#6C63FF"/>
<path d="M559.334 18.7407L561.007 18.8135L576.338 25.2815L577.215 26.0163L579.996 28.3445H588.727L591.357 26.0163L592.356 25.1308L607.061 18.8863L608.371 18.7407L604.006 16.6309H603.983C602.993 15.6916 594.424 14.9575 583.998 14.9575C573.572 14.9575 565.003 15.6915 564.014 16.6309H563.918L559.334 18.7407Z" fill="#17466C"/>
<path d="M604.126 16.7388C604.095 16.6516 604.079 16.5597 604.079 16.4671V13.0115C604.079 12.7944 604.165 12.5862 604.318 12.4326C604.472 12.2791 604.68 12.1928 604.897 12.1928H605.23C604.957 11.9174 604.771 11.5673 604.697 11.1868C604.623 10.8062 604.663 10.4121 604.812 10.0542C604.961 9.69635 605.213 9.39062 605.536 9.17556C605.858 8.96051 606.237 8.84575 606.625 8.84575C607.013 8.84575 607.392 8.96051 607.715 9.17556C608.037 9.39062 608.289 9.69635 608.438 10.0542C608.587 10.4121 608.627 10.8062 608.553 11.1868C608.479 11.5673 608.293 11.9174 608.02 12.1928H608.353C608.46 12.1928 608.567 12.214 608.666 12.2551C608.765 12.2963 608.856 12.3566 608.932 12.4326C609.008 12.5086 609.068 12.5989 609.109 12.6982C609.15 12.7976 609.172 12.904 609.172 13.0116V16.4671C609.172 16.6086 609.135 16.7476 609.065 16.8705C609.313 16.9135 609.56 16.9617 609.806 17.0153C609.956 17.0489 610.091 17.1329 610.187 17.2534C610.283 17.3739 610.336 17.5236 610.336 17.6778V18.4988C610.336 18.6788 610.264 18.8513 610.137 18.9786C610.01 19.1059 609.837 19.1773 609.657 19.1773H601.969V17.1402C602.679 16.9614 603.399 16.8274 604.126 16.7388ZM558.627 17.0153C558.873 16.9617 559.12 16.9135 559.368 16.8705C559.298 16.7476 559.261 16.6086 559.261 16.4671V13.0115C559.261 12.904 559.282 12.7975 559.324 12.6982C559.365 12.5988 559.425 12.5086 559.501 12.4326C559.577 12.3565 559.667 12.2962 559.767 12.2551C559.866 12.214 559.972 12.1928 560.08 12.1928H560.412C560.139 11.9174 559.954 11.5673 559.88 11.1868C559.805 10.8062 559.845 10.4121 559.995 10.0542C560.144 9.69633 560.396 9.39058 560.718 9.17552C561.041 8.96046 561.42 8.8457 561.808 8.8457C562.195 8.8457 562.575 8.96046 562.897 9.17552C563.22 9.39058 563.472 9.69633 563.621 10.0542C563.77 10.4121 563.81 10.8062 563.736 11.1868C563.661 11.5673 563.476 11.9174 563.203 12.1928H563.536C563.643 12.1928 563.75 12.214 563.849 12.2551C563.948 12.2963 564.038 12.3566 564.114 12.4326C564.19 12.5087 564.251 12.5989 564.292 12.6983C564.333 12.7976 564.354 12.9041 564.354 13.0116V16.4671C564.354 16.5597 564.338 16.6516 564.307 16.7388C565.034 16.8274 565.754 16.9614 566.464 17.1402V19.1773H558.776C558.687 19.1774 558.598 19.1598 558.516 19.1257C558.434 19.0916 558.359 19.0416 558.296 18.9786C558.233 18.9156 558.183 18.8408 558.149 18.7585C558.115 18.6762 558.097 18.5879 558.097 18.4988V17.6778C558.097 17.5235 558.149 17.3738 558.246 17.2534C558.342 17.1329 558.476 17.0489 558.627 17.0153Z" fill="#17466C"/>
<path d="M560.935 10.8106L541.145 9.28271L556.933 11.9747L560.717 11.3198L560.935 10.8106Z" fill="#17466C"/>
<path d="M582.827 27.6899H585.897C586.127 27.69 586.347 27.7812 586.509 27.9436C586.672 28.106 586.763 28.3262 586.763 28.5559V29.2249C586.763 29.4007 586.709 29.5723 586.609 29.7168C586.509 29.8614 586.368 29.9721 586.203 30.0342C586.33 30.1865 586.399 30.3786 586.399 30.577V30.7689C586.399 30.9057 586.366 31.0405 586.303 31.1618C586.239 31.2831 586.148 31.3873 586.035 31.4655V34.0197H582.689V31.4655C582.576 31.3873 582.485 31.2832 582.421 31.1619C582.358 31.0406 582.325 30.9057 582.325 30.7689V30.577C582.325 30.3786 582.394 30.1865 582.521 30.0341C582.356 29.972 582.215 29.8614 582.115 29.7168C582.015 29.5723 581.961 29.4007 581.961 29.225V28.5559C581.961 28.3262 582.052 28.106 582.215 27.9436C582.377 27.7812 582.597 27.6899 582.827 27.6899Z" fill="#17466C"/>
<path d="M587.482 33.6578C587.619 33.658 587.75 33.7123 587.846 33.809C587.943 33.9056 587.997 34.0366 587.997 34.1733V38.3033C587.997 38.4399 587.943 38.571 587.846 38.6676C587.75 38.7643 587.619 38.8187 587.482 38.8188H581.242C581.105 38.8187 580.974 38.7643 580.878 38.6676C580.781 38.571 580.727 38.4399 580.727 38.3033V34.1733C580.727 34.0366 580.781 33.9056 580.878 33.8089C580.974 33.7123 581.105 33.6579 581.242 33.6577L587.482 33.6578ZM577.215 26.0161L579.997 28.3443H588.727L591.357 26.0161H588.742L588.628 25.4465C588.594 25.2789 588.504 25.1281 588.372 25.0197C588.239 24.9114 588.074 24.8521 587.903 24.8521H580.603C580.432 24.8521 580.266 24.9114 580.134 25.0197C580.002 25.1281 579.912 25.2789 579.878 25.4465L579.764 26.0161H577.215Z" fill="#376285"/>
<path d="M610.299 17.8828H558.061V18.216H610.299V17.8828Z" fill="#E6E6E6"/>
<path d="M556.788 11.7351L560.571 11.0803L560.608 10.9936L560.789 11.0076L560.571 11.5169L556.788 12.1717L541 9.28271L545.679 9.84096L556.788 11.7351Z" fill="#6C63FF"/>
<path d="M605.752 10.8106L585.962 9.28271L601.75 11.9747L605.534 11.3198L605.752 10.8106Z" fill="#17466C"/>
<path d="M601.532 11.7351L605.315 11.0803L605.353 10.9936L605.534 11.0076L605.315 11.5169L601.532 12.1717L585.744 9.28271L590.423 9.84096L601.532 11.7351Z" fill="#6C63FF"/>
<path d="M587.163 25.4707H581.342V26.6348H587.163V25.4707Z" fill="#E6E6E6"/>
<path d="M495.708 6.41211C495.754 6.41218 495.799 6.43051 495.831 6.46309C495.864 6.49566 495.882 6.53981 495.882 6.58587V13.5272C495.882 13.5733 495.864 13.6174 495.831 13.65C495.799 13.6826 495.754 13.7009 495.708 13.701H494.53C494.484 13.7009 494.44 13.6826 494.407 13.65C494.375 13.6174 494.356 13.5733 494.356 13.5272V6.58587C494.356 6.53981 494.375 6.49564 494.407 6.46307C494.44 6.4305 494.484 6.41217 494.53 6.41211H495.708ZM485.91 6.41211C485.956 6.41216 486 6.43048 486.032 6.46305C486.065 6.49563 486.083 6.5398 486.083 6.58587V13.5272C486.083 13.5733 486.065 13.6174 486.032 13.65C486 13.6826 485.956 13.7009 485.91 13.701H484.731C484.685 13.7009 484.641 13.6826 484.608 13.65C484.576 13.6174 484.558 13.5733 484.557 13.5272V6.58587C484.558 6.53981 484.576 6.49564 484.608 6.46307C484.641 6.4305 484.685 6.41217 484.731 6.41211H485.91Z" fill="#17466C"/>
<path d="M480.405 0.897237L489.439 0.199707L482.231 1.42869L480.504 1.12975L480.405 0.897237Z" fill="#17466C"/>
<path d="M482.165 1.31934L480.438 1.0204L480.421 0.980813L480.338 0.9872L480.438 1.21971L482.165 1.51866L489.373 0.199707L487.237 0.454573L482.165 1.31934Z" fill="#6C63FF"/>
<path d="M500.866 0.897237L509.9 0.199707L502.692 1.42869L500.965 1.12975L500.866 0.897237Z" fill="#17466C"/>
<path d="M502.792 1.31934L501.065 1.0204L501.048 0.980813L500.965 0.9872L501.065 1.21971L502.792 1.51866L510 0.199707L507.864 0.454573L502.792 1.31934Z" fill="#6C63FF"/>
<path d="M478.877 4.51773L479.641 4.55097L486.639 7.50388L487.04 7.83935L488.31 8.90226H492.296L493.496 7.83935L493.953 7.4351L500.666 4.58417L501.264 4.51773L499.271 3.55449H499.261C498.809 3.12568 494.897 2.79053 490.137 2.79053C485.377 2.79053 481.465 3.12564 481.013 3.55449H480.969L478.877 4.51773Z" fill="#17466C"/>
<path d="M499.326 3.60356C499.312 3.56372 499.304 3.52177 499.304 3.4795V1.90186C499.304 1.80274 499.344 1.70768 499.414 1.63759C499.484 1.5675 499.579 1.52812 499.678 1.52811H499.83C499.705 1.40235 499.621 1.24254 499.587 1.0688C499.553 0.895052 499.571 0.715149 499.639 0.551753C499.707 0.388358 499.822 0.248778 499.97 0.150596C500.117 0.0524141 500.29 2.265e-05 500.467 2.265e-05C500.644 2.265e-05 500.817 0.0524141 500.964 0.150596C501.112 0.248778 501.227 0.388358 501.295 0.551753C501.363 0.715149 501.381 0.895052 501.347 1.0688C501.313 1.24254 501.229 1.40235 501.104 1.52811H501.256C501.305 1.5281 501.353 1.53776 501.399 1.55655C501.444 1.57533 501.485 1.60286 501.52 1.63758C501.555 1.67229 501.582 1.7135 501.601 1.75885C501.62 1.8042 501.63 1.85281 501.63 1.9019V3.4795C501.63 3.5441 501.613 3.60759 501.581 3.6637C501.694 3.6833 501.807 3.70533 501.919 3.72977C501.988 3.74514 502.049 3.78349 502.093 3.83848C502.137 3.89348 502.161 3.96182 502.161 4.03223V4.40706C502.161 4.48922 502.128 4.56802 502.07 4.62611C502.012 4.68421 501.933 4.71685 501.851 4.71685H498.341V3.78681C498.665 3.70519 498.994 3.64398 499.326 3.60356ZM478.554 3.72977C478.666 3.70533 478.779 3.68329 478.892 3.6637C478.86 3.60758 478.843 3.54409 478.843 3.4795V1.90186C478.843 1.85277 478.853 1.80417 478.872 1.75882C478.891 1.71347 478.918 1.67227 478.953 1.63756C478.987 1.60285 479.029 1.57532 479.074 1.55654C479.119 1.53776 479.168 1.5281 479.217 1.52811H479.369C479.244 1.40236 479.16 1.24254 479.126 1.0688C479.092 0.89505 479.11 0.715146 479.178 0.551746C479.246 0.388347 479.361 0.248762 479.508 0.150577C479.656 0.0523928 479.829 0 480.006 0C480.183 0 480.356 0.0523928 480.503 0.150577C480.651 0.248762 480.766 0.388347 480.834 0.551746C480.902 0.715146 480.92 0.89505 480.886 1.0688C480.852 1.24254 480.768 1.40236 480.643 1.52811H480.795C480.844 1.52811 480.892 1.53777 480.938 1.55656C480.983 1.57535 481.024 1.60288 481.059 1.63759C481.094 1.6723 481.121 1.71351 481.14 1.75886C481.159 1.80421 481.168 1.85282 481.168 1.9019V3.4795C481.168 3.52177 481.161 3.56373 481.147 3.60356C481.479 3.64398 481.808 3.70519 482.132 3.78681V4.71685H478.622C478.581 4.71686 478.541 4.70885 478.503 4.69328C478.466 4.67772 478.431 4.6549 478.403 4.62613C478.374 4.59736 478.351 4.56321 478.335 4.52562C478.32 4.48803 478.312 4.44775 478.312 4.40706V4.03223C478.312 3.96182 478.336 3.89346 478.38 3.83847C478.424 3.78348 478.485 3.74513 478.554 3.72977Z" fill="#17466C"/>
<path d="M479.607 0.897237L470.573 0.199707L477.78 1.42869L479.508 1.12975L479.607 0.897237Z" fill="#17466C"/>
<path d="M489.602 8.60303H491.004C491.109 8.60304 491.209 8.6447 491.283 8.71884C491.357 8.79298 491.399 8.89353 491.399 8.99837V9.3038C491.399 9.38405 491.375 9.46239 491.329 9.5284C491.283 9.5944 491.219 9.64493 491.143 9.67327C491.201 9.74284 491.233 9.83054 491.233 9.92108V10.0087C491.233 10.0712 491.218 10.1327 491.189 10.1881C491.16 10.2435 491.118 10.291 491.067 10.3267V11.4928H489.539V10.3267C489.488 10.291 489.446 10.2435 489.417 10.1881C489.388 10.1327 489.373 10.0712 489.373 10.0087V9.92108C489.373 9.83053 489.404 9.74281 489.462 9.67323C489.387 9.64489 489.323 9.59437 489.277 9.52839C489.231 9.4624 489.207 9.38408 489.207 9.30384V8.99837C489.207 8.89352 489.248 8.79296 489.323 8.71882C489.397 8.64468 489.497 8.60303 489.602 8.60303Z" fill="#17466C"/>
<path d="M491.727 11.3278C491.79 11.3279 491.849 11.3527 491.894 11.3969C491.938 11.441 491.963 11.5008 491.963 11.5632V13.4487C491.963 13.5111 491.938 13.5709 491.894 13.615C491.849 13.6592 491.79 13.684 491.727 13.6841H488.879C488.816 13.684 488.756 13.6592 488.712 13.615C488.668 13.5709 488.643 13.5111 488.643 13.4487V11.5632C488.643 11.5008 488.668 11.441 488.712 11.3968C488.756 11.3527 488.816 11.3279 488.879 11.3278L491.727 11.3278ZM487.04 7.83907L488.31 8.90199H492.296L493.496 7.83907H492.302L492.25 7.57899C492.235 7.50249 492.194 7.43365 492.133 7.38417C492.073 7.3347 491.998 7.30764 491.92 7.30762H488.587C488.509 7.30764 488.433 7.3347 488.373 7.38417C488.312 7.43365 488.271 7.50249 488.256 7.57899L488.204 7.83907H487.04Z" fill="#376285"/>
<path d="M502.144 4.12598H478.295V4.27811H502.144V4.12598Z" fill="#E6E6E6"/>
<path d="M477.714 1.31934L479.441 1.0204L479.458 0.980813L479.541 0.9872L479.441 1.21971L477.714 1.51866L470.506 0.199707L472.642 0.454573L477.714 1.31934Z" fill="#6C63FF"/>
<path d="M500.068 0.897237L491.034 0.199707L498.241 1.42869L499.969 1.12975L500.068 0.897237Z" fill="#17466C"/>
<path d="M498.142 1.31934L499.869 1.0204L499.886 0.980813L499.969 0.9872L499.869 1.21971L498.142 1.51866L490.934 0.199707L493.07 0.454573L498.142 1.31934Z" fill="#6C63FF"/>
<path d="M491.582 7.58984H488.924V8.1213H491.582V7.58984Z" fill="#E6E6E6"/>
<path d="M693.075 449.229C693.075 458.406 550.237 465.846 374.038 465.846C197.838 465.846 55 458.406 55 449.229C55 440.052 197.838 432.613 374.038 432.613C550.237 432.613 693.075 440.052 693.075 449.229Z" fill="#0B3658"/>
<g filter="url(#filter0_i)">
<path d="M308.611 442.582C421.06 442.582 658.18 351.551 658.18 239.259C658.18 126.966 424.438 48.9661 308.611 26.1004C196.163 26.1004 56.6616 1.62948 56.6616 113.922C56.6616 226.215 196.163 442.582 308.611 442.582Z" fill="#E8F0F6"/>
</g>
<g clip-path="url(#clip0)">
<path d="M137.29 399.682C136.573 399.505 135.865 399.328 135.148 399.133" stroke="#A9C6EA" stroke-miterlimit="10"/>
<path d="M132.156 398.256C118.877 394.093 105.952 386.441 97.037 375.839C65.6189 338.498 102.437 290.635 139.061 275.57C156.925 268.218 173.028 259.432 178.278 239.061C183.297 219.576 169.549 199.205 165.999 180.606C158.846 143.159 192.557 114.179 228.021 114.179C260.776 114.179 275.489 126.658 307.97 148.428C332.518 164.885 378.623 174.53 414.033 171.049C456.216 166.904 472.098 148.42 505.738 133.372C528.879 123.009 561.129 120.795 582.756 136.144C605.88 152.547 597.089 184.653 599.727 208.62C600.278 214.659 602.059 220.522 604.959 225.847C623.904 259.291 662.705 261.009 662.705 310.528C662.705 346.257 605.72 360.419 574.948 365.069" stroke="#A9C6EA" stroke-miterlimit="10" stroke-dasharray="5 3.5"/>
<path d="M573.435 365.291C572.691 365.406 571.965 365.503 571.248 365.6" stroke="#A9C6EA" stroke-miterlimit="10"/>
<path d="M128.615 212.863H141.008" stroke="#A9C6EA" stroke-miterlimit="10"/>
<path d="M141.008 219.948H153.402" stroke="#A9C6EA" stroke-miterlimit="10"/>
<path d="M513.706 157.95H526.099" stroke="#A9C6EA" stroke-miterlimit="10"/>
<path d="M505.738 165.035H518.132" stroke="#A9C6EA" stroke-miterlimit="10"/>
<path d="M525.214 161.493H542.034" stroke="#A9C6EA" stroke-miterlimit="10"/>
<path d="M634.987 307.632H643.84" stroke="#A9C6EA" stroke-miterlimit="10"/>
<path d="M627.02 300.546H639.414" stroke="#A9C6EA" stroke-miterlimit="10"/>
<path d="M218.027 123.408H230.42" stroke="#A9C6EA" stroke-miterlimit="10"/>
<path d="M196.78 275.747H218.026" stroke="#A9C6EA" stroke-miterlimit="10"/>
<path d="M222.453 275.747H233.076" stroke="#A9C6EA" stroke-miterlimit="10"/>
<path d="M464.75 249.486C464.749 250.292 464.508 251.079 464.06 251.747C463.611 252.416 462.975 252.937 462.23 253.244C461.486 253.551 460.668 253.631 459.878 253.472C459.089 253.314 458.364 252.925 457.795 252.355C457.227 251.785 456.84 251.059 456.684 250.269C456.527 249.479 456.608 248.66 456.917 247.916C457.225 247.172 457.747 246.537 458.417 246.089C459.086 245.642 459.873 245.403 460.678 245.403C461.214 245.403 461.744 245.509 462.239 245.714C462.733 245.92 463.182 246.22 463.561 246.6C463.939 246.979 464.239 247.429 464.443 247.925C464.647 248.42 464.752 248.951 464.75 249.486Z" stroke="#A9C6EA" stroke-miterlimit="10"/>
<path d="M624.922 221.277C624.924 222.085 624.686 222.876 624.238 223.549C623.79 224.221 623.153 224.746 622.407 225.056C621.661 225.366 620.839 225.448 620.047 225.291C619.254 225.133 618.526 224.744 617.955 224.173C617.384 223.601 616.995 222.873 616.838 222.08C616.68 221.287 616.762 220.466 617.072 219.719C617.382 218.973 617.906 218.335 618.579 217.887C619.251 217.439 620.042 217.201 620.85 217.203C621.384 217.203 621.914 217.308 622.408 217.513C622.902 217.718 623.351 218.018 623.729 218.396C624.107 218.774 624.407 219.223 624.612 219.718C624.817 220.212 624.922 220.742 624.922 221.277V221.277Z" stroke="#A9C6EA" stroke-miterlimit="10"/>
<path d="M473.63 133.372C473.63 134.179 473.39 134.969 472.942 135.64C472.493 136.311 471.856 136.835 471.11 137.144C470.365 137.453 469.544 137.534 468.752 137.376C467.961 137.219 467.233 136.83 466.663 136.259C466.092 135.688 465.703 134.96 465.546 134.168C465.388 133.376 465.469 132.555 465.778 131.809C466.087 131.063 466.61 130.425 467.281 129.977C467.952 129.528 468.741 129.289 469.548 129.289C470.085 129.287 470.616 129.392 471.112 129.597C471.607 129.802 472.058 130.102 472.437 130.482C472.816 130.861 473.117 131.312 473.321 131.808C473.526 132.304 473.631 132.835 473.63 133.372V133.372Z" stroke="#A9C6EA" stroke-miterlimit="10"/>
<path d="M553.259 139.474C553.261 139.877 553.143 140.272 552.92 140.608C552.698 140.944 552.38 141.207 552.009 141.362C551.637 141.518 551.227 141.56 550.831 141.482C550.436 141.404 550.072 141.211 549.787 140.926C549.501 140.642 549.306 140.279 549.227 139.884C549.148 139.488 549.187 139.078 549.341 138.705C549.495 138.333 549.756 138.014 550.091 137.79C550.426 137.566 550.82 137.446 551.223 137.446C551.762 137.446 552.278 137.659 552.66 138.039C553.041 138.419 553.257 138.935 553.259 139.474Z" stroke="#A9C6EA" stroke-miterlimit="10"/>
<path d="M429.304 291.875C429.306 292.279 429.188 292.673 428.965 293.01C428.743 293.346 428.425 293.608 428.053 293.764C427.682 293.919 427.272 293.961 426.876 293.883C426.481 293.806 426.117 293.612 425.831 293.328C425.546 293.043 425.351 292.68 425.272 292.285C425.192 291.89 425.232 291.48 425.386 291.107C425.54 290.734 425.801 290.415 426.136 290.191C426.471 289.967 426.865 289.847 427.268 289.847C427.535 289.846 427.8 289.898 428.047 289.999C428.294 290.1 428.518 290.25 428.707 290.438C428.896 290.627 429.047 290.851 429.149 291.097C429.251 291.344 429.304 291.608 429.304 291.875V291.875Z" stroke="#A9C6EA" stroke-miterlimit="10"/>
<path d="M193.717 146.383C193.717 146.784 193.598 147.176 193.375 147.51C193.153 147.843 192.836 148.103 192.466 148.257C192.095 148.41 191.688 148.45 191.294 148.372C190.901 148.294 190.54 148.101 190.256 147.817C189.973 147.533 189.78 147.172 189.701 146.778C189.623 146.385 189.663 145.977 189.817 145.607C189.97 145.236 190.23 144.919 190.563 144.696C190.897 144.473 191.289 144.355 191.69 144.355C191.956 144.353 192.22 144.405 192.467 144.507C192.713 144.608 192.937 144.757 193.126 144.946C193.314 145.135 193.464 145.359 193.565 145.605C193.667 145.852 193.718 146.116 193.717 146.383Z" stroke="#A9C6EA" stroke-miterlimit="10"/>
<path d="M102.056 273.134C102.056 273.535 101.937 273.927 101.715 274.261C101.492 274.595 101.175 274.855 100.805 275.008C100.434 275.162 100.027 275.202 99.6336 275.123C99.2404 275.045 98.8791 274.852 98.5956 274.568C98.3121 274.285 98.119 273.923 98.0408 273.53C97.9626 273.136 98.0027 272.729 98.1562 272.358C98.3096 271.987 98.5694 271.671 98.9028 271.448C99.2362 271.225 99.6282 271.106 100.029 271.106C100.296 271.105 100.56 271.156 100.806 271.258C101.053 271.36 101.277 271.509 101.465 271.697C101.654 271.886 101.803 272.11 101.904 272.357C102.006 272.603 102.058 272.868 102.056 273.134V273.134Z" stroke="#A9C6EA" stroke-miterlimit="10"/>
<path d="M201.95 231.586C201.95 231.987 201.831 232.38 201.608 232.713C201.386 233.047 201.069 233.307 200.698 233.46C200.328 233.614 199.92 233.654 199.527 233.576C199.134 233.497 198.773 233.304 198.489 233.021C198.206 232.737 198.013 232.375 197.934 231.982C197.856 231.589 197.896 231.181 198.05 230.81C198.203 230.44 198.463 230.123 198.796 229.9C199.13 229.677 199.522 229.558 199.923 229.558C200.46 229.558 200.976 229.772 201.356 230.152C201.736 230.533 201.95 231.048 201.95 231.586Z" stroke="#A9C6EA" stroke-miterlimit="10"/>
<path d="M139.68 169.021V173.449" stroke="#A9C6EA" stroke-miterlimit="10"/>
<path d="M141.894 171.235H136.582" stroke="#A9C6EA" stroke-miterlimit="10"/>
<path d="M420.31 104.365V109.679" stroke="#A9C6EA" stroke-miterlimit="10"/>
<path d="M422.523 106.58H418.097" stroke="#A9C6EA" stroke-miterlimit="10"/>
<path d="M570.805 178.764V184.078" stroke="#A9C6EA" stroke-miterlimit="10"/>
<path d="M573.904 180.978H568.592" stroke="#A9C6EA" stroke-miterlimit="10"/>
<path d="M649.594 243.419V247.847" stroke="#A9C6EA" stroke-miterlimit="10"/>
<path d="M651.807 245.633H647.381" stroke="#A9C6EA" stroke-miterlimit="10"/>
<path d="M626.577 327.56V331.989" stroke="#A9C6EA" stroke-miterlimit="10"/>
<path d="M629.676 329.774H624.364" stroke="#A9C6EA" stroke-miterlimit="10"/>
<path d="M489.52 274.073C492.668 268.548 494.466 262.357 494.77 256.005L486.262 254.818C486.322 251.976 486.007 249.138 485.324 246.378L493.397 243.366C491.704 237.236 488.599 231.589 484.332 226.875L477.41 232.082C475.453 230.02 473.225 228.232 470.788 226.768L474.329 218.93C468.806 215.781 462.619 213.981 456.269 213.678L455.092 222.207C452.25 222.138 449.413 222.454 446.655 223.146L443.707 215.077C437.583 216.772 431.939 219.875 427.224 224.138L432.429 231.02C430.367 232.978 428.581 235.206 427.118 237.645L419.283 234.102C416.135 239.627 414.337 245.818 414.033 252.17L422.567 253.348C422.5 256.19 422.813 259.029 423.497 261.789L415.441 264.765C417.133 270.892 420.238 276.538 424.506 281.247L431.376 276.048C433.333 278.111 435.56 279.899 437.998 281.362L434.456 289.201C439.979 292.35 446.167 294.149 452.516 294.453L453.693 285.915C456.535 285.983 459.373 285.668 462.13 284.976L465.149 293.054C471.276 291.366 476.922 288.262 481.632 283.993L476.427 277.12C478.489 275.162 480.275 272.933 481.739 270.495L489.52 274.073ZM448.709 273.657C444.847 272.527 441.405 270.277 438.82 267.192C436.234 264.106 434.621 260.324 434.183 256.321C433.745 252.319 434.502 248.276 436.359 244.704C438.216 241.132 441.09 238.191 444.617 236.252C448.143 234.313 452.166 233.463 456.175 233.809C460.184 234.156 464.001 235.683 467.144 238.198C470.286 240.714 472.613 244.104 473.83 247.942C475.048 251.78 475.101 255.892 473.984 259.76C473.24 262.335 471.995 264.738 470.321 266.831C468.648 268.924 466.577 270.666 464.229 271.957C461.881 273.248 459.302 274.063 456.639 274.354C453.975 274.646 451.281 274.409 448.709 273.657ZM450.205 268.511C447.345 267.682 444.795 266.023 442.878 263.744C440.96 261.464 439.762 258.667 439.434 255.706C439.106 252.745 439.664 249.754 441.036 247.11C442.408 244.466 444.534 242.289 447.143 240.854C449.753 239.419 452.729 238.79 455.696 239.048C458.662 239.306 461.485 240.439 463.808 242.303C466.131 244.167 467.849 246.678 468.745 249.519C469.641 252.36 469.674 255.404 468.84 258.264C467.724 262.093 465.135 265.322 461.641 267.244C458.148 269.165 454.035 269.621 450.205 268.511Z" fill="#7C9BA5"/>
<path d="M498.151 190.933C497.879 187.806 496.875 184.787 495.221 182.12L491.423 184.078C490.652 182.905 489.729 181.839 488.679 180.907L491.114 177.417C488.71 175.397 485.866 173.971 482.81 173.254L481.473 177.302C480.1 177.015 478.695 176.914 477.295 177.001L476.551 172.812C473.426 173.084 470.408 174.089 467.743 175.743L469.655 179.543C468.481 180.313 467.415 181.236 466.485 182.288L462.997 179.853C460.978 182.257 459.553 185.103 458.837 188.161L462.882 189.498C462.591 190.871 462.49 192.278 462.581 193.678L458.394 194.422C458.66 197.564 459.664 200.599 461.324 203.279L465.122 201.366C465.889 202.543 466.812 203.61 467.866 204.537L465.432 208.027C467.835 210.047 470.68 211.473 473.736 212.189L475.072 208.142C476.445 208.433 477.851 208.535 479.251 208.443L479.995 212.632C483.12 212.359 486.137 211.355 488.803 209.701L486.891 205.901C488.065 205.132 489.131 204.208 490.06 203.155L493.548 205.591C495.567 203.187 496.992 200.341 497.709 197.283L493.663 195.946C493.95 194.572 494.051 193.166 493.964 191.765L498.151 190.933ZM480.951 200.675C479.359 201.206 477.646 201.253 476.028 200.81C474.41 200.367 472.959 199.453 471.86 198.185C470.761 196.917 470.063 195.351 469.853 193.686C469.644 192.02 469.933 190.33 470.683 188.829C471.434 187.328 472.613 186.084 474.071 185.253C475.529 184.422 477.2 184.043 478.874 184.163C480.547 184.283 482.147 184.897 483.472 185.927C484.797 186.957 485.786 188.357 486.315 189.95C486.671 191.008 486.813 192.126 486.736 193.24C486.658 194.353 486.362 195.441 485.864 196.44C485.365 197.439 484.675 198.329 483.832 199.061C482.989 199.792 482.01 200.35 480.951 200.702V200.675Z" fill="#7C9BA5"/>
<path d="M289.06 162.237C288.655 157.448 287.117 152.824 284.572 148.748L278.765 151.67C277.586 149.875 276.172 148.245 274.56 146.826L278.287 141.511C274.609 138.423 270.258 136.242 265.583 135.143L263.538 141.343C261.435 140.905 259.282 140.75 257.138 140.883L255.996 134.479C251.216 134.875 246.597 136.392 242.513 138.907L245.47 144.735C243.67 145.912 242.038 147.327 240.619 148.942L235.307 145.214C232.222 148.894 230.042 153.247 228.942 157.923L235.139 159.969C234.696 162.073 234.541 164.227 234.678 166.373L228.269 167.507C228.686 172.293 230.223 176.914 232.757 180.996L238.565 178.073C239.744 179.869 241.158 181.498 242.77 182.918L239.043 188.232C242.696 191.317 247.019 193.506 251.667 194.626L253.703 188.427C255.806 188.865 257.959 189.019 260.103 188.887L261.245 195.291C266.029 194.879 270.649 193.343 274.728 190.809L271.798 184.99C273.597 183.814 275.229 182.398 276.649 180.783L281.961 184.512C285.046 180.831 287.226 176.478 288.326 171.802L282.129 169.756C282.569 167.655 282.727 165.504 282.598 163.361L289.06 162.237ZM262.733 177.187C260.299 177.998 257.68 178.069 255.206 177.39C252.732 176.712 250.515 175.315 248.835 173.376C247.155 171.436 246.087 169.043 245.767 166.496C245.447 163.95 245.888 161.366 247.036 159.071C248.184 156.776 249.986 154.873 252.214 153.603C254.443 152.332 256.998 151.751 259.556 151.934C262.115 152.116 264.562 153.054 266.588 154.627C268.614 156.201 270.128 158.341 270.939 160.775C272.024 164.04 271.769 167.603 270.23 170.68C268.691 173.757 265.995 176.098 262.733 177.187Z" fill="#7C9BA5"/>
<path d="M230.845 210.649C231.736 209.09 232.437 207.431 232.934 205.706C233.436 203.976 233.733 202.192 233.82 200.392L228.986 199.719C229.029 198.108 228.85 196.499 228.455 194.936L233.032 193.227C232.073 189.756 230.315 186.559 227.897 183.892L224.011 186.841C222.903 185.671 221.64 184.658 220.257 183.83L222.285 179.401C220.727 178.509 219.069 177.804 217.345 177.302C215.614 176.805 213.832 176.507 212.033 176.417L211.369 181.244C209.759 181.209 208.152 181.388 206.589 181.775L204.88 177.205C201.41 178.163 198.212 179.919 195.541 182.333L198.489 186.23C197.322 187.342 196.31 188.605 195.479 189.985L191.052 187.957C189.266 191.106 188.25 194.632 188.087 198.249L192.92 198.913C192.877 200.524 193.056 202.133 193.452 203.696L188.875 205.405C189.832 208.879 191.591 212.079 194.009 214.749L197.904 211.8C199.012 212.967 200.272 213.98 201.649 214.811L199.631 219.24C202.762 221.005 206.265 222.006 209.856 222.163L210.528 217.327C212.136 217.37 213.741 217.191 215.3 216.795L217.008 221.374C220.48 220.417 223.679 218.657 226.348 216.237L223.4 212.34C224.566 211.232 225.579 209.972 226.41 208.594L230.845 210.649ZM207.731 210.418C205.551 209.776 203.61 208.502 202.152 206.758C200.695 205.013 199.786 202.876 199.541 200.616C199.296 198.356 199.725 196.073 200.774 194.056C201.824 192.04 203.446 190.379 205.438 189.284C207.429 188.188 209.7 187.707 211.964 187.901C214.229 188.095 216.385 188.956 218.161 190.374C219.937 191.792 221.254 193.705 221.945 195.871C222.637 198.037 222.672 200.359 222.046 202.544C221.627 204.005 220.924 205.368 219.977 206.556C219.03 207.743 217.857 208.731 216.527 209.463C215.196 210.195 213.734 210.656 212.224 210.82C210.715 210.984 209.187 210.847 207.731 210.418ZM208.616 207.504C206.999 207.035 205.556 206.096 204.472 204.806C203.388 203.517 202.71 201.935 202.525 200.26C202.339 198.585 202.654 196.893 203.43 195.397C204.206 193.901 205.407 192.669 206.883 191.857C208.359 191.044 210.042 190.688 211.72 190.832C213.398 190.977 214.996 191.616 216.311 192.669C217.626 193.722 218.599 195.142 219.108 196.748C219.616 198.354 219.638 200.076 219.169 201.694C218.857 202.773 218.336 203.779 217.635 204.656C216.933 205.532 216.066 206.261 215.082 206.801C214.098 207.341 213.017 207.681 211.901 207.802C210.786 207.923 209.657 207.821 208.581 207.504H208.616Z" fill="#7C9BA5"/>
<path d="M342.238 453.506C344.938 447.943 358.987 423.587 373.807 415.536C375.643 414.42 377.684 413.682 379.809 413.366C380.874 413.222 381.959 413.346 382.964 413.728C383.969 414.11 384.863 414.738 385.563 415.554C386.096 416.375 386.457 417.297 386.624 418.262C386.792 419.227 386.762 420.216 386.537 421.169C383.881 436.412 366.495 442.24 358.023 453.506" fill="#D7E3F4"/>
<path d="M342.238 453.328C342.238 453.328 356.181 425.792 369.797 409.389C376.241 401.622 380.668 387.247 373.895 382.925C364.087 376.725 354.419 390.577 350.037 397.476C343.362 407.91 338.423 419.451 334.66 431.186C334.111 432.886 329.11 453.328 329.012 453.328H342.238Z" fill="#D7E3F4"/>
<path d="M368.903 390.896C356.048 407.166 345.381 431.239 338.29 453.417" stroke="white" stroke-miterlimit="10"/>
<path d="M312.998 453.417C312.998 453.417 311.387 411.046 292.637 391.419C287.573 386.104 279.269 380.631 272.462 379.116C263.609 377.168 263.874 387.557 265.468 394.288C267.539 403.003 274.666 408.459 279.8 414.943C289.255 426.891 294.894 434.782 301.799 453.382" fill="#B2CDED"/>
<path d="M318.637 453.417C323.692 444.152 321.912 404.562 319.381 392.153C317.629 383.552 314.111 375.409 309.05 368.24C304.561 362.04 291.167 348.25 283.279 353.838C278.72 357.071 285.625 368.709 287.449 372.208C293.361 383.697 298.134 395.738 301.702 408.158C306.119 422.726 308.997 437.717 310.289 452.885C310.289 453.08 310.289 453.266 310.289 453.461" fill="#D7E3F4"/>
<path d="M319.558 453.417C317.893 431.275 318.956 397.22 328.95 378C340.282 356.203 355.048 346.115 357.19 354.636C363.387 379.267 338.458 445.534 331.438 453.417" fill="#B2CDED"/>
<path d="M269.992 386.228C290.158 400.293 304.074 426.97 306.668 453.417" stroke="white" stroke-miterlimit="10"/>
<path d="M290.618 360.906C300.525 369.763 305.562 383.607 308.607 397.016C312.67 415.557 314.97 434.442 315.477 453.417" stroke="white" stroke-miterlimit="10"/>
<path d="M350.816 363.953C338.617 391.994 328.339 422.276 326.613 453.408" stroke="white" stroke-miterlimit="10"/>
<path d="M379.605 418.689C379.605 418.689 361.776 430.531 349.338 453.417" stroke="white" stroke-miterlimit="10"/>
<path d="M561.997 453.328C564.653 418.308 561.696 383.961 575.028 350.774C578.817 341.359 587.422 326.497 599.364 325.975C617.787 325.195 606.508 362.217 603.171 376.069C600.871 385.019 597.973 393.804 594.495 402.366C588.599 417.502 579.738 438.626 573.019 453.328" fill="#B2CDED"/>
<path d="M552.436 453.328C546.638 438.484 540.928 423.586 535.227 408.716C530.136 395.528 524.214 382.632 520.106 369.081C516.972 358.771 508.89 335.141 520.726 327.878C541.804 314.938 558.66 364.998 560.882 382.791C563.812 406.218 563.183 429.795 563.537 453.346" fill="#D7E3F4"/>
<path d="M535.678 453.328C535.678 453.328 523.364 437.581 517.805 430.203C505.411 413.702 490.087 395.794 492.371 377.247C492.902 372.978 494.46 368.231 498.745 365.733C501.452 364.273 504.544 363.685 507.597 364.051C517.681 365.007 526.719 379.665 531.261 387.176C540.113 401.887 553.906 453.355 553.906 453.355" fill="#B2CDED"/>
<path d="M526.259 338.268C541.308 368.7 555.968 425.066 556.358 453.346" stroke="white" stroke-miterlimit="10"/>
<path d="M502.879 373.217C516.158 398.646 543.017 453.346 543.017 453.346" stroke="white" stroke-miterlimit="10"/>
<path d="M598.594 334.061C587.802 358.152 573.019 410.372 567.043 453.417" stroke="white" stroke-miterlimit="10"/>
<path d="M573.559 453.328C573.559 453.328 579.755 425.872 583.978 410.302C588.617 393.367 603.773 367.434 619.716 360.065C623.381 358.373 627.799 357.204 631.349 359.179C633.477 360.473 635.053 362.507 635.775 364.892C638.484 372.819 625.214 397.849 620.646 404.872C611.714 418.627 598.913 440.477 588.776 453.364" fill="#D7E3F4"/>
<path d="M628.392 365.645C609.553 382.012 584.35 434.197 577.303 453.39" stroke="white" stroke-miterlimit="10"/>
<path d="M164.698 436.27C162.29 423.472 158.333 398.097 155.323 382.517C153.871 374.98 149.666 365.778 147.001 358.604C142.133 345.557 130.367 322.884 115.778 324.062C97.6744 325.567 112.308 358.125 116.911 370.419C120.037 378.349 123.726 386.045 127.951 393.447C135.183 406.573 145.904 424.854 153.889 437.537" fill="#B2CDED"/>
<path d="M175.153 422.462C170.727 410.948 171.922 396.201 171.939 383.961C171.939 361.943 179.606 330.988 193.938 316.542C199.852 310.581 209.625 303.956 215.973 313.061C221.983 321.688 215.034 345.123 212.848 355.194C208.554 374.909 188.007 411.435 182.076 430.531" fill="#B2CDED"/>
<path d="M205.447 323.131C195.266 349.56 181.545 397.778 178.083 425.872" stroke="white" stroke-miterlimit="10"/>
<path d="M117.31 331.413C130.217 352.173 149.126 396.644 159.138 435.375" stroke="white" stroke-miterlimit="10"/>
<path d="M165.211 408.291C170.647 399.434 177.083 370.543 178.552 360.224C180.615 345.726 180.845 330.403 177.251 316.117C174.834 306.481 163.751 277.642 149.808 290.644C143.283 296.756 144.319 330.031 145.098 338.941C146.621 356.389 155.659 387.654 158.758 404.863" fill="#D7E3F4"/>
<path d="M157.545 298.084C167.097 322.963 164.627 384.784 161.688 406.413" stroke="white" stroke-miterlimit="10"/>
<path d="M79.9248 453.771H635.872" stroke="#648ACC" stroke-miterlimit="10"/>
<path d="M304.685 203.049C307.403 200.392 313.989 191.314 314.742 191.535C315.494 191.756 313.21 194.971 313.857 195.078C314.503 195.184 318.345 190.437 319.027 190.853C319.965 191.429 315.778 196.043 315.778 196.043C315.778 196.043 320.611 191.216 321.284 191.951C321.753 192.465 318.23 196.318 317.061 197.965C318.549 196.344 321.266 194.006 321.744 194.555C322.222 195.104 319.876 197.77 318.203 199.922C319.381 198.674 321.647 196.539 322.107 197.017C322.568 197.496 316.902 206.149 311.705 212.455" fill="#F886BC"/>
<path d="M270.098 236.148C283.832 224.451 296.737 211.814 308.722 198.329L317.398 204.13C317.398 204.13 302.835 226.724 283.758 246.174" fill="#F09959"/>
<path d="M263.175 242.755C267.955 236.759 275.834 230.958 275.834 230.958L289.839 242.286L277.569 256.705" fill="#FFC34E"/>
<path d="M287.316 345.504L279.907 443.152L288.671 448.741C288.671 448.741 264.574 449.989 263.786 449.201C262.998 448.413 264.777 443.001 264.777 443.001L260.749 345.274L287.316 345.504Z" fill="#F886BC"/>
<path d="M267.601 448.9L264.06 445.588L264.565 443.728L270.08 449.786H272.736L282.084 444.516L292.247 450.875C293.416 451.61 291.512 453.328 291.512 453.328H277.844L273.488 450.671H272.028V453.328H263.175V448.9H267.601Z" fill="#28364C"/>
<path d="M267.849 345.274L245.992 443.444L254.756 449.024C254.756 449.024 230.659 450.282 229.871 449.493C229.083 448.705 230.863 443.294 230.863 443.294L237.254 345.274H267.849Z" fill="#F886BC"/>
<path d="M233.713 448.9L230.128 445.588L230.633 443.728L236.148 449.786H238.804L248.126 444.516L258.28 450.875C259.448 451.61 257.545 453.328 257.545 453.328H243.929L239.574 450.671H238.388V453.328H229.535V448.9H233.713Z" fill="#28364C"/>
<path d="M244.868 294.453C232.846 315.621 232.863 355.016 232.863 355.016H288.635C288.635 355.016 287.865 320.412 281.642 300.918L244.868 294.453Z" fill="#0E5D82"/>
<path d="M263.494 296.233L264.884 354.892" stroke="#273B7A" stroke-width="0.75" stroke-miterlimit="10"/>
<path d="M275.834 298.695C275.834 298.695 273.01 305.843 263.494 308.314" stroke="#273B7A" stroke-width="0.75" stroke-miterlimit="10"/>
<path d="M325.144 273.736C328.809 274.808 339.937 276.154 340.105 276.916C340.273 277.678 336.351 277.261 336.608 277.855C336.865 278.448 342.849 279.52 342.805 280.326C342.752 281.424 336.688 280.007 336.688 280.007C336.688 280.007 343.256 281.885 342.947 282.824C342.716 283.488 337.635 282.283 335.634 282.071C337.777 282.576 341.141 283.842 340.893 284.506C340.645 285.171 337.175 284.435 334.483 284.01C336.139 284.435 339.113 285.365 338.91 286.012C338.706 286.659 330.137 285.427 322.09 283.957" fill="#F09959"/>
<path d="M259.537 237.29C259.537 237.29 260.422 239.646 265.459 239.646C268.956 239.646 270.275 237.813 270.275 237.813C270.275 237.813 271.567 238.964 285.324 257.05C288.246 260.876 287.617 269.14 282.739 276.278C281.515 284.454 281.135 292.735 281.606 300.989H241.769C241.769 300.989 241.07 272.337 243.832 256.704C244.652 252.426 246.514 248.415 249.253 245.029C251.992 241.642 255.525 238.984 259.537 237.29Z" fill="#FFC34E"/>
<path d="M285.873 249.486C312.431 270.336 330.845 274.853 330.845 274.853L328.685 285.047C328.685 285.047 296.815 280.999 275.843 263.374" fill="#F09959"/>
<path fill-rule="evenodd" clip-rule="evenodd" d="M270.443 238.309C277.26 239.46 287.715 249.495 287.715 249.495L276.622 265.792C276.622 265.792 271.904 262.523 265.521 257.032" fill="#FFC34E"/>
<path d="M276.622 265.181C268.31 260.114 264.565 256.403 264.565 256.403" stroke="#A31D4A" stroke-width="0.75" stroke-miterlimit="10"/>
<path fill-rule="evenodd" clip-rule="evenodd" d="M273.418 219.435C276.188 224.023 277.339 228.602 273.418 230.949C269.496 233.296 263.299 234.491 259.324 227.946C256.544 223.376 257.456 217.743 261.343 215.396C265.229 213.049 270.647 214.856 273.418 219.435Z" fill="#F09959"/>
<path d="M270.195 220.612C270.319 221.073 270.691 221.622 271.151 221.604C271.212 221.603 271.27 221.583 271.317 221.546C271.365 221.509 271.4 221.459 271.417 221.401C271.683 220.612 269.93 219.638 270.195 220.612Z" fill="#0B0B3A"/>
<path d="M268.354 220.214C268.658 219.78 269.054 219.417 269.512 219.151C269.971 218.885 270.482 218.722 271.01 218.673" stroke="#0B0B3A" stroke-width="0.5" stroke-miterlimit="10" stroke-linecap="round"/>
<path d="M274.48 224.66L271.904 225.944C271.904 225.944 272.789 228.159 274.206 227.716C275.365 227.397 274.48 224.66 274.48 224.66Z" fill="white"/>
<path fill-rule="evenodd" clip-rule="evenodd" d="M270.443 238.309C268.896 239.08 267.188 239.472 265.459 239.451C261.449 239.354 259.537 237.751 259.537 237.751L262.192 226.449L271.93 227.158L270.443 238.309Z" fill="#F09959"/>
<path fill-rule="evenodd" clip-rule="evenodd" d="M272.488 219.647C272.488 219.647 275.808 221.87 275.923 222.455C276.038 223.039 274.684 223.934 274.684 223.934" fill="#F886BC"/>
<path d="M263.175 212.243C262.821 212.42 261.582 212.083 261.13 212.083C260.498 212.083 259.867 212.136 259.245 212.243C255.544 212.925 252.782 215.989 251.038 219.142C249.887 221.215 248.931 223.509 246.851 224.828C242.265 227.716 236.228 226.679 231.128 228.371C226.029 230.063 221.913 235.457 223.312 241.09C223.763 242.941 224.737 244.632 225.312 246.404C226.534 250.292 225.959 254.809 228.287 258.139C228.927 259.026 229.704 259.807 230.588 260.451C232.544 261.946 234.818 262.969 237.235 263.437C239.651 263.906 242.143 263.808 244.515 263.152C246.887 262.495 249.075 261.298 250.907 259.654C252.739 258.01 254.166 255.964 255.075 253.675C257.146 248.512 256.5 242.356 259.501 237.68C260.918 235.492 263.042 233.827 264.423 231.639C265.707 229.638 266.38 225.873 266.539 223.464C266.539 222.906 265.574 218.283 265.875 218.283C268.434 218.118 270.862 217.091 272.763 215.369C272.349 214.524 271.77 213.771 271.06 213.155C270.35 212.538 269.523 212.07 268.629 211.778C267.735 211.487 266.792 211.378 265.855 211.457C264.918 211.537 264.007 211.804 263.175 212.243Z" fill="#0B3658"/>
<path d="M265.831 224.137C265.654 224.007 265.453 223.914 265.24 223.864C265.026 223.814 264.804 223.808 264.588 223.846C264.372 223.884 264.166 223.966 263.983 224.086C263.799 224.206 263.642 224.362 263.52 224.545C262.334 226.316 265.185 228.548 266.557 228.646C267.929 228.743 267.894 227.264 267.894 227.264" fill="#F09959"/>
<path d="M564.609 196.035H477.852V312.06H564.609V196.035Z" fill="#C7E3F4" stroke="#648ACC" stroke-miterlimit="10"/>
<path d="M577.002 196.035H490.246V312.06H577.002V196.035Z" fill="#E8F0F6" stroke="#648ACC" stroke-miterlimit="10"/>
<path opacity="0.45" d="M505.384 205.334H562.758C563.176 205.334 563.589 205.417 563.974 205.577C564.36 205.736 564.71 205.971 565.006 206.266C565.301 206.561 565.535 206.912 565.694 207.297C565.854 207.683 565.936 208.097 565.936 208.514V217.203C565.936 218.046 565.602 218.855 565.006 219.451C564.409 220.047 563.601 220.382 562.758 220.382H505.384C504.539 220.382 503.728 220.046 503.131 219.448C502.533 218.851 502.197 218.04 502.197 217.194V208.523C502.197 207.677 502.533 206.866 503.131 206.268C503.728 205.67 504.539 205.334 505.384 205.334Z" fill="#C7E3F4"/>
<path opacity="0.45" d="M505.375 259.362H535.306C536.149 259.362 536.957 259.697 537.553 260.293C538.149 260.889 538.484 261.698 538.484 262.541V298.687C538.484 299.532 538.148 300.343 537.551 300.941C536.953 301.539 536.142 301.875 535.297 301.875H505.384C504.539 301.875 503.728 301.539 503.131 300.941C502.533 300.343 502.197 299.532 502.197 298.687V262.541C502.197 261.698 502.532 260.889 503.128 260.293C503.724 259.697 504.532 259.362 505.375 259.362Z" fill="#C7E3F4"/>
<path d="M507.509 235.448H505.659C504.162 235.448 502.958 233.862 502.958 231.905C502.958 229.948 504.162 228.362 505.659 228.362H507.509V235.448Z" fill="#B2CDED"/>
<path d="M509.943 231.586C509.943 233.623 508.686 235.279 507.128 235.279C505.57 235.279 504.313 233.623 504.313 231.586C504.313 229.549 505.57 227.884 507.128 227.884C508.686 227.884 509.943 229.54 509.943 231.586Z" fill="#C7E3F4"/>
<path d="M526.099 235.448H524.249C522.753 235.448 521.549 233.862 521.549 231.905C521.549 229.948 522.753 228.362 524.249 228.362H526.099V235.448Z" fill="#B2CDED"/>
<path d="M528.64 231.586C528.64 233.623 527.374 235.279 525.825 235.279C524.276 235.279 523.01 233.623 523.01 231.586C523.01 229.549 524.267 227.884 525.825 227.884C527.383 227.884 528.64 229.54 528.64 231.586Z" fill="#C7E3F4"/>
<path d="M544.69 235.448H542.84C541.344 235.448 540.184 233.862 540.184 231.905C540.184 229.948 541.388 228.362 542.84 228.362H544.69V235.448Z" fill="#B2CDED"/>
<path d="M547.346 231.586C547.346 233.623 546.089 235.279 544.531 235.279C542.973 235.279 541.716 233.623 541.716 231.586C541.716 229.549 542.982 227.884 544.531 227.884C546.08 227.884 547.346 229.54 547.346 231.586Z" fill="#C7E3F4"/>
<path d="M563.281 235.448H561.43C559.934 235.448 558.775 233.862 558.775 231.905C558.775 229.948 559.978 228.362 561.43 228.362H563.281V235.448Z" fill="#B2CDED"/>
<path d="M566.025 231.586C566.025 233.623 564.759 235.279 563.21 235.279C561.661 235.279 560.395 233.623 560.395 231.586C560.395 229.549 561.652 227.884 563.21 227.884C564.768 227.884 566.025 229.54 566.025 231.586Z" fill="#C7E3F4"/>
<path d="M507.509 253.162H505.659C504.162 253.162 502.958 251.576 502.958 249.619C502.958 247.662 504.162 246.076 505.659 246.076H507.509V253.162Z" fill="#B2CDED"/>
<path d="M509.943 249.486C509.943 251.523 508.686 253.18 507.128 253.18C505.57 253.18 504.313 251.523 504.313 249.486C504.313 247.449 505.57 245.784 507.128 245.784C508.686 245.784 509.943 247.44 509.943 249.486Z" fill="#C7E3F4"/>
<path d="M526.099 253.162H524.249C522.753 253.162 521.549 251.576 521.549 249.619C521.549 247.662 522.753 246.076 524.249 246.076H526.099V253.162Z" fill="#B2CDED"/>
<path d="M528.64 249.486C528.64 251.523 527.374 253.18 525.825 253.18C524.276 253.18 523.01 251.523 523.01 249.486C523.01 247.449 524.267 245.784 525.825 245.784C527.383 245.784 528.64 247.44 528.64 249.486Z" fill="#C7E3F4"/>
<path d="M544.69 253.162H542.84C541.344 253.162 540.184 251.576 540.184 249.619C540.184 247.662 541.388 246.076 542.84 246.076H544.69V253.162Z" fill="#B2CDED"/>
<path d="M547.346 249.486C547.346 251.523 546.089 253.18 544.531 253.18C542.973 253.18 541.716 251.523 541.716 249.486C541.716 247.449 542.982 245.784 544.531 245.784C546.08 245.784 547.346 247.44 547.346 249.486Z" fill="#C7E3F4"/>
<path d="M563.281 253.162H561.43C559.934 253.162 558.775 251.576 558.775 249.619C558.775 247.662 559.978 246.076 561.43 246.076H563.281V253.162Z" fill="#B2CDED"/>
<path d="M566.025 249.486C566.025 251.523 564.759 253.18 563.21 253.18C561.661 253.18 560.395 251.523 560.395 249.486C560.395 247.449 561.652 245.784 563.21 245.784C564.768 245.784 566.025 247.44 566.025 249.486Z" fill="#D7E3F4"/>
<path d="M148.533 452.885H295.487V340.402H185.511L148.533 383.598V452.885Z" fill="white" stroke="#648ACC" stroke-miterlimit="10"/>
<path d="M253.88 452.885H307.881V340.402H290.016L253.88 383.598V452.885Z" fill="#D9E4F4" stroke="#648ACC" stroke-miterlimit="10"/>
<path d="M148.533 452.885H253.88V383.801H148.533V452.885Z" fill="#17466C" stroke="#648ACC" stroke-miterlimit="10"/>
<path d="M263.175 353.289C264.184 354.219 266.247 353.599 267.778 351.908C269.31 350.216 269.744 348.099 268.735 347.169L266.663 345.274L261.103 351.394L263.175 353.289Z" fill="#B2CDED"/>
<path d="M261.236 351.474C262.246 352.36 264.308 351.775 265.84 350.083C267.371 348.392 267.805 346.275 266.796 345.354C265.787 344.433 263.724 345.053 262.192 346.744C260.661 348.436 260.227 350.588 261.236 351.474Z" fill="#D7E3F4"/>
<path d="M246.798 353.289C247.807 354.219 249.87 353.599 251.401 351.908C252.933 350.216 253.366 348.099 252.357 347.169L250.268 345.274L244.708 351.394L246.798 353.289Z" fill="#B2CDED"/>
<path d="M244.832 351.474C245.842 352.36 247.904 351.775 249.445 350.083C250.985 348.392 251.41 346.275 250.401 345.354C249.392 344.433 247.329 345.053 245.788 346.744C244.248 348.436 243.832 350.588 244.832 351.474Z" fill="#D7E3F4"/>
<path d="M213.042 353.289C214.052 354.219 216.114 353.599 217.655 351.907C219.195 350.216 219.62 348.099 218.611 347.169C217.92 346.549 216.522 345.256 216.522 345.256L210.944 351.376L213.042 353.289Z" fill="#B2CDED"/>
<path d="M211.086 351.474C212.095 352.36 214.158 351.775 215.689 350.083C217.221 348.392 217.655 346.275 216.645 345.354C215.636 344.433 213.582 345.053 212.042 346.744C210.502 348.436 210.059 350.588 211.086 351.474Z" fill="#D7E3F4"/>
<path d="M195.656 353.289C196.665 354.219 198.728 353.599 200.268 351.907C201.808 350.216 202.224 348.099 201.224 347.169C200.534 346.549 199.135 345.256 199.135 345.256L193.566 351.376L195.656 353.289Z" fill="#B2CDED"/>
<path d="M193.699 351.474C194.708 352.36 196.771 351.775 198.303 350.083C199.834 348.392 200.268 346.275 199.259 345.354C198.25 344.433 196.196 345.053 194.655 346.744C193.115 348.436 192.69 350.588 193.699 351.474Z" fill="#D7E3F4"/>
<path opacity="0.45" d="M252.516 376.273L258.359 368.302H169.354L162.662 376.273H252.516Z" fill="#D7E3F4"/>
<path d="M351.259 323.131V417.183C351.259 418.266 351.046 419.338 350.632 420.339C350.218 421.339 349.611 422.248 348.845 423.014C348.08 423.779 347.171 424.387 346.171 424.801C345.171 425.216 344.1 425.429 343.017 425.429H290.45C288.264 425.429 286.168 424.56 284.622 423.014C283.077 421.467 282.208 419.37 282.208 417.183V414.358" stroke="#648ACC" stroke-miterlimit="10"/>
<path d="M363.653 328.446V435.615C363.653 437.846 362.767 439.986 361.19 441.564C359.613 443.142 357.473 444.029 355.243 444.029H271.86C269.674 444.029 267.577 443.16 266.032 441.614C264.486 440.067 263.618 437.97 263.618 435.783V415.244" stroke="#648ACC" stroke-miterlimit="10"/>
<path d="M387.555 325.789V387.955C387.555 390.142 388.423 392.24 389.969 393.786C391.515 395.332 393.611 396.201 395.797 396.201H460.758C462.944 396.201 465.04 395.332 466.586 393.786C468.131 392.24 469 390.142 469 387.955V281.336C469 279.149 469.868 277.051 471.414 275.505C472.959 273.959 475.056 273.09 477.242 273.09H503.968" stroke="#648ACC" stroke-miterlimit="10"/>
<path d="M376.932 327.56V415.412C376.932 417.599 377.8 419.696 379.346 421.243C380.892 422.789 382.988 423.658 385.174 423.658H504.136C506.322 423.658 508.418 422.789 509.964 421.243C511.509 419.696 512.378 417.599 512.378 415.412V293.904" stroke="#648ACC" stroke-miterlimit="10"/>
<path d="M291.282 190.898C291.282 144.416 332.412 107.483 380.482 114.046C414.839 118.731 442.247 145.931 446.824 180.314C449.576 200.216 444.456 220.408 432.553 236.59C421.399 253.286 392.424 272.133 392.424 283.426V296.33C392.422 297.565 391.93 298.749 391.058 299.622C390.185 300.495 389.002 300.987 387.768 300.989H351.047C349.812 300.987 348.629 300.495 347.757 299.622C346.884 298.749 346.393 297.565 346.39 296.33V283.426C346.39 272.133 317.415 253.312 306.261 236.59C296.515 223.353 291.266 207.339 291.282 190.898Z" fill="#FDD305"/>
<path d="M378.26 299.598C378.171 297.659 376.781 266.5 379.278 239.203C372.747 239.935 366.156 239.935 359.625 239.203C362.121 266.5 360.732 297.659 360.643 299.598L359.271 299.536C359.271 299.058 360.732 266.837 358.191 239.017C335.174 235.811 324.878 222.773 323.028 210.462C321.948 203.271 324.409 196.114 328.871 193.439C330.296 192.632 331.873 192.131 333.503 191.968C335.132 191.805 336.778 191.983 338.334 192.492C343.814 194.068 349.019 198.789 352.26 205.131C356.004 212.455 358.217 224.616 359.501 237.804C366.112 238.583 372.791 238.583 379.402 237.804C380.686 224.607 382.899 212.455 386.643 205.131C389.883 198.789 395.089 194.068 400.569 192.492C402.125 191.983 403.771 191.805 405.4 191.968C407.03 192.131 408.607 192.632 410.032 193.439C414.458 196.096 416.955 203.271 415.875 210.462C414.025 222.773 403.72 235.811 380.712 239.017C378.171 266.837 379.605 299.058 379.632 299.536L378.26 299.598ZM404.411 193.315C403.239 193.326 402.074 193.499 400.949 193.829C395.824 195.299 390.937 199.763 387.856 205.768C384.262 212.809 382.102 224.669 380.845 237.653C402.888 234.474 412.714 222.047 414.485 210.303C415.468 203.749 413.237 197.018 409.297 194.662C407.809 193.764 406.104 193.292 404.366 193.298L404.411 193.315ZM334.475 193.315C332.752 193.296 331.057 193.746 329.57 194.617C325.631 196.982 323.373 203.705 324.383 210.259C326.153 222.003 336.015 234.429 358.023 237.609C356.766 224.651 354.606 212.809 351.011 205.724C347.931 199.719 343.044 195.255 337.918 193.785C336.79 193.463 335.622 193.299 334.448 193.298L334.475 193.315Z" fill="white"/>
<path d="M434.032 195.246C432.858 195.246 431.732 194.78 430.902 193.949C430.072 193.119 429.605 191.992 429.605 190.818C429.622 177.419 425.167 164.397 416.946 153.819C408.726 143.24 397.21 135.711 384.226 132.424C383.082 132.135 382.099 131.403 381.494 130.389C380.889 129.375 380.711 128.162 381 127.017C381.288 125.872 382.02 124.888 383.034 124.283C384.047 123.678 385.26 123.5 386.404 123.789C401.307 127.565 414.524 136.209 423.961 148.35C433.398 160.492 438.515 175.437 438.502 190.818C438.502 191.403 438.386 191.983 438.161 192.523C437.936 193.063 437.606 193.553 437.19 193.965C436.774 194.377 436.281 194.702 435.739 194.922C435.197 195.142 434.617 195.252 434.032 195.246Z" fill="#FFEE99"/>
<path d="M367.911 125.985C367.911 126.861 368.171 127.717 368.657 128.445C369.143 129.174 369.835 129.741 370.643 130.076C371.452 130.412 372.342 130.499 373.201 130.328C374.06 130.158 374.848 129.736 375.467 129.117C376.086 128.497 376.508 127.708 376.679 126.849C376.849 125.99 376.762 125.1 376.427 124.29C376.092 123.481 375.524 122.79 374.797 122.303C374.069 121.816 373.213 121.557 372.337 121.557C371.163 121.557 370.038 122.023 369.207 122.854C368.377 123.684 367.911 124.811 367.911 125.985Z" fill="#FFEE99"/>
<g style="mix-blend-mode:multiply" opacity="0.55">
<g style="mix-blend-mode:multiply" opacity="0.55">
<path d="M447.381 195.485C443.07 227.308 417.211 260.247 369.407 260.247C321.603 260.247 296.709 225.758 291.433 195.477C292.298 210.325 297.449 224.603 306.261 236.582C317.415 253.277 346.39 272.124 346.39 283.417V296.322C346.392 297.556 346.884 298.74 347.757 299.613C348.629 300.486 349.812 300.978 351.047 300.98H387.768C389.002 300.978 390.185 300.486 391.058 299.613C391.93 298.74 392.422 297.556 392.424 296.322V283.426C392.424 272.133 421.399 253.312 432.553 236.59C441.365 224.612 446.516 210.333 447.381 195.485Z" fill="#FFC043"/>
</g>
</g>
<path d="M394.195 288.589H344.62V312.149C344.619 316 345.718 319.77 347.789 323.016C349.717 326.04 352.376 328.529 355.52 330.252C358.665 331.975 362.192 332.877 365.777 332.874H373.037C376.622 332.877 380.15 331.975 383.294 330.252C386.438 328.529 389.097 326.04 391.025 323.016C393.096 319.77 394.195 316 394.195 312.149V288.589Z" fill="#27557A"/>
<path d="M344.717 304.709C344.858 304.722 345.001 304.722 345.142 304.709L394.522 299.59C394.923 299.553 395.312 299.435 395.666 299.243C396.02 299.05 396.33 298.788 396.579 298.471C396.828 298.154 397.009 297.79 397.112 297.4C397.215 297.011 397.238 296.605 397.178 296.206C397.059 295.39 396.633 294.649 395.986 294.137C395.339 293.625 394.521 293.38 393.699 293.452L344.319 298.58C343.917 298.615 343.527 298.733 343.173 298.925C342.819 299.117 342.507 299.379 342.259 299.696C342.01 300.013 341.828 300.378 341.726 300.768C341.624 301.158 341.602 301.565 341.663 301.963C341.772 302.706 342.137 303.386 342.695 303.888C343.252 304.389 343.968 304.68 344.717 304.709Z" fill="#477E8F"/>
<path d="M344.717 315.488C344.859 315.497 345 315.497 345.142 315.488L394.522 310.369C394.923 310.331 395.311 310.212 395.664 310.019C396.017 309.827 396.327 309.564 396.576 309.248C396.824 308.931 397.006 308.567 397.109 308.178C397.213 307.79 397.236 307.384 397.178 306.986C397.063 306.167 396.638 305.424 395.99 304.911C395.342 304.398 394.521 304.155 393.699 304.231L344.319 309.35C343.918 309.387 343.528 309.505 343.175 309.697C342.821 309.89 342.51 310.152 342.262 310.469C342.013 310.786 341.832 311.15 341.729 311.54C341.626 311.929 341.603 312.335 341.663 312.734C341.772 313.477 342.136 314.159 342.694 314.662C343.251 315.165 343.967 315.457 344.717 315.488Z" fill="#477E8F"/>
<path d="M346.691 326.152C346.832 326.165 346.975 326.165 347.116 326.152L393.92 321.298C394.321 321.262 394.71 321.144 395.064 320.951C395.418 320.759 395.728 320.496 395.977 320.179C396.226 319.863 396.407 319.498 396.51 319.109C396.613 318.72 396.636 318.313 396.576 317.915C396.459 317.097 396.033 316.356 395.386 315.843C394.738 315.331 393.919 315.086 393.097 315.16L346.293 320.023C345.892 320.059 345.503 320.178 345.149 320.37C344.795 320.562 344.485 320.825 344.236 321.142C343.987 321.459 343.806 321.823 343.703 322.212C343.6 322.602 343.577 323.008 343.637 323.406C343.748 324.148 344.113 324.828 344.67 325.329C345.228 325.83 345.942 326.121 346.691 326.152Z" fill="#477E8F"/>
<path d="M369.85 80.0088V104.808" stroke="#FFC043" stroke-width="3" stroke-linecap="round" stroke-linejoin="round"/>
<path d="M413.37 89.9551L403.525 112.266" stroke="#FFC043" stroke-width="3" stroke-linecap="round" stroke-linejoin="round"/>
<path d="M450.418 116.933L432.403 133.372" stroke="#FFC043" stroke-width="3" stroke-linecap="round" stroke-linejoin="round"/>
<path d="M325.445 89.9551L335.289 112.266" stroke="#FFC043" stroke-width="3" stroke-linecap="round" stroke-linejoin="round"/>
<path d="M288.396 116.933L306.411 133.372" stroke="#FFC043" stroke-width="3" stroke-linecap="round" stroke-linejoin="round"/>
<path d="M264.06 417.015C265.038 417.015 265.831 416.222 265.831 415.244C265.831 414.265 265.038 413.472 264.06 413.472C263.082 413.472 262.29 414.265 262.29 415.244C262.29 416.222 263.082 417.015 264.06 417.015Z" fill="#648ACC"/>
<path d="M281.766 417.015C282.743 417.015 283.536 416.222 283.536 415.244C283.536 414.265 282.743 413.472 281.766 413.472C280.788 413.472 279.995 414.265 279.995 415.244C279.995 416.222 280.788 417.015 281.766 417.015Z" fill="#648ACC"/>
<path d="M512.82 295.675C513.798 295.675 514.591 294.882 514.591 293.904C514.591 292.925 513.798 292.132 512.82 292.132C511.843 292.132 511.05 292.925 511.05 293.904C511.05 294.882 511.843 295.675 512.82 295.675Z" fill="#648ACC"/>
<path d="M522.558 295.675C523.536 295.675 524.329 294.882 524.329 293.904C524.329 292.925 523.536 292.132 522.558 292.132C521.581 292.132 520.788 292.925 520.788 293.904C520.788 294.882 521.581 295.675 522.558 295.675Z" fill="#648ACC"/>
<path d="M533.518 293.558C533.518 293.891 533.419 294.216 533.235 294.493C533.05 294.77 532.787 294.986 532.48 295.113C532.172 295.24 531.834 295.274 531.508 295.209C531.182 295.144 530.882 294.984 530.647 294.748C530.411 294.513 530.251 294.213 530.186 293.887C530.121 293.56 530.155 293.222 530.282 292.914C530.409 292.607 530.625 292.344 530.901 292.159C531.178 291.974 531.503 291.875 531.836 291.875C532.282 291.875 532.71 292.053 533.025 292.368C533.341 292.684 533.518 293.112 533.518 293.558Z" fill="#648ACC"/>
<path d="M503.968 275.304C504.946 275.304 505.738 274.511 505.738 273.533C505.738 272.554 504.946 271.761 503.968 271.761C502.99 271.761 502.197 272.554 502.197 273.533C502.197 274.511 502.99 275.304 503.968 275.304Z" fill="#648ACC"/>
<path d="M465.701 403.463C483.351 396.08 491.677 375.779 484.298 358.12C476.918 340.46 456.626 332.13 438.976 339.514C421.325 346.897 412.999 367.198 420.379 384.857C427.758 402.516 448.05 410.847 465.701 403.463Z" fill="#DF9961"/>
<path d="M457.882 395.953C471.38 392.885 479.835 379.451 476.769 365.947C473.702 352.443 460.275 343.983 446.777 347.051C433.28 350.119 424.824 363.553 427.891 377.057C430.957 390.561 444.385 399.021 457.882 395.953Z" fill="#E8F0F6"/>
<path d="M435.12 371.49C435.119 374.898 436.127 378.229 438.018 381.063C439.909 383.897 442.597 386.107 445.744 387.412C448.89 388.717 452.352 389.06 455.693 388.396C459.033 387.732 462.102 386.092 464.511 383.683C466.92 381.275 468.561 378.205 469.226 374.863C469.891 371.521 469.55 368.057 468.248 364.909C466.945 361.761 464.738 359.07 461.906 357.176C459.074 355.283 455.745 354.272 452.339 354.272C447.774 354.272 443.396 356.086 440.167 359.315C436.938 362.544 435.123 366.923 435.12 371.49Z" fill="#DF9961"/>
<path d="M443.318 371.49C443.316 373.276 443.844 375.022 444.834 376.507C445.824 377.992 447.233 379.151 448.881 379.835C450.529 380.519 452.343 380.699 454.093 380.352C455.844 380.005 457.452 379.146 458.715 377.884C459.977 376.622 460.837 375.014 461.186 373.263C461.535 371.512 461.357 369.697 460.674 368.048C459.992 366.398 458.835 364.988 457.352 363.996C455.868 363.004 454.124 362.474 452.339 362.474C449.948 362.474 447.655 363.424 445.963 365.114C444.272 366.805 443.32 369.098 443.318 371.49Z" fill="#E8F0F6"/>
<path d="M450.852 372.73H456.517L450.852 367.062V372.73Z" fill="#27557A"/>
<path d="M488.033 336.417H494.23V334.646H489.803V330.217H488.033V336.417Z" fill="#27557A"/>
<path d="M490.689 332.874H496.886V331.103H492.459V326.674H490.689V332.874Z" fill="#27557A"/>
<path d="M491.131 331.519L451.951 370.718L453.109 371.877L492.289 332.678L491.131 331.519Z" fill="#27557A"/>
<path d="M185.9 309.651L181.624 317.764C179.185 317.601 176.808 316.925 174.648 315.78C170.656 313.805 169.496 311.095 169.496 311.095L176.72 301.529" fill="#F09959"/>
<path d="M195.009 294.311C198.984 296.658 192.416 311.494 188.813 312.432C185.21 313.371 178.11 306.357 175.985 300.422C173.86 294.488 180.695 291.238 184.705 290.024C188.715 288.811 195.009 294.311 195.009 294.311Z" fill="#F09959"/>
<path d="M192.035 301.503C191.902 301.742 191.769 301.981 191.654 302.229C191.539 302.477 191.964 302.805 192.106 302.495C192.248 302.185 192.345 301.955 192.451 301.68C192.557 301.406 192.159 301.282 192.035 301.503Z" fill="#00276F"/>
<path d="M194.239 300.103C194.239 300.103 193.354 298.793 191.07 299.218" stroke="#00276F" stroke-width="0.75" stroke-linecap="round" stroke-linejoin="round"/>
<path d="M188.538 307.278L191.07 309.049C191.07 309.049 190.079 310.962 189.176 310.218C188.273 309.474 188.538 307.278 188.538 307.278Z" fill="white"/>
<path d="M198.551 297.561C196.775 296.906 195.053 296.116 193.398 295.197C191.566 295.577 189.671 297.287 189.618 299.227C189.618 299.669 189.565 300.263 189.131 300.325C188.839 300.325 188.591 300.068 188.503 299.785C188.46 299.486 188.398 299.19 188.317 298.899C188.172 298.629 187.934 298.422 187.647 298.314C187.361 298.207 187.045 298.207 186.759 298.314C186.474 298.428 186.217 298.602 186.005 298.823C185.792 299.045 185.63 299.309 185.528 299.599C184.917 301.042 184.386 302.787 185.758 304.027C185.991 304.193 186.194 304.397 186.36 304.629C186.661 305.17 186.307 305.834 185.953 306.339C185.342 307.373 184.468 308.228 183.42 308.816C182.372 309.404 181.188 309.704 179.986 309.687C177.711 309.687 173.94 306.684 173.692 305.187C173.692 305.054 171.497 295.887 175.534 290.051C177.694 286.924 181.5 284.648 185.475 284.976C187.609 285.278 189.615 286.174 191.265 287.562C197.895 288.749 199.312 295.577 198.551 297.561Z" fill="#0B3658"/>
<path d="M194.726 302.982C194.726 302.982 195.311 307.41 194.434 307.915C193.558 308.42 191.707 307.136 191.707 307.136" fill="#F09959"/>
<path d="M196.55 423.427L193.31 444.365L193.142 450.671L217.849 450.547C218.139 450.545 218.416 450.428 218.62 450.222C218.824 450.017 218.938 449.739 218.938 449.449C218.938 449.227 218.87 449.011 218.743 448.829C218.617 448.647 218.438 448.508 218.23 448.43L207.607 443.524L211.83 421.771" fill="#F09959"/>
<path d="M220.018 450.467C219.85 449.723 219.435 449.058 218.841 448.581L207.536 443.709C201.339 446.243 193.248 444.312 193.248 444.312L191.805 452.823C191.805 452.89 191.818 452.957 191.844 453.019C191.87 453.08 191.908 453.136 191.956 453.183C192.004 453.23 192.06 453.267 192.122 453.292C192.185 453.317 192.251 453.329 192.318 453.328L219.832 453.186C220.381 453.186 220.027 450.494 220.018 450.467Z" fill="#0D3885"/>
<path d="M209.979 444.002C209.349 444.824 208.814 445.715 208.386 446.659" stroke="#17466C" stroke-width="0.75" stroke-miterlimit="10"/>
<path d="M211.405 444.852C210.87 445.557 210.419 446.32 210.059 447.128" stroke="#17466C" stroke-width="0.75" stroke-miterlimit="10"/>
<path d="M212.609 445.472C212.149 446.139 211.738 446.837 211.378 447.562" stroke="#17466C" stroke-width="0.75" stroke-miterlimit="10"/>
<path d="M192.354 451.114L219.797 450.972" stroke="#17466C" stroke-width="0.75" stroke-miterlimit="10"/>
<path d="M192.734 447.128C192.734 447.128 199.356 447.261 199.923 451.256" stroke="#17466C" stroke-width="0.75" stroke-miterlimit="10"/>
<path d="M216.522 447.385C215.666 448.572 214.934 449.842 214.335 451.176" stroke="#17466C" stroke-width="0.75" stroke-miterlimit="10"/>
<path d="M120.125 428.901L99.5069 426.439L93.2038 426.271L93.3277 450.999C93.3289 451.142 93.3582 451.284 93.414 451.415C93.4698 451.547 93.551 451.666 93.6529 451.767C93.7549 451.867 93.8755 451.946 94.0081 452C94.1407 452.054 94.2825 452.081 94.4255 452.08C94.6458 452.079 94.8606 452.011 95.0422 451.887C95.2238 451.762 95.3636 451.585 95.4435 451.38L100.348 440.752L121.709 443.161" fill="#F09959"/>
<path d="M93.4074 453.169C94.1521 452.998 94.8169 452.58 95.293 451.982L100.162 440.672C97.6301 434.472 99.56 426.377 99.56 426.377L91.0526 424.933C90.9186 424.938 90.7916 424.993 90.6977 425.089C90.6038 425.185 90.5502 425.313 90.548 425.447L90.6896 452.974C90.6896 453.532 93.3808 453.169 93.4074 453.169Z" fill="#0D3885"/>
<path d="M99.569 443.125C98.7495 442.491 97.8581 441.956 96.9132 441.531" stroke="#17466C" stroke-width="0.75" stroke-miterlimit="10"/>
<path d="M98.719 444.542C98.0109 444.023 97.2479 443.584 96.4439 443.231" stroke="#17466C" stroke-width="0.75" stroke-miterlimit="10"/>
<path d="M98.0992 445.747C97.4342 445.285 96.7358 444.874 96.01 444.516" stroke="#17466C" stroke-width="0.75" stroke-miterlimit="10"/>
<path d="M91.876 424.986L92.0176 453.328" stroke="#17466C" stroke-width="0.75" stroke-miterlimit="10"/>
<path d="M96.4439 425.872C96.4439 425.872 96.3112 432.497 92.3275 433.073" stroke="#17466C" stroke-width="0.75" stroke-miterlimit="10"/>
<path d="M96.1872 449.661C95.0014 448.806 93.7319 448.073 92.3982 447.474" stroke="#17466C" stroke-width="0.75" stroke-miterlimit="10"/>
<path d="M132.483 371.419C128.057 383.27 135.289 400.479 135.289 400.479L139.096 428.192L102.942 426.598L103.296 450.671C103.296 450.671 142.079 453.435 151.463 453.435C160.847 453.435 164.468 451.335 167.221 445.835C171.32 437.643 165.45 392.348 165.45 391.595L159.015 362.509" fill="#0E5D82"/>
<path d="M106.925 426.758L107.2 450.671" stroke="#17466C" stroke-width="0.75" stroke-miterlimit="10"/>
<path d="M144.647 377.682C144.647 377.682 140.539 398.664 161.369 403.172C170.682 405.191 194.354 405.829 194.354 405.829L190.326 438.272H213.963C213.963 438.272 218.859 413.844 220.337 397.53C221.32 386.662 216.645 381.8 207.864 380.702C200.427 379.816 178.065 378.328 178.065 378.328L174.303 373.616" fill="#0E5D82"/>
<path d="M166.052 404.066C166.052 404.066 148.515 404.119 144.319 384.466" stroke="#17466C" stroke-width="0.75" stroke-miterlimit="10"/>
<path d="M153.57 382.615C157.181 383.197 160.846 383.363 164.494 383.111" stroke="#17466C" stroke-width="0.75" stroke-miterlimit="10"/>
<path d="M130.677 379.816C133.178 380.542 135.753 380.988 138.352 381.144" stroke="#17466C" stroke-width="0.75" stroke-miterlimit="10"/>
<path d="M191.469 434.286H214.485" stroke="#0E5D82" stroke-width="0.75" stroke-miterlimit="10"/>
<path d="M241.043 344.388H239.273V364.759H241.043V344.388Z" fill="#648ACC"/>
<path d="M240.158 346.159C242.114 346.159 243.699 344.573 243.699 342.617C243.699 340.66 242.114 339.074 240.158 339.074C238.203 339.074 236.617 340.66 236.617 342.617C236.617 344.573 238.203 346.159 240.158 346.159Z" fill="#648ACC"/>
<path d="M223.781 348.879L230.341 349.366C230.341 349.366 235.395 347.656 237.423 347.594C238.103 347.557 238.772 347.782 239.291 348.223V350.207C239.291 351.527 241.061 352.111 241.061 351.217V350.145C241.061 350.216 244.7 351.917 242.575 353.573C243.575 353.777 244.098 355.176 242.212 356.133C242.435 356.255 242.621 356.437 242.746 356.658C242.872 356.88 242.934 357.132 242.925 357.387C242.916 357.641 242.836 357.888 242.694 358.1C242.553 358.312 242.355 358.48 242.124 358.586C242.734 359.516 241.486 360.552 240.495 360.765C238.618 361.172 223.595 360.853 223.595 360.853" fill="#F09959"/>
<path d="M181.89 317.002C193.354 332.874 187.201 338.02 178.96 378.496C162.65 378.534 146.377 376.937 130.385 373.731C135.439 358.306 141.693 343.3 149.091 328.853C154.88 317.578 164.512 311.963 169.965 310.528" fill="#FFC34E"/>
<path d="M164.494 334.849C164.494 334.849 182.2 362.607 190.636 363.838C204.004 365.796 226.109 365.246 226.109 365.246L227.428 345.717C227.428 345.717 199.011 344.273 197.833 343.609C194.027 341.448 181.899 317.038 181.899 317.038" fill="#FFC34E"/>
<path d="M183.359 358.772C176.312 352.528 170.449 345.063 166.052 336.736" stroke="#FB8627" stroke-width="0.75" stroke-miterlimit="10"/>
<path d="M223.329 345.495L221.656 365.317" stroke="#273B7A" stroke-width="0.75" stroke-miterlimit="10"/>
<path d="M599.302 314.85C598.868 318.641 595.823 329.429 596.46 329.907C597.098 330.385 598.231 326.577 598.674 327.046C599.116 327.516 597.788 333.45 598.558 333.733C599.585 334.114 600.621 327.958 600.621 327.958C600.621 327.958 599.816 334.752 600.807 334.822C601.506 334.876 602.356 329.721 602.923 327.79C602.569 329.96 602.418 333.547 603.144 333.582C603.87 333.618 604.516 330.119 605.163 327.471C604.915 329.163 604.631 332.272 605.295 332.334C605.959 332.396 608.146 324.008 609.89 316.019" fill="#F886BC"/>
<path d="M611.643 262.807C611.643 262.807 617.778 273.71 618.663 280.406C620.85 296.897 607.154 324.823 607.154 324.823C607.154 324.823 597.222 322.113 597.222 320.864C597.222 319.616 604.145 290.272 604.145 290.272L594.265 267.333" fill="#F09959"/>
<path d="M581.8 226.999L583.137 239.292C583.137 239.292 575.772 245.545 569.247 238.548L570.044 230.453L581.8 226.999Z" fill="#F09959"/>
<path d="M571.522 214.678C571.522 214.678 563.555 225.67 566.804 229.788C569.212 232.835 575.515 233.18 577.427 231.985C577.852 229.735 583.022 222.295 582.19 220.639C579.056 214.315 571.522 214.678 571.522 214.678Z" fill="#F09959"/>
<path d="M583.943 216.582C583.686 212.429 579.587 211.215 571.726 211.685C570.673 211.747 568.805 211.029 568.318 211.968C567.681 213.19 567.565 215.679 568.796 216.804C569.478 217.434 570.337 217.839 571.257 217.964C572.682 218.301 574.134 219.656 573.373 221.144C573.178 221.542 572.709 222.198 573.001 222.525C573.279 222.704 573.576 222.853 573.886 222.968C574.453 223.278 574.417 224.137 574.063 224.669C573.709 225.2 573.869 225.802 573.514 226.334C572.673 227.6 573.665 229.939 574.975 230.709C576.135 231.4 579.924 232.543 582.704 231.099C585.111 229.85 586.554 226.449 586.572 220.338C586.554 218 584.819 216.423 583.943 216.582Z" fill="#0B3658"/>
<path d="M572.39 222.862C573.691 221.215 574.736 221.481 575.312 222.384C576.073 223.58 574.541 226.086 573.833 226.511C572.381 227.397 571.177 227.282 571.106 226.113" fill="#F09959"/>
<path d="M569.194 220.391C568.822 220.701 568.477 221.277 568.681 221.667C568.708 221.721 568.752 221.766 568.806 221.795C568.86 221.823 568.921 221.834 568.982 221.826C569.814 221.702 569.973 219.7 569.194 220.391Z" fill="#28364C"/>
<path d="M569.3 218.823C569.996 219.044 570.587 219.51 570.965 220.134" stroke="#28364C" stroke-width="0.75" stroke-miterlimit="10"/>
<path d="M569.283 226.201L567.512 225.227C567.512 225.227 566.317 227.468 567.158 227.946C567.999 228.424 569.283 226.201 569.283 226.201Z" fill="white"/>
<path d="M541.148 453.328L570.362 453.313L570.361 452.445L541.148 452.46L541.148 453.328Z" fill="#17466C"/>
<path d="M566.494 441.814L568.982 442.399C568.982 442.399 569.929 445.658 570.301 447.917C570.523 449.415 570.618 450.929 570.584 452.443H541.804C541.804 452.443 542.557 449.954 549.426 445.924C550.978 445.046 552.36 443.897 553.507 442.532L566.494 441.814Z" fill="#0B3658"/>
<path d="M569.477 431.115L569.008 442.062C569.008 442.062 567.795 443.524 562.909 443.532C559.744 443.489 556.597 443.045 553.543 442.213L552.578 427.439" fill="#F09959"/>
<path d="M582.756 453.333L611.969 453.317L611.969 452.449L582.755 452.465L582.756 453.333Z" fill="#17466C"/>
<path d="M607.482 441.814L609.97 442.399C609.97 442.399 610.917 445.658 611.289 447.917C611.511 449.415 611.606 450.929 611.572 452.443H582.756C582.756 452.443 583.509 449.954 590.379 445.924C591.93 445.046 593.312 443.897 594.46 442.532L607.482 441.814Z" fill="#0B3658"/>
<path d="M608.996 430.672L609.97 442.062C609.97 442.062 608.757 443.524 603.87 443.532C600.702 443.489 597.552 443.046 594.495 442.213L592.282 427.439" fill="#F09959"/>
<path d="M604.357 317.374C604.357 317.374 608.845 326.727 605.242 344.618C607.075 384.563 611.846 438.271 611.846 438.271L584.403 438.174C584.403 438.174 578.817 380.444 575.488 351.677C571.788 319.633 569.477 280.388 569.477 280.388" fill="#0E5D82"/>
<path d="M588.856 438.2C588.856 438.2 583.27 380.471 579.941 351.695" stroke="#273B7A" stroke-width="0.75" stroke-miterlimit="10"/>
<path d="M552.002 319.164C552.002 319.164 549.116 361.278 549.116 381.49C549.116 401.702 547.788 438.272 547.788 438.272H575.506L585.819 342.679C594.265 332.555 593.645 310.599 591.609 302.043L564.166 294.542L552.002 319.164Z" fill="#0E5D82"/>
<path d="M580.154 395.192L585.819 342.697C590.116 337.701 592.61 331.407 592.902 324.823" stroke="#0E5D82" stroke-width="0.75" stroke-miterlimit="10"/>
<path d="M557.783 314.957L551.232 438.298" stroke="#273B7A" stroke-width="0.75" stroke-miterlimit="10"/>
<path d="M575.984 326.072L589.449 326.337" stroke="#273B7A" stroke-width="0.75" stroke-miterlimit="10"/>
<path d="M599.046 325.647L604.162 325.541" stroke="#273B7A" stroke-width="0.75" stroke-miterlimit="10"/>
<path d="M528.64 255.03C524.878 250.779 514.795 234.606 513.661 234.863C512.528 235.12 515.582 240.124 514.617 240.177C513.653 240.231 508.421 232.835 507.358 233.384C505.924 234.146 511.67 241.417 511.67 241.417C511.67 241.417 509.421 238.326 508.359 239.345C507.606 240.062 508.005 241.577 509.563 244.128C508.518 242.826 507.527 242.595 506.765 243.357C506.004 244.119 506.765 245.509 507.65 246.9C506.916 246.014 505.836 245.509 505.561 246.475C505.198 247.732 508.217 254.26 515.467 264.906" fill="#F09959"/>
<path d="M583.004 237.671C583.004 237.671 598.877 238.335 603.64 256.421C605.791 264.569 607.181 320.474 607.181 320.474L549.116 320.085C549.116 320.085 549.887 269.547 551.188 258.609C553.56 238.61 569.292 237.352 569.292 237.352C569.292 237.352 570.009 239.123 576.161 239.123C582.314 239.123 583.004 237.671 583.004 237.671Z" fill="#FFC34E"/>
<path d="M583.004 238.043C601.852 238.043 613.449 263.941 613.449 263.941L601.604 269.901" fill="#FFC34E"/>
<path d="M558.102 274.79C558.102 274.79 548.045 289.271 539.927 290.059C529.012 291.113 509.598 254.765 509.598 254.765L521.841 246.483L538.617 267.598L544.345 259.034" fill="#F09959"/>
<path d="M569.327 237.733C553.1 238.619 541.229 262.807 541.229 262.807L560.226 276.455L571.009 262.382" fill="#FFC34E"/>
<path d="M559.554 275.977L568.752 264.012" stroke="#A31D4A" stroke-width="0.75" stroke-miterlimit="10"/>
<path d="M605.242 268.077C604.538 263.257 603.318 258.527 601.604 253.968" stroke="#A31D4A" stroke-width="0.75" stroke-miterlimit="10"/>
<path d="M568.513 221.277C568.513 221.277 565.901 222.535 566.025 223.048C566.266 223.622 566.563 224.171 566.91 224.687" fill="#F09959"/>
<path d="M548.231 432.515H575.674" stroke="#273B7A" stroke-width="0.75" stroke-miterlimit="10"/>
<path d="M583.642 432.515H611.085" stroke="#273B7A" stroke-width="0.75" stroke-miterlimit="10"/>
<path d="M191.257 434.679C191.257 434.679 213.266 434.277 214.719 434.277" stroke="#17466C" stroke-width="0.75" stroke-miterlimit="10"/>
</g>
<path d="M92.844 66.4668C93.0137 66.4671 93.1763 66.5346 93.2963 66.6546C93.4162 66.7746 93.4837 66.9373 93.4839 67.1069V92.6786C93.4837 92.8482 93.4162 93.0109 93.2963 93.1309C93.1763 93.2509 93.0137 93.3184 92.844 93.3187H88.503C88.3333 93.3185 88.1706 93.251 88.0506 93.131C87.9306 93.011 87.8631 92.8483 87.8629 92.6786V67.1069C87.8631 66.9372 87.9306 66.7745 88.0506 66.6545C88.1706 66.5345 88.3333 66.467 88.503 66.4668H92.844ZM56.7456 66.4668C56.9153 66.467 57.0781 66.5345 57.1981 66.6545C57.3181 66.7745 57.3857 66.9372 57.3859 67.1069V92.6786C57.3857 92.8483 57.3181 93.011 57.1982 93.131C57.0781 93.251 56.9155 93.3185 56.7457 93.3187H52.4048C52.2351 93.3185 52.0724 93.251 51.9524 93.131C51.8324 93.011 51.7649 92.8483 51.7647 92.6786V67.1069C51.7649 66.9372 51.8324 66.7745 51.9524 66.6545C52.0724 66.5345 52.2351 66.467 52.4048 66.4668H56.7456Z" fill="#17466C"/>
<path d="M36.4654 46.1502L69.749 43.5806L43.1956 48.1081L36.8324 47.0068L36.4654 46.1502Z" fill="#17466C"/>
<path d="M42.9508 47.7053L36.5877 46.604L36.5252 46.4581L36.2206 46.4817L36.5877 47.3382L42.9508 48.4395L69.5043 43.5806L61.6352 44.5195L42.9508 47.7053Z" fill="#6C63FF"/>
<path d="M111.843 46.1502L145.127 43.5806L118.573 48.1081L112.21 47.0068L111.843 46.1502Z" fill="#17466C"/>
<path d="M118.94 47.7053L112.577 46.604L112.515 46.4581L112.21 46.4817L112.577 47.3382L118.94 48.4395L145.494 43.5806L137.625 44.5195L118.94 47.7053Z" fill="#6C63FF"/>
<path d="M30.8363 59.488L33.6507 59.6104L59.4345 70.4888L60.9103 71.7247L65.5883 75.6404H80.2724L84.6947 71.7247L86.376 70.2354L111.109 59.7327L113.311 59.488L105.969 55.9394H105.93C104.266 54.3597 89.8536 53.125 72.3185 53.125C54.7833 53.125 40.3711 54.3595 38.7069 55.9394H38.5453L30.8363 59.488Z" fill="#17466C"/>
<path d="M106.171 56.1211C106.119 55.9743 106.092 55.8198 106.092 55.664V49.8521C106.092 49.4869 106.237 49.1367 106.495 48.8785C106.753 48.6203 107.103 48.4752 107.469 48.4752H108.028C107.569 48.0119 107.257 47.4232 107.132 46.7831C107.007 46.143 107.074 45.4803 107.325 44.8783C107.576 44.2764 108 43.7622 108.542 43.4005C109.085 43.0388 109.723 42.8458 110.375 42.8458C111.027 42.8458 111.664 43.0388 112.207 43.4005C112.75 43.7622 113.173 44.2764 113.424 44.8783C113.675 45.4803 113.742 46.143 113.617 46.7831C113.492 47.4232 113.181 48.0119 112.722 48.4752H113.281C113.461 48.4752 113.641 48.5108 113.808 48.58C113.975 48.6492 114.126 48.7506 114.254 48.8785C114.382 49.0063 114.484 49.1582 114.553 49.3252C114.622 49.4923 114.658 49.6714 114.658 49.8522V55.664C114.658 55.902 114.596 56.1359 114.478 56.3426C114.895 56.4148 115.311 56.496 115.724 56.5861C115.978 56.6427 116.204 56.7839 116.366 56.9865C116.528 57.1891 116.616 57.4409 116.615 57.7003V59.0812C116.615 59.3838 116.495 59.6741 116.281 59.8881C116.067 60.1022 115.777 60.2224 115.474 60.2224H102.543V56.7962C103.737 56.4955 104.949 56.27 106.171 56.1211ZM29.6471 56.5861C30.0609 56.496 30.4765 56.4148 30.8938 56.3426C30.7759 56.1359 30.7139 55.902 30.714 55.664V49.8521C30.714 49.6712 30.7496 49.4922 30.8188 49.3251C30.888 49.1581 30.9894 49.0063 31.1173 48.8784C31.2452 48.7506 31.397 48.6491 31.5641 48.58C31.7311 48.5108 31.9102 48.4752 32.091 48.4752H32.65C32.1909 48.0119 31.8792 47.4232 31.7542 46.7831C31.6292 46.143 31.6964 45.4803 31.9473 44.8783C32.1982 44.2764 32.6217 43.7621 33.1644 43.4004C33.7071 43.0387 34.3447 42.8457 34.9968 42.8457C35.649 42.8457 36.2866 43.0387 36.8293 43.4004C37.3719 43.7621 37.7954 44.2764 38.0464 44.8783C38.2973 45.4803 38.3645 46.143 38.2395 46.7831C38.1144 47.4232 37.8028 48.0119 37.3437 48.4752H37.9028C38.0837 48.4752 38.2627 48.5108 38.4298 48.58C38.5968 48.6492 38.7486 48.7507 38.8765 48.8785C39.0044 49.0064 39.1058 49.1582 39.175 49.3253C39.2441 49.4924 39.2797 49.6714 39.2797 49.8522V55.664C39.2794 55.8198 39.2526 55.9743 39.2003 56.1211C40.4226 56.27 41.6343 56.4955 42.8282 56.7962V60.2224H29.8975C29.7476 60.2224 29.5992 60.1929 29.4607 60.1356C29.3222 60.0782 29.1964 59.9942 29.0904 59.8882C28.9844 59.7822 28.9004 59.6564 28.843 59.5179C28.7856 59.3795 28.7561 59.231 28.7561 59.0812V57.7003C28.7556 57.4409 28.8437 57.1891 29.0057 56.9865C29.1677 56.7839 29.394 56.6426 29.6471 56.5861Z" fill="#17466C"/>
<path d="M33.5286 46.1502L0.24493 43.5806L26.7984 48.1081L33.1615 47.0068L33.5286 46.1502Z" fill="#17466C"/>
<path d="M70.3489 74.5391H75.5124C75.8987 74.5391 76.2691 74.6926 76.5422 74.9657C76.8153 75.2388 76.9687 75.6093 76.9687 75.9955V77.1207C76.9686 77.4163 76.8784 77.7049 76.7102 77.9481C76.542 78.1912 76.3037 78.3774 76.0271 78.4818C76.2406 78.7381 76.3573 79.0612 76.3569 79.3947V79.7175C76.357 79.9477 76.3014 80.1744 76.1948 80.3784C76.0883 80.5824 75.934 80.7576 75.7451 80.8891V85.185H70.1162V80.8891C69.9273 80.7577 69.773 80.5825 69.6664 80.3784C69.5598 80.1744 69.5042 79.9477 69.5043 79.7175V79.3947C69.5038 79.0611 69.6205 78.738 69.834 78.4817C69.5575 78.3773 69.3192 78.1911 69.151 77.9481C68.9829 77.705 68.8927 77.4164 68.8925 77.1208V75.9955C68.8925 75.6092 69.0459 75.2388 69.319 74.9656C69.5922 74.6925 69.9626 74.5391 70.3489 74.5391Z" fill="#17466C"/>
<path d="M78.1778 84.5775C78.4077 84.5777 78.6281 84.6692 78.7906 84.8317C78.9532 84.9942 79.0447 85.2146 79.045 85.4445V92.3906C79.0447 92.6205 78.9532 92.8408 78.7907 93.0034C78.6281 93.166 78.4077 93.2574 78.1778 93.2577H67.6832C67.4533 93.2574 67.2329 93.166 67.0704 93.0034C66.9078 92.8408 66.8163 92.6205 66.816 92.3906V85.4445C66.8163 85.2146 66.9077 84.9941 67.0703 84.8316C67.2329 84.669 67.4533 84.5776 67.6832 84.5773L78.1778 84.5775ZM60.9104 71.725L65.5885 75.6407H80.2726L84.6949 71.725H80.2969L80.1049 70.7668C80.0486 70.485 79.8964 70.2314 79.6741 70.0491C79.4519 69.8668 79.1735 69.7672 78.8861 69.7671H66.6079C66.3205 69.7672 66.042 69.8668 65.8198 70.0491C65.5976 70.2314 65.4454 70.485 65.3891 70.7668L65.1969 71.725H60.9104Z" fill="#376285"/>
<path d="M116.554 58.0454H28.695V58.6058H116.554V58.0454Z" fill="#E6E6E6"/>
<path d="M26.5535 47.7053L32.9166 46.604L32.9791 46.4581L33.2836 46.4817L32.9166 47.3382L26.5535 48.4395L-3.8147e-06 43.5806L7.8691 44.5195L26.5535 47.7053Z" fill="#6C63FF"/>
<path d="M108.906 46.1502L75.6224 43.5806L102.176 48.1081L108.539 47.0068L108.906 46.1502Z" fill="#17466C"/>
<path d="M101.809 47.7053L108.172 46.604L108.234 46.4581L108.539 46.4817L108.172 47.3382L101.809 48.4395L75.2552 43.5806L83.1243 44.5195L101.809 47.7053Z" fill="#6C63FF"/>
<path d="M77.6413 70.8071H67.8519V72.765H77.6413V70.8071Z" fill="#E6E6E6"/>
<defs>
<filter id="filter0_i" x="56.6616" y="23.8457" width="601.519" height="418.737" filterUnits="userSpaceOnUse" color-interpolation-filters="sRGB">
<feFlood flood-opacity="0" result="BackgroundImageFix"/>
<feBlend mode="normal" in="SourceGraphic" in2="BackgroundImageFix" result="shape"/>
<feColorMatrix in="SourceAlpha" type="matrix" values="0 0 0 0 0 0 0 0 0 0 0 0 0 0 0 0 0 0 127 0" result="hardAlpha"/>
<feOffset dx="-13" dy="-1"/>
<feComposite in2="hardAlpha" operator="arithmetic" k2="-1" k3="1"/>
<feColorMatrix type="matrix" values="0 0 0 0 0 0 0 0 0 0 0 0 0 0 0 0 0 0 0.08 0"/>
<feBlend mode="normal" in2="shape" result="effect1_innerShadow"/>
</filter>
<clipPath id="clip0">
<rect x="79.9248" y="78.6802" width="583.24" height="375.534" fill="white"/>
</clipPath>
</defs>
</svg>
