<svg width="557" height="441" viewBox="0 0 557 441" fill="none" xmlns="http://www.w3.org/2000/svg">
<path d="M102.558 8.1001C102.615 8.10018 102.669 8.12257 102.708 8.16234C102.748 8.20211 102.77 8.25603 102.771 8.31227V16.7879C102.77 16.8442 102.748 16.8981 102.708 16.9379C102.669 16.9776 102.615 17 102.558 17.0001H101.12C101.063 17 101.009 16.9777 100.97 16.9379C100.93 16.8981 100.907 16.8442 100.907 16.7879V8.31227C100.907 8.25602 100.93 8.2021 100.97 8.16232C101.009 8.12255 101.063 8.10017 101.12 8.1001H102.558ZM90.5936 8.1001C90.6499 8.10016 90.7038 8.12253 90.7436 8.1623C90.7834 8.20208 90.8058 8.25601 90.8059 8.31227V16.7879C90.8058 16.8442 90.7834 16.8981 90.7436 16.9379C90.7039 16.9777 90.6499 17 90.5937 17.0001H89.1549C89.0986 17 89.0447 16.9777 89.0049 16.9379C88.9652 16.8981 88.9428 16.8442 88.9427 16.7879V8.31227C88.9428 8.25602 88.9652 8.2021 89.0049 8.16232C89.0447 8.12255 89.0986 8.10017 89.1549 8.1001H90.5936Z" fill="#17466C"/>
<path d="M83.8715 1.36636L94.9033 0.514648L86.1022 2.0153L83.9932 1.65027L83.8715 1.36636Z" fill="#17466C"/>
<path d="M86.0212 1.88178L83.9121 1.51675L83.8914 1.46841L83.7905 1.47621L83.9121 1.76012L86.0212 2.12515L94.8223 0.514648L92.2141 0.825851L86.0212 1.88178Z" fill="#6C63FF"/>
<path d="M108.855 1.36636L119.887 0.514648L111.086 2.0153L108.977 1.65027L108.855 1.36636Z" fill="#17466C"/>
<path d="M111.208 1.88178L109.099 1.51675L109.078 1.46841L108.977 1.47621L109.099 1.76012L111.208 2.12515L120.009 0.514648L117.401 0.825851L111.208 1.88178Z" fill="#6C63FF"/>
<path d="M82.0056 5.78721L82.9384 5.8278L91.4844 9.43343L91.9736 9.84306L93.5241 11.1409H98.3911L99.8569 9.84306L100.414 9.34945L108.612 5.86834L109.342 5.78721L106.908 4.61106H106.895C106.344 4.08746 101.567 3.67822 95.7548 3.67822C89.9428 3.67822 85.1659 4.08741 84.6143 4.61106H84.5607L82.0056 5.78721Z" fill="#17466C"/>
<path d="M106.976 4.6711C106.958 4.62246 106.95 4.57123 106.95 4.51962V2.59325C106.95 2.47222 106.998 2.35615 107.083 2.27057C107.169 2.18498 107.285 2.1369 107.406 2.13688H107.591C107.439 1.98333 107.336 1.78819 107.294 1.57604C107.253 1.36389 107.275 1.14422 107.358 0.944712C107.441 0.745198 107.582 0.574765 107.762 0.45488C107.942 0.334996 108.153 0.271024 108.369 0.271024C108.585 0.271024 108.797 0.334996 108.976 0.45488C109.156 0.574765 109.297 0.745198 109.38 0.944712C109.463 1.14422 109.485 1.36389 109.444 1.57604C109.402 1.78819 109.299 1.98333 109.147 2.13688H109.332C109.392 2.13687 109.451 2.14867 109.507 2.17161C109.562 2.19454 109.613 2.22816 109.655 2.27055C109.697 2.31293 109.731 2.36325 109.754 2.41863C109.777 2.47401 109.789 2.53336 109.789 2.5933V4.51962C109.789 4.5985 109.768 4.67602 109.729 4.74453C109.867 4.76846 110.005 4.79536 110.142 4.82522C110.226 4.84398 110.301 4.89081 110.355 4.95795C110.408 5.0251 110.438 5.10856 110.437 5.19453V5.65221C110.437 5.75254 110.398 5.84875 110.327 5.91969C110.256 5.99063 110.16 6.03048 110.059 6.03048H105.773V4.89486C106.169 4.79519 106.571 4.72046 106.976 4.6711ZM81.612 4.82522C81.7492 4.79536 81.8869 4.76846 82.0252 4.74453C81.9861 4.67601 81.9656 4.59849 81.9656 4.51962V2.59325C81.9656 2.53331 81.9774 2.47396 82.0004 2.41859C82.0233 2.36322 82.0569 2.31291 82.0993 2.27053C82.1417 2.22815 82.192 2.19454 82.2474 2.1716C82.3028 2.14867 82.3621 2.13687 82.422 2.13688H82.6073C82.4552 1.98334 82.3518 1.78819 82.3104 1.57604C82.269 1.36389 82.2912 1.14422 82.3744 0.944703C82.4576 0.745185 82.5979 0.574746 82.7778 0.454858C82.9577 0.33497 83.169 0.270996 83.3852 0.270996C83.6013 0.270996 83.8127 0.33497 83.9925 0.454858C84.1724 0.574746 84.3128 0.745185 84.3959 0.944703C84.4791 1.14422 84.5014 1.36389 84.4599 1.57604C84.4185 1.78819 84.3152 1.98334 84.163 2.13688H84.3484C84.4083 2.13688 84.4676 2.14869 84.523 2.17162C84.5784 2.19456 84.6287 2.22818 84.6711 2.27057C84.7135 2.31295 84.7471 2.36327 84.77 2.41864C84.7929 2.47402 84.8047 2.53337 84.8047 2.5933V4.51962C84.8046 4.57124 84.7957 4.62246 84.7784 4.6711C85.1835 4.72046 85.5851 4.79519 85.9809 4.89486V6.03048H81.695C81.6453 6.03049 81.5961 6.02071 81.5502 6.0017C81.5043 5.9827 81.4626 5.95483 81.4275 5.91971C81.3924 5.88458 81.3645 5.84288 81.3455 5.79698C81.3265 5.75109 81.3167 5.70189 81.3167 5.65221V5.19453C81.3165 5.10855 81.3457 5.02509 81.3994 4.95794C81.4531 4.89079 81.5281 4.84397 81.612 4.82522Z" fill="#17466C"/>
<path d="M82.8984 1.36636L71.8666 0.514648L80.6677 2.0153L82.7768 1.65027L82.8984 1.36636Z" fill="#17466C"/>
<path d="M95.1018 10.7759H96.8132C96.9412 10.7759 97.064 10.8268 97.1545 10.9173C97.245 11.0078 97.2959 11.1306 97.2959 11.2586V11.6315C97.2959 11.7295 97.266 11.8252 97.2102 11.9058C97.1545 11.9864 97.0755 12.0481 96.9838 12.0827C97.0546 12.1676 97.0933 12.2747 97.0931 12.3853V12.4923C97.0931 12.5686 97.0747 12.6437 97.0394 12.7113C97.0041 12.7789 96.9529 12.837 96.8903 12.8806V14.3045H95.0247V12.8806C94.962 12.837 94.9109 12.779 94.8756 12.7113C94.8402 12.6437 94.8218 12.5686 94.8218 12.4923V12.3853C94.8217 12.2747 94.8604 12.1676 94.9311 12.0826C94.8395 12.048 94.7605 11.9864 94.7048 11.9058C94.649 11.8252 94.6191 11.7296 94.619 11.6316V11.2586C94.619 11.1306 94.6699 11.0078 94.7604 10.9173C94.851 10.8267 94.9737 10.7759 95.1018 10.7759Z" fill="#17466C"/>
<path d="M97.6974 14.1027C97.7735 14.1028 97.8466 14.1331 97.9005 14.187C97.9544 14.2409 97.9847 14.3139 97.9848 14.3901V16.6924C97.9847 16.7686 97.9544 16.8416 97.9005 16.8955C97.8466 16.9494 97.7735 16.9797 97.6974 16.9798H94.2189C94.1427 16.9797 94.0697 16.9494 94.0158 16.8955C93.9619 16.8416 93.9316 16.7686 93.9315 16.6924V14.3901C93.9316 14.3139 93.9619 14.2408 94.0158 14.1869C94.0697 14.1331 94.1427 14.1028 94.2189 14.1027L97.6974 14.1027ZM91.9741 9.84278L93.5246 11.1406H98.3917L99.8574 9.84278H98.3997L98.3361 9.52521C98.3174 9.4318 98.267 9.34774 98.1933 9.28732C98.1197 9.22691 98.0274 9.19388 97.9321 9.19385H93.8625C93.7673 9.19388 93.675 9.22691 93.6013 9.28732C93.5277 9.34774 93.4772 9.4318 93.4585 9.52521L93.3948 9.84278H91.9741Z" fill="#376285"/>
<path d="M110.417 5.30908H81.2962V5.49484H110.417V5.30908Z" fill="#E6E6E6"/>
<path d="M80.5857 1.88178L82.6948 1.51675L82.7155 1.46841L82.8164 1.47621L82.6948 1.76012L80.5857 2.12515L71.7846 0.514648L74.3928 0.825851L80.5857 1.88178Z" fill="#6C63FF"/>
<path d="M107.882 1.36636L96.85 0.514648L105.651 2.0153L107.76 1.65027L107.882 1.36636Z" fill="#17466C"/>
<path d="M105.529 1.88178L107.638 1.51675L107.659 1.46841L107.76 1.47621L107.638 1.76012L105.529 2.12515L96.728 0.514648L99.3362 0.825851L105.529 1.88178Z" fill="#6C63FF"/>
<path d="M97.5195 9.53857H94.2749V10.1875H97.5195V9.53857Z" fill="#E6E6E6"/>
<path d="M217.487 49.0991C217.581 49.0993 217.671 49.1367 217.738 49.2033C217.804 49.2698 217.842 49.36 217.842 49.4541V63.6351C217.842 63.7292 217.804 63.8194 217.738 63.8859C217.671 63.9525 217.581 63.9899 217.487 63.9901H215.08C214.985 63.9899 214.895 63.9525 214.829 63.8859C214.762 63.8194 214.725 63.7292 214.725 63.6351V49.4541C214.725 49.36 214.762 49.2698 214.829 49.2032C214.895 49.1367 214.985 49.0992 215.08 49.0991H217.487ZM197.468 49.0991C197.562 49.0992 197.653 49.1366 197.719 49.2032C197.786 49.2698 197.823 49.36 197.823 49.4541V63.6351C197.823 63.7292 197.786 63.8194 197.719 63.8859C197.653 63.9525 197.562 63.9899 197.468 63.9901H195.061C194.967 63.9899 194.877 63.9525 194.81 63.8859C194.744 63.8194 194.706 63.7292 194.706 63.6351V49.4541C194.706 49.36 194.744 49.2698 194.81 49.2032C194.877 49.1367 194.967 49.0992 195.061 49.0991H197.468Z" fill="#17466C"/>
<path d="M186.222 37.8327L204.68 36.4077L189.954 38.9185L186.426 38.3078L186.222 37.8327Z" fill="#17466C"/>
<path d="M189.819 38.6951L186.29 38.0844L186.255 38.0035L186.086 38.0165L186.29 38.4916L189.819 39.1023L204.544 36.4077L200.18 36.9284L189.819 38.6951Z" fill="#6C63FF"/>
<path d="M228.024 37.8327L246.481 36.4077L231.756 38.9185L228.227 38.3078L228.024 37.8327Z" fill="#17466C"/>
<path d="M231.959 38.6951L228.43 38.0844L228.396 38.0035L228.227 38.0165L228.43 38.4916L231.959 39.1023L246.685 36.4077L242.321 36.9284L231.959 38.6951Z" fill="#6C63FF"/>
<path d="M183.101 45.2293L184.661 45.2972L198.96 51.3299L199.779 52.0153L202.373 54.1868H210.516L212.968 52.0153L213.901 51.1894L227.616 45.365L228.838 45.2293L224.766 43.2614H224.745C223.822 42.3854 215.829 41.7007 206.105 41.7007C196.381 41.7007 188.388 42.3853 187.465 43.2614H187.376L183.101 45.2293Z" fill="#17466C"/>
<path d="M224.878 43.362C224.849 43.2806 224.834 43.1949 224.834 43.1085V39.8854C224.834 39.6829 224.914 39.4887 225.058 39.3456C225.201 39.2024 225.395 39.1219 225.598 39.1219H225.908C225.653 38.865 225.48 38.5385 225.411 38.1835C225.342 37.8286 225.379 37.461 225.518 37.1272C225.657 36.7934 225.892 36.5082 226.193 36.3077C226.494 36.1071 226.847 36 227.209 36C227.571 36 227.924 36.1071 228.225 36.3077C228.526 36.5082 228.761 36.7934 228.9 37.1272C229.039 37.461 229.077 37.8286 229.007 38.1835C228.938 38.5385 228.765 38.865 228.511 39.1219H228.821C228.921 39.1219 229.02 39.1416 229.113 39.18C229.206 39.2184 229.29 39.2746 229.361 39.3455C229.432 39.4164 229.488 39.5006 229.526 39.5933C229.565 39.6859 229.584 39.7852 229.584 39.8855V43.1085C229.584 43.2405 229.55 43.3702 229.484 43.4848C229.716 43.5249 229.946 43.5699 230.176 43.6198C230.316 43.6512 230.442 43.7296 230.532 43.8419C230.621 43.9543 230.67 44.0939 230.67 44.2377V45.0035C230.67 45.1714 230.603 45.3323 230.485 45.451C230.366 45.5697 230.205 45.6364 230.037 45.6364H222.866V43.7363C223.528 43.5696 224.2 43.4446 224.878 43.362ZM182.441 43.6198C182.67 43.5699 182.901 43.5249 183.132 43.4848C183.067 43.3702 183.033 43.2405 183.033 43.1085V39.8854C183.033 39.7852 183.052 39.6859 183.091 39.5932C183.129 39.5006 183.185 39.4164 183.256 39.3455C183.327 39.2746 183.411 39.2183 183.504 39.18C183.597 39.1416 183.696 39.1219 183.796 39.1219H184.106C183.852 38.865 183.679 38.5385 183.609 38.1835C183.54 37.8286 183.577 37.461 183.717 37.1272C183.856 36.7934 184.091 36.5082 184.392 36.3076C184.692 36.107 185.046 36 185.408 36C185.769 36 186.123 36.107 186.424 36.3076C186.725 36.5082 186.96 36.7934 187.099 37.1272C187.238 37.461 187.275 37.8286 187.206 38.1835C187.137 38.5385 186.964 38.865 186.709 39.1219H187.019C187.12 39.1219 187.219 39.1416 187.311 39.18C187.404 39.2184 187.488 39.2746 187.559 39.3456C187.63 39.4165 187.686 39.5007 187.725 39.5933C187.763 39.686 187.783 39.7853 187.783 39.8855V43.1085C187.783 43.1949 187.768 43.2806 187.739 43.362C188.417 43.4446 189.089 43.5696 189.751 43.7363V45.6364H182.58C182.497 45.6364 182.414 45.62 182.338 45.5882C182.261 45.5564 182.191 45.5098 182.132 45.4511C182.073 45.3923 182.027 45.3225 181.995 45.2457C181.963 45.1689 181.947 45.0866 181.947 45.0035V44.2377C181.947 44.0939 181.995 43.9542 182.085 43.8419C182.175 43.7295 182.301 43.6512 182.441 43.6198Z" fill="#17466C"/>
<path d="M184.593 37.8327L166.135 36.4077L180.861 38.9185L184.389 38.3078L184.593 37.8327Z" fill="#17466C"/>
<path d="M205.013 53.5762H207.876C208.09 53.5762 208.296 53.6613 208.447 53.8128C208.599 53.9642 208.684 54.1697 208.684 54.3838V55.0078C208.684 55.1718 208.634 55.3318 208.54 55.4667C208.447 55.6015 208.315 55.7048 208.161 55.7627C208.28 55.9048 208.345 56.0839 208.344 56.2689V56.4479C208.344 56.5756 208.314 56.7013 208.254 56.8144C208.195 56.9276 208.11 57.0247 208.005 57.0976V59.4799H204.884V57.0976C204.779 57.0247 204.693 56.9276 204.634 56.8145C204.575 56.7013 204.544 56.5756 204.544 56.4479V56.2689C204.544 56.0839 204.609 55.9047 204.727 55.7626C204.574 55.7047 204.442 55.6015 204.348 55.4667C204.255 55.3319 204.205 55.1718 204.205 55.0079V54.3838C204.205 54.1696 204.29 53.9642 204.441 53.8127C204.593 53.6613 204.798 53.5762 205.013 53.5762Z" fill="#17466C"/>
<path d="M209.354 59.1424C209.481 59.1426 209.603 59.1933 209.694 59.2834C209.784 59.3735 209.834 59.4957 209.835 59.6232V63.4752C209.834 63.6027 209.784 63.7249 209.694 63.8151C209.603 63.9052 209.481 63.9559 209.354 63.9561H203.534C203.406 63.9559 203.284 63.9052 203.194 63.8151C203.104 63.7249 203.053 63.6027 203.053 63.4752V59.6232C203.053 59.4957 203.104 59.3735 203.194 59.2833C203.284 59.1932 203.406 59.1425 203.534 59.1423L209.354 59.1424ZM199.778 52.015L202.372 54.1865H210.515L212.968 52.015H210.529L210.422 51.4836C210.391 51.3273 210.307 51.1867 210.183 51.0856C210.06 50.9845 209.906 50.9293 209.746 50.9292H202.937C202.778 50.9293 202.624 50.9845 202.5 51.0856C202.377 51.1867 202.293 51.3273 202.262 51.4836L202.155 52.015H199.778Z" fill="#376285"/>
<path d="M230.636 44.4292H181.913V44.74H230.636V44.4292Z" fill="#E6E6E6"/>
<path d="M180.725 38.6951L184.253 38.0844L184.288 38.0035L184.457 38.0165L184.253 38.4916L180.725 39.1023L165.999 36.4077L170.363 36.9284L180.725 38.6951Z" fill="#6C63FF"/>
<path d="M226.395 37.8327L207.937 36.4077L222.662 38.9185L226.191 38.3078L226.395 37.8327Z" fill="#17466C"/>
<path d="M222.459 38.6951L225.988 38.0844L226.023 38.0035L226.191 38.0165L225.988 38.4916L222.459 39.1023L207.734 36.4077L212.098 36.9284L222.459 38.6951Z" fill="#6C63FF"/>
<path d="M209.057 51.5063H203.628V52.5921H209.057V51.5063Z" fill="#E6E6E6"/>
<path d="M109.976 431.311C109.715 431.264 81.6734 423.887 75.4142 429.323C69.1549 434.76 96.3684 434.85 101.268 433.659C106.168 432.467 109.976 431.311 109.976 431.311Z" fill="#17466C"/>
<path d="M116.24 432.635C116.24 432.635 122.218 427.892 130.12 428.751C138.022 429.61 144.802 431.418 138.007 433.659C131.212 435.9 124.129 436.189 120.863 435.902C117.597 435.616 116.24 432.635 116.24 432.635Z" fill="#17466C"/>
<path d="M421.734 419.812C421.734 419.812 419.989 426.894 414.053 428.684C408.117 430.473 402.33 433.945 410.673 434.05C419.821 434.169 425.064 433.715 428.866 433.045C432.667 432.375 430.176 425.33 429.574 421.974C428.972 418.618 421.734 419.812 421.734 419.812Z" fill="#17466C"/>
<path d="M44.3081 336.901C44.3081 336.901 -20.2174 251.293 6.98723 255.377C34.1918 259.461 56.5188 298.768 56.5188 298.768C56.5188 298.768 30.7113 193.579 39.0606 188.691C47.41 183.804 45.5015 174.347 36.955 149.892C28.4086 125.438 60.8053 141.31 64.8527 158.452C68.9 175.594 81.5381 220.821 96.2065 232.333C110.875 243.846 118.31 252.133 118.31 252.133L210.171 167.128C210.171 167.128 238.759 133.791 255.582 128.475C272.404 123.16 243.373 158.857 245.729 161.463C248.085 164.07 302.631 89.8181 317.862 104.475C333.093 119.131 285.507 160.451 285.507 160.451L410.936 167.128C410.936 167.128 466.51 166.385 474.246 152.487C481.982 138.589 494.436 138.589 501.847 138.589C509.257 138.589 531.418 145.159 513.728 155.852C496.037 166.546 495.211 168.466 498.515 183.127C501.818 197.788 484.694 225.531 465.04 235.175C445.385 244.819 418.856 279.34 418.856 279.34L419.812 312.345C419.812 312.345 511.755 245.633 523.312 260.355C534.87 275.077 474.246 317.36 474.246 317.36C474.246 317.36 474.795 337.662 469.718 352.414C464.641 367.166 443.328 367.76 430.354 374.86C417.379 381.96 486.875 371.742 495.174 350.955C503.472 330.169 562.958 309.796 554.695 332.726C546.432 355.656 539.132 368.028 539.132 368.028C539.132 368.028 561.224 370.72 555.481 385.388C549.738 400.057 496.67 409.34 478.178 409.633C459.686 409.926 137.524 407.397 137.524 407.397L44.3081 336.901Z" fill="#17466C"/>
<path d="M158.445 355.116L164.961 402.112L414.351 408.895L420.508 353.783L158.445 355.116Z" fill="#0B3658"/>
<path d="M176.951 405.512C176.951 405.512 165.216 280.323 101.685 241.998C38.1537 203.674 34.8968 198.773 34.8968 198.773C34.8968 198.773 31.2967 287.644 73.8096 342.27C116.322 396.897 161.488 407.881 161.488 407.881L176.951 405.512Z" fill="url(#paint0_linear)"/>
<path d="M152.398 409.456C152.398 409.456 134.77 341.009 82.2271 328.879C29.6844 316.75 0 332.405 0 332.405C0 332.405 27.8179 414.788 68.6016 419.556C114.56 424.944 152.398 409.456 152.398 409.456Z" fill="#3C7092"/>
<path d="M155.651 409.947C155.411 409.948 155.18 409.851 155.006 409.677C154.838 409.512 137.878 392.812 111.809 376.042C87.7754 360.589 50.8775 341.914 11.5131 340.697C11.2641 340.689 11.0282 340.577 10.8574 340.387C10.6865 340.196 10.5946 339.942 10.602 339.681C10.6093 339.419 10.7153 339.171 10.8965 338.992C11.0777 338.812 11.3194 338.715 11.5684 338.723C29.1461 339.268 47.698 343.263 66.6994 350.592C81.8859 356.456 97.4001 364.457 112.808 374.369C139.032 391.243 156.105 408.062 156.275 408.23C156.412 408.365 156.508 408.541 156.549 408.734C156.59 408.927 156.574 409.129 156.505 409.313C156.435 409.497 156.315 409.654 156.159 409.765C156.003 409.876 155.819 409.936 155.631 409.935L155.651 409.947Z" fill="#E8F0F6"/>
<path d="M161.962 403.098C161.767 403.098 161.578 403.034 161.42 402.916C161.261 402.798 161.141 402.632 161.076 402.44C160.954 402.081 148.697 365.994 127.422 322.277C115.408 297.604 97.507 280.197 80.1972 263.371C66.8329 250.383 54.2126 238.114 45.9651 223.762C45.8991 223.651 45.8547 223.528 45.8346 223.398C45.8145 223.269 45.819 223.137 45.848 223.01C45.8769 222.883 45.9297 222.763 46.0032 222.657C46.0767 222.551 46.1695 222.462 46.2761 222.394C46.3827 222.327 46.5011 222.282 46.6243 222.263C46.7475 222.244 46.8731 222.251 46.9938 222.283C47.1145 222.316 47.2278 222.373 47.3271 222.452C47.4265 222.531 47.5099 222.63 47.5725 222.743C55.6828 236.864 68.2101 249.029 81.4792 261.921C98.9108 278.863 116.936 296.382 129.1 321.377C150.437 365.216 162.732 401.42 162.854 401.781C162.895 401.903 162.913 402.033 162.907 402.162C162.901 402.292 162.87 402.418 162.817 402.535C162.764 402.652 162.689 402.757 162.598 402.844C162.506 402.93 162.399 402.997 162.283 403.04C162.18 403.079 162.071 403.099 161.962 403.098Z" fill="#E8F0F6"/>
<path d="M30.9975 373.443C30.7911 373.443 30.5903 373.372 30.4262 373.241C30.2621 373.109 30.1438 372.925 30.0896 372.715C30.0354 372.506 30.0483 372.284 30.1264 372.083C30.2045 371.882 30.3433 371.714 30.5215 371.605C41.6296 364.755 53.8978 360.238 66.6445 358.305C76.1872 356.885 82.3513 357.499 82.6081 357.525C82.8475 357.562 83.0643 357.694 83.2134 357.894C83.3625 358.094 83.4325 358.347 83.4088 358.6C83.3852 358.854 83.2697 359.087 83.0864 359.253C82.9031 359.419 82.666 359.505 82.4244 359.492C82.3624 359.492 76.1784 358.875 66.8415 360.271C54.357 362.17 42.3413 366.596 31.4603 373.303C31.3202 373.392 31.1607 373.44 30.9975 373.443Z" fill="#E8F0F6"/>
<path d="M55.9545 399.735C55.7669 399.737 55.5829 399.68 55.4265 399.572C55.27 399.463 55.1482 399.307 55.0767 399.125C55.0052 398.942 54.9873 398.742 55.0254 398.549C55.0635 398.355 55.1557 398.179 55.2903 398.041C55.4984 397.829 60.4845 392.763 69.7572 387.103C82.1432 379.564 95.8486 374.728 110.054 372.884C110.177 372.867 110.302 372.876 110.422 372.91C110.543 372.944 110.655 373.003 110.753 373.083C110.851 373.163 110.934 373.263 110.995 373.377C111.056 373.491 111.095 373.616 111.11 373.746C111.124 373.876 111.114 374.007 111.08 374.133C111.046 374.259 110.989 374.376 110.911 374.478C110.833 374.58 110.737 374.665 110.628 374.728C110.519 374.791 110.399 374.83 110.275 374.844C96.3236 376.653 82.8628 381.402 70.6982 388.807C61.6204 394.357 56.6475 399.412 56.5988 399.463C56.4248 399.637 56.1944 399.734 55.9545 399.735Z" fill="#65ACE4"/>
<path d="M89.5221 284.993C88.1781 284.993 86.739 284.963 85.2112 284.893C76.3327 284.479 62.7337 282.528 48.3709 275.584C48.1445 275.474 47.9688 275.275 47.8825 275.029C47.7961 274.783 47.8061 274.512 47.9103 274.274C48.0146 274.036 48.2045 273.851 48.4382 273.76C48.672 273.67 48.9305 273.68 49.1569 273.79C63.243 280.611 76.5829 282.524 85.2954 282.929C94.7164 283.366 100.856 282.184 100.918 282.172C101.163 282.124 101.416 282.18 101.621 282.328C101.827 282.476 101.968 282.704 102.014 282.961C102.06 283.219 102.006 283.485 101.866 283.701C101.725 283.917 101.508 284.065 101.263 284.113C101.046 284.148 96.6515 284.993 89.5221 284.993Z" fill="#E8F0F6"/>
<path d="M104.414 320.041C95.6531 320.041 83.4712 318.956 68.1031 315.033C67.8609 314.971 67.6519 314.811 67.5222 314.587C67.3924 314.363 67.3525 314.095 67.4112 313.84C67.4699 313.585 67.6225 313.366 67.8353 313.229C68.0481 313.093 68.3037 313.051 68.5459 313.113C88.1695 318.121 102.486 318.447 111.039 317.839C120.3 317.183 124.988 315.319 125.032 315.3C125.264 315.206 125.523 315.212 125.751 315.317C125.979 315.423 126.157 315.619 126.248 315.864C126.338 316.108 126.332 316.379 126.231 316.619C126.131 316.859 125.944 317.046 125.712 317.141C125.515 317.223 120.794 319.112 111.294 319.801C109.296 319.945 107.005 320.041 104.414 320.041Z" fill="#E8F0F6"/>
<path d="M494.629 414.637C489.265 412.405 482.926 409.982 476.268 407.397C444.509 395.021 348.701 381.188 272.292 386.613C251.241 388.107 191.161 395.947 161.968 396.315C129.808 396.722 146.084 411.693 67.2204 414.839C-11.6435 417.986 24.4883 426.37 56.7588 434.592C78.0252 440.01 138.802 438.286 200.675 436.482C198.828 436.733 199.043 436.743 201.764 436.449C211.579 436.163 221.417 435.875 231.123 435.614C267.24 436.066 319.687 439.717 358.482 440.052C410.1 440.499 511.545 443.34 520.481 430.801C524.98 424.469 512.725 418.77 494.629 414.637Z" fill="#0B3658"/>
<path d="M166.473 177.386C166.707 175.199 166.825 173 166.825 170.8C166.825 169.636 166.788 168.461 166.724 167.309L156.37 163.79C155.744 159.285 154.509 154.897 152.704 150.758L159.568 141.88C157.984 138.951 156.164 136.171 154.128 133.569L143.774 137.121C140.745 133.868 137.294 131.08 133.523 128.841L134.112 117.405C131.197 116.01 128.172 114.883 125.072 114.037L118.675 123.297C114.404 122.542 110.053 122.422 105.75 122.941L99.8313 113.325C96.6926 113.995 93.6153 114.951 90.6339 116.181L90.6472 127.633C86.768 129.66 83.181 132.253 79.993 135.336L69.8391 131.21C67.6742 133.695 65.7164 136.371 63.9873 139.208L70.4082 148.459C68.3945 152.493 66.9392 156.808 66.0863 161.275L55.5737 164.216C55.34 166.402 55.2225 168.6 55.2217 170.8C55.2217 171.975 55.2593 173.141 55.3235 174.291L65.6766 177.812C66.3023 182.317 67.537 186.706 69.3432 190.844L62.4795 199.722C64.0627 202.651 65.882 205.431 67.9173 208.033L78.2726 204.481C81.3021 207.735 84.7532 210.522 88.5239 212.762L87.935 224.197C90.8496 225.592 93.8735 226.718 96.9729 227.565L103.367 218.291C107.639 219.046 111.991 219.166 116.295 218.647L122.214 228.263C125.352 227.593 128.43 226.638 131.411 225.408L131.398 213.955C135.277 211.929 138.864 209.335 142.052 206.252L152.21 210.372C154.374 207.888 156.331 205.213 158.06 202.378L151.639 193.127C153.653 189.093 155.108 184.778 155.961 180.311L166.473 177.386ZM111.017 193.811C106.687 193.812 102.455 192.463 98.8545 189.935C95.2542 187.407 92.4481 183.813 90.7909 179.609C89.1337 175.405 88.6999 170.778 89.5443 166.315C90.3887 161.851 92.4734 157.751 95.5348 154.533C98.5962 151.315 102.497 149.124 106.743 148.236C110.99 147.348 115.391 147.803 119.391 149.545C123.392 151.286 126.811 154.235 129.216 158.019C131.622 161.803 132.905 166.251 132.905 170.802C132.905 176.904 130.599 182.756 126.495 187.071C122.39 191.386 116.822 193.811 111.017 193.811Z" fill="url(#paint1_linear)"/>
<path d="M514.255 388.146C515.657 385.876 516.938 383.526 518.092 381.106C518.708 379.815 519.277 378.511 519.812 377.199L510.27 367.339C511.944 362.02 512.885 356.477 513.066 350.878L525.266 345.086C525.058 340.949 524.513 336.839 523.636 332.801L510.389 330.706C508.763 325.375 506.428 320.313 503.455 315.668L510.097 303.434C507.622 300.214 504.886 297.226 501.92 294.502L490.031 301.002C485.729 297.7 481.006 295.05 476.002 293.131L474.53 279.131C470.727 278.053 466.842 277.324 462.919 276.953L456.941 289.552C451.614 289.537 446.312 290.314 441.192 291.861L432.178 281.453C428.495 282.932 424.939 284.74 421.551 286.86L423.765 300.741C419.438 304.012 415.578 307.916 412.302 312.335L399.197 309.485C397.796 311.755 396.516 314.105 395.362 316.524C394.747 317.815 394.173 319.118 393.642 320.432L403.183 330.292C401.511 335.611 400.569 341.154 400.386 346.752L388.187 352.545C388.394 356.681 388.939 360.791 389.816 364.83L403.063 366.924C404.691 372.255 407.027 377.318 410 381.963L403.358 394.197C405.833 397.417 408.568 400.405 411.534 403.129L423.422 396.629C427.724 399.931 432.446 402.58 437.45 404.499L438.925 418.5C442.728 419.578 446.613 420.306 450.535 420.678L456.514 408.079C461.841 408.094 467.144 407.317 472.265 405.77L481.278 416.179C484.961 414.699 488.517 412.89 491.906 410.771L489.692 396.889C494.02 393.619 497.88 389.715 501.156 385.295L514.255 388.146ZM444.673 374.12C439.912 371.615 435.965 367.683 433.331 362.821C430.696 357.959 429.493 352.384 429.873 346.803C430.252 341.222 432.198 335.884 435.464 331.465C438.73 327.046 443.169 323.744 448.22 321.977C453.271 320.21 458.707 320.057 463.841 321.537C468.975 323.017 473.576 326.064 477.062 330.293C480.549 334.521 482.764 339.742 483.428 345.294C484.091 350.846 483.174 356.48 480.791 361.483C477.595 368.193 471.995 373.294 465.222 375.664C458.448 378.033 451.057 377.478 444.673 374.12Z" fill="url(#paint2_linear)"/>
<path d="M476.252 395.165C475.998 395.165 475.752 395.072 475.555 394.904C475.358 394.735 475.222 394.501 475.17 394.239C475.118 393.978 475.153 393.705 475.27 393.468C475.386 393.231 475.577 393.043 475.809 392.936C482.942 389.639 489.148 384.47 493.832 377.926C498.516 371.382 501.521 363.682 502.558 355.565C502.603 355.265 502.757 354.995 502.989 354.813C503.221 354.631 503.511 354.551 503.798 354.591C504.085 354.631 504.345 354.788 504.524 355.027C504.702 355.267 504.784 355.57 504.752 355.873C503.667 364.386 500.516 372.463 495.604 379.327C490.691 386.191 484.181 391.611 476.699 395.067C476.559 395.132 476.406 395.165 476.252 395.165Z" fill="#E8F0F6"/>
<path d="M501.212 333.615C500.985 333.615 500.764 333.542 500.579 333.405C500.393 333.269 500.252 333.076 500.174 332.852C498.055 326.751 494.767 321.172 490.513 316.461C490.311 316.237 490.202 315.938 490.21 315.63C490.218 315.321 490.342 315.028 490.556 314.816C490.769 314.604 491.053 314.489 491.347 314.497C491.641 314.506 491.919 314.636 492.121 314.86C496.583 319.801 500.03 325.652 502.25 332.051C502.3 332.195 502.323 332.348 502.317 332.501C502.31 332.654 502.275 332.805 502.214 332.943C502.152 333.082 502.065 333.207 501.957 333.31C501.849 333.414 501.723 333.493 501.586 333.545C501.466 333.59 501.339 333.614 501.212 333.615Z" fill="#E8F0F6"/>
<path d="M478.384 306.762C478.212 306.762 478.042 306.72 477.888 306.638C474.532 304.867 470.98 303.538 467.314 302.682C467.172 302.649 467.037 302.587 466.918 302.5C466.799 302.412 466.697 302.301 466.619 302.172C466.54 302.044 466.487 301.9 466.461 301.749C466.436 301.599 466.439 301.445 466.47 301.295C466.501 301.146 466.56 301.005 466.644 300.879C466.727 300.754 466.833 300.647 466.955 300.565C467.078 300.482 467.215 300.426 467.358 300.399C467.501 300.373 467.648 300.376 467.79 300.409C471.634 301.303 475.359 302.693 478.88 304.546C479.103 304.664 479.282 304.857 479.387 305.094C479.493 305.332 479.519 305.599 479.461 305.854C479.404 306.109 479.266 306.337 479.071 306.499C478.875 306.662 478.633 306.75 478.384 306.75V306.762Z" fill="#E8F0F6"/>
<path d="M438.422 295.821C439.964 296.345 441.533 296.779 443.12 297.12C443.968 297.302 444.814 297.45 445.66 297.585L449.8 289.873C453.146 290.07 456.501 289.764 459.764 288.963L465.113 295.807C467.47 294.997 469.757 293.976 471.948 292.754L470.983 283.95C473.799 282.038 476.344 279.716 478.542 277.055L486.703 279.289C488.16 277.181 489.44 274.944 490.529 272.603L484.823 266.087C486.025 262.801 486.783 259.354 487.075 255.847L494.928 252.612C494.928 250.006 494.713 247.405 494.286 244.837L486.019 243.08C485.156 239.675 483.838 236.415 482.104 233.399L486.659 225.905C485.199 223.796 483.569 221.822 481.787 220.006L474.122 223.69C471.522 221.463 468.633 219.637 465.543 218.268L465.042 209.424C463.5 208.901 461.932 208.469 460.344 208.128C459.497 207.947 458.649 207.791 457.802 207.663L453.668 215.384C450.323 215.188 446.968 215.495 443.705 216.294L438.356 209.452C435.998 210.261 433.711 211.283 431.521 212.505L432.486 221.309C429.67 223.221 427.125 225.542 424.927 228.202L416.766 225.968C415.304 228.075 414.021 230.313 412.929 232.654L418.632 239.191C417.427 242.476 416.669 245.924 416.381 249.431L408.527 252.666C408.527 255.271 408.742 257.872 409.169 260.439L417.435 262.196C418.296 265.603 419.612 268.864 421.343 271.884L416.801 279.347C418.262 281.455 419.892 283.428 421.672 285.244L429.338 281.56C431.938 283.79 434.827 285.616 437.92 286.985L438.422 295.821ZM435.13 249.075C435.798 245.623 437.425 242.457 439.805 239.977C442.185 237.497 445.211 235.815 448.501 235.143C451.791 234.471 455.197 234.839 458.287 236.202C461.378 237.564 464.015 239.859 465.864 242.796C467.714 245.734 468.693 249.182 468.678 252.704C468.664 256.227 467.655 259.666 465.781 262.586C463.907 265.506 461.251 267.777 458.149 269.11C455.047 270.444 451.639 270.781 448.355 270.078C443.951 269.136 440.084 266.394 437.604 262.455C435.124 258.516 434.234 253.703 435.13 249.075Z" fill="url(#paint3_linear)"/>
<path d="M460.117 256.526C463.092 251.51 461.635 244.909 456.863 241.781C452.091 238.654 445.81 240.186 442.835 245.202C439.86 250.218 441.317 256.819 446.089 259.946C450.862 263.073 457.142 261.542 460.117 256.526Z" fill="#7C9BA5"/>
<path d="M331.827 402.505V353.783H224.443V402.505H189.527C186.414 402.505 183.43 403.804 181.229 406.117C179.028 408.431 177.792 411.568 177.792 414.839V417.836C177.792 418.363 177.89 418.885 178.082 419.371C178.273 419.858 178.554 420.3 178.909 420.672C179.263 421.045 179.684 421.34 180.147 421.542C180.61 421.743 181.106 421.847 181.607 421.846H374.65C375.151 421.847 375.647 421.743 376.11 421.542C376.573 421.34 376.993 421.045 377.348 420.672C377.702 420.3 377.983 419.858 378.175 419.371C378.366 418.885 378.465 418.363 378.464 417.836V414.839C378.464 411.568 377.228 408.431 375.027 406.117C372.827 403.804 369.842 402.505 366.73 402.505H331.827Z" fill="#477E8F"/>
<path d="M224.447 387.18L331.827 378.479V357.955L224.447 359.151V387.18Z" fill="#27557A"/>
<path d="M331.827 394.516L224.447 402.505H331.827V394.516Z" fill="#27557A"/>
<path d="M440.182 149.888H116.092C112.917 149.888 110.344 152.593 110.344 155.929V358.875C110.344 362.211 112.917 364.916 116.092 364.916H440.182C443.357 364.916 445.93 362.211 445.93 358.875V155.929C445.93 152.593 443.357 149.888 440.182 149.888Z" fill="#17466C"/>
<path d="M124.948 158.652H431.325C432.697 158.652 434.013 159.225 434.983 160.244C435.953 161.264 436.497 162.646 436.497 164.088V337.713C436.497 339.155 435.953 340.538 434.983 341.558C434.013 342.577 432.697 343.15 431.325 343.15H124.948C123.578 343.148 122.264 342.575 121.296 341.556C120.327 340.537 119.783 339.156 119.782 337.716V164.091C119.782 162.65 120.326 161.268 121.295 160.248C122.263 159.228 123.577 158.654 124.948 158.652Z" fill="#E5E5E5"/>
<path d="M289.872 352.279H266.405C265.108 352.279 264.058 353.384 264.058 354.746V355.489C264.058 356.851 265.108 357.955 266.405 357.955H289.872C291.168 357.955 292.219 356.851 292.219 355.489V354.746C292.219 353.384 291.168 352.279 289.872 352.279Z" fill="#6791B2"/>
<path d="M294.696 405.97H368.317C368.643 405.97 368.966 406.038 369.267 406.169C369.568 406.3 369.842 406.492 370.072 406.734C370.303 406.977 370.485 407.264 370.61 407.581C370.735 407.897 370.799 408.236 370.799 408.579V409.212C370.799 409.904 370.537 410.569 370.071 411.058C369.606 411.548 368.974 411.823 368.315 411.823H294.696C294.037 411.823 293.405 411.548 292.94 411.058C292.474 410.569 292.212 409.904 292.212 409.212V408.579C292.212 408.236 292.276 407.897 292.401 407.58C292.526 407.263 292.709 406.976 292.94 406.733C293.17 406.491 293.444 406.299 293.746 406.168C294.047 406.037 294.37 405.97 294.696 405.97Z" fill="#7C9BA5"/>
<g style="mix-blend-mode:multiply" opacity="0.3">
<path d="M281.071 176.036C297.86 176.036 319.922 169.396 326.737 167.207C327.768 166.876 328.833 167.616 328.833 168.663V217.767C328.833 255.7 281.802 286.452 281.802 286.452C281.802 286.452 234.768 255.7 234.768 217.767V170.942C234.768 169.936 235.755 169.201 236.76 169.455C243.248 171.088 264.284 176.036 281.071 176.036Z" fill="#99A8C2"/>
</g>
<path d="M277.442 171.826C293.399 171.826 314.364 165.517 320.838 163.448C321.819 163.134 322.831 163.837 322.831 164.833V211.472C322.831 247.521 278.137 276.743 278.137 276.743C278.137 276.743 233.443 247.521 233.443 211.472V166.983C233.443 166.029 234.38 165.331 235.339 165.573C241.5 167.125 261.485 171.826 277.442 171.826Z" fill="#0B3658"/>
<path d="M278.138 179.501C290.109 179.501 304.992 175.373 312.456 172.117C314.688 171.147 317.212 172.718 317.212 175.077V212.513C317.212 244.037 278.126 269.592 278.126 269.592C278.126 269.592 239.041 244.037 239.041 212.513V176.704C239.041 174.44 241.386 172.874 243.587 173.662C251.002 176.318 266.053 179.501 278.138 179.501Z" fill="#376285"/>
<path d="M278.549 189.655V259.631C278.549 259.631 247.465 238.812 247.465 214.072V185.715C247.465 184.062 249.179 182.922 250.786 183.508C256.589 185.629 268.888 189.655 278.549 189.655Z" fill="#C7E3F4"/>
<path d="M278.549 189.655V259.631C278.549 259.631 310.744 238.812 310.744 214.072V185.65C310.744 184.021 309.061 182.873 307.465 183.427C301.44 185.524 288.333 189.655 278.549 189.655Z" fill="#C7E3F4"/>
<path d="M266.331 206.499C266.814 206.865 267.277 207.246 267.733 207.635C268.189 208.024 268.636 208.405 269.061 208.834C269.486 209.262 269.925 209.678 270.345 210.116C270.567 210.335 270.773 210.551 270.974 210.772L271.574 211.445C271.977 211.891 272.369 212.35 272.759 212.811C273.148 213.272 273.509 213.753 273.886 214.228C274.262 214.703 274.612 215.191 274.968 215.68C275.146 215.913 275.323 216.171 275.495 216.42C275.668 216.669 275.845 216.914 276.009 217.17C276.344 217.674 276.675 218.183 277.001 218.696C277.324 219.211 277.632 219.734 277.942 220.258C278.252 220.781 278.546 221.317 278.828 221.854L279.259 222.662C279.401 222.932 279.534 223.209 279.669 223.483C279.804 223.758 279.941 224.032 280.07 224.312L280.444 225.154C280.694 225.715 280.927 226.288 281.15 226.865C281.374 227.442 281.582 228.028 281.779 228.626C281.879 228.927 281.974 229.224 282.067 229.534C282.113 229.69 282.16 229.837 282.204 229.999L282.348 230.514L276.199 230.116C276.326 229.883 276.421 229.674 276.552 229.459L276.901 228.833C277.138 228.419 277.373 228.007 277.612 227.6L279.064 225.17L281.978 220.351C282.959 218.752 283.971 217.174 285.014 215.624C286.057 214.074 287.146 212.55 288.257 211.049C289.369 209.548 290.533 208.084 291.734 206.66C292.934 205.236 294.18 203.846 295.473 202.508C296.766 201.172 298.122 199.904 299.536 198.71C300.24 198.112 300.971 197.547 301.715 197.004C302.459 196.462 303.22 195.95 304.004 195.48C304.076 195.439 304.16 195.427 304.24 195.447C304.319 195.466 304.389 195.516 304.437 195.586C304.484 195.657 304.505 195.743 304.496 195.828C304.487 195.914 304.448 195.993 304.387 196.05C303.723 196.655 303.059 197.281 302.441 197.928C301.823 198.575 301.21 199.246 300.623 199.927C300.036 200.609 299.463 201.305 298.909 202.022C298.356 202.739 297.82 203.46 297.289 204.191C296.233 205.657 295.227 207.161 294.269 208.703C293.79 209.479 293.318 210.255 292.852 211.03C292.385 211.806 291.931 212.592 291.488 213.388C290.589 214.966 289.732 216.571 288.884 218.18C288.036 219.788 287.226 221.419 286.426 223.055C286.03 223.874 285.636 224.696 285.257 225.522C284.879 226.348 284.518 227.188 284.17 228.033C283.823 228.878 283.486 229.722 283.161 230.572L282.673 231.84L282.213 233.078L279.386 240.677L276.064 232.69L274.807 229.664C274.694 229.408 274.585 229.145 274.481 228.885C274.377 228.624 274.26 228.366 274.156 228.103L273.514 226.527L270.952 220.146C270.731 219.608 270.509 219.08 270.288 218.538L269.967 217.728L269.635 216.923C269.413 216.381 269.192 215.845 268.984 215.294C268.776 214.742 268.541 214.214 268.319 213.665C268.098 213.116 267.892 212.559 267.671 212.017C267.449 211.475 267.241 210.914 267.031 210.353C266.821 209.792 266.588 209.225 266.387 208.65C266.185 208.075 265.97 207.486 265.787 206.9C265.772 206.854 265.766 206.805 265.769 206.757C265.773 206.709 265.785 206.662 265.805 206.619C265.826 206.575 265.855 206.537 265.889 206.505C265.924 206.474 265.964 206.449 266.008 206.434C266.063 206.417 266.121 206.414 266.177 206.425C266.234 206.436 266.286 206.462 266.331 206.499Z" fill="#6791B2"/>
<g style="mix-blend-mode:overlay">
<path style="mix-blend-mode:overlay" d="M245.747 211.016C249.872 225.151 252.208 247.467 253.302 260.662C241.78 249.368 230.333 236.045 229.757 229.082C229.035 220.374 227.621 195.263 227.869 177.809C232.631 183.76 241.395 196.096 245.747 211.016Z" fill="url(#paint4_linear)"/>
<path style="mix-blend-mode:overlay" d="M267.324 239.261C263.941 222.775 254.223 181.633 228.203 168.871C228.584 163.437 229.297 159.927 230.49 159.853C235.257 159.548 240.897 162.434 240.897 162.434C266.319 162.28 278.74 202.817 279.896 209.801C281.051 216.785 279.752 278.454 277.296 280.111C276.76 280.471 274.25 278.903 270.638 276.084C270.541 268.668 270.019 252.396 267.324 239.261Z" fill="url(#paint5_linear)"/>
</g>
<g style="mix-blend-mode:multiply" opacity="0.5">
<path d="M445.93 188.882H364.188C363.566 188.884 362.97 189.145 362.53 189.607C362.09 190.069 361.843 190.695 361.841 191.349V203.888C361.843 204.542 362.09 205.168 362.53 205.63C362.97 206.093 363.566 206.353 364.188 206.355H445.93V188.882Z" fill="#99A8C2"/>
</g>
<path d="M469.989 183.127H358.71C357.414 183.127 356.363 184.231 356.363 185.594V198.133C356.363 199.495 357.414 200.6 358.71 200.6H469.989C471.285 200.6 472.335 199.495 472.335 198.133V185.594C472.335 184.231 471.285 183.127 469.989 183.127Z" fill="#376285"/>
<path d="M467.478 186.278H361.221C360.212 186.278 359.395 187.138 359.395 188.198V195.531C359.395 196.592 360.212 197.451 361.221 197.451H467.478C468.487 197.451 469.305 196.592 469.305 195.531V188.198C469.305 187.138 468.487 186.278 467.478 186.278Z" fill="#E8F0F6"/>
<path d="M371.878 195.326C371.643 195.326 371.418 195.228 371.252 195.054C371.086 194.879 370.992 194.642 370.992 194.395V188.845C370.992 188.598 371.086 188.361 371.252 188.187C371.418 188.012 371.643 187.914 371.878 187.914C372.113 187.914 372.338 188.012 372.504 188.187C372.67 188.361 372.763 188.598 372.763 188.845V194.4C372.762 194.646 372.668 194.882 372.503 195.055C372.337 195.229 372.112 195.326 371.878 195.326Z" fill="#376285"/>
<path d="M374.822 193.658C374.693 193.861 374.492 194.003 374.264 194.052C374.035 194.102 373.798 194.054 373.602 193.921L369.187 190.87C369.076 190.81 368.978 190.727 368.9 190.625C368.821 190.523 368.764 190.405 368.732 190.278C368.7 190.152 368.694 190.019 368.714 189.89C368.734 189.761 368.779 189.637 368.848 189.528C368.917 189.418 369.006 189.325 369.112 189.254C369.217 189.184 369.335 189.138 369.458 189.118C369.582 189.099 369.707 189.108 369.828 189.143C369.948 189.179 370.059 189.24 370.155 189.324L374.57 192.375C374.764 192.511 374.9 192.722 374.947 192.962C374.994 193.202 374.949 193.452 374.822 193.658Z" fill="#376285"/>
<path d="M368.982 193.73C368.85 193.528 368.8 193.279 368.841 193.039C368.883 192.798 369.013 192.584 369.203 192.443L373.547 189.28C373.739 189.17 373.963 189.138 374.176 189.191C374.389 189.244 374.576 189.378 374.7 189.567C374.825 189.756 374.878 189.987 374.851 190.215C374.823 190.443 374.716 190.652 374.55 190.802L370.197 193.965C370.006 194.1 369.771 194.151 369.544 194.107C369.317 194.063 369.115 193.928 368.982 193.73Z" fill="#376285"/>
<path d="M384.257 195.326C384.022 195.326 383.797 195.228 383.631 195.054C383.464 194.879 383.371 194.642 383.371 194.395V188.845C383.371 188.598 383.464 188.361 383.631 188.187C383.797 188.012 384.022 187.914 384.257 187.914C384.492 187.914 384.717 188.012 384.883 188.187C385.049 188.361 385.142 188.598 385.142 188.845V194.4C385.141 194.646 385.047 194.882 384.881 195.055C384.715 195.229 384.491 195.326 384.257 195.326Z" fill="#376285"/>
<path d="M387.199 193.658C387.07 193.861 386.869 194.003 386.641 194.052C386.412 194.102 386.175 194.054 385.979 193.921L381.564 190.87C381.453 190.81 381.355 190.727 381.277 190.625C381.198 190.523 381.141 190.405 381.109 190.278C381.077 190.152 381.071 190.019 381.091 189.89C381.111 189.761 381.156 189.637 381.225 189.528C381.294 189.418 381.383 189.325 381.488 189.254C381.594 189.184 381.712 189.138 381.835 189.118C381.959 189.099 382.084 189.108 382.205 189.143C382.325 189.179 382.436 189.24 382.532 189.324L386.947 192.375C387.141 192.511 387.277 192.722 387.324 192.962C387.371 193.202 387.326 193.452 387.199 193.658Z" fill="#376285"/>
<path d="M381.361 193.73C381.229 193.528 381.179 193.28 381.22 193.039C381.262 192.798 381.392 192.584 381.582 192.443L385.917 189.28C386.011 189.195 386.121 189.132 386.24 189.094C386.359 189.057 386.484 189.046 386.608 189.062C386.731 189.079 386.849 189.122 386.955 189.19C387.061 189.258 387.153 189.348 387.223 189.456C387.294 189.563 387.343 189.685 387.366 189.813C387.389 189.941 387.386 190.073 387.357 190.2C387.329 190.327 387.275 190.446 387.2 190.55C387.124 190.654 387.029 190.74 386.92 190.802L382.596 193.965C382.5 194.035 382.393 194.085 382.279 194.111C382.165 194.137 382.047 194.139 381.932 194.117C381.817 194.095 381.708 194.05 381.61 193.984C381.512 193.917 381.427 193.831 381.361 193.73Z" fill="#376285"/>
<path d="M396.634 195.326C396.399 195.326 396.174 195.228 396.007 195.054C395.841 194.879 395.748 194.642 395.748 194.395V188.845C395.748 188.598 395.841 188.361 396.007 188.187C396.174 188.012 396.399 187.914 396.634 187.914C396.869 187.914 397.094 188.012 397.26 188.187C397.426 188.361 397.519 188.598 397.519 188.845V194.4C397.518 194.646 397.424 194.882 397.259 195.055C397.093 195.229 396.868 195.326 396.634 195.326Z" fill="#376285"/>
<path d="M399.578 193.658C399.449 193.861 399.248 194.003 399.02 194.052C398.791 194.102 398.554 194.054 398.358 193.921L393.943 190.87C393.832 190.81 393.734 190.727 393.655 190.625C393.577 190.523 393.52 190.405 393.488 190.278C393.456 190.152 393.449 190.019 393.469 189.89C393.489 189.761 393.535 189.637 393.604 189.528C393.672 189.418 393.762 189.325 393.867 189.254C393.973 189.184 394.091 189.138 394.214 189.118C394.337 189.099 394.463 189.108 394.583 189.143C394.703 189.179 394.815 189.24 394.911 189.324L399.326 192.375C399.52 192.511 399.656 192.722 399.703 192.962C399.75 193.202 399.705 193.452 399.578 193.658Z" fill="#376285"/>
<path d="M393.738 193.73C393.606 193.528 393.556 193.279 393.597 193.039C393.639 192.798 393.769 192.584 393.959 192.443L398.316 189.28C398.508 189.17 398.732 189.138 398.945 189.191C399.158 189.244 399.345 189.378 399.469 189.567C399.594 189.756 399.648 189.987 399.62 190.215C399.592 190.443 399.485 190.652 399.319 190.802L394.973 193.965C394.877 194.035 394.769 194.085 394.655 194.111C394.542 194.137 394.424 194.139 394.309 194.117C394.194 194.095 394.085 194.05 393.987 193.983C393.888 193.917 393.804 193.831 393.738 193.73Z" fill="#376285"/>
<path d="M409.013 195.326C408.778 195.326 408.552 195.228 408.386 195.054C408.22 194.879 408.127 194.642 408.127 194.395V188.845C408.127 188.598 408.22 188.361 408.386 188.187C408.552 188.012 408.778 187.914 409.013 187.914C409.247 187.914 409.473 188.012 409.639 188.187C409.805 188.361 409.898 188.598 409.898 188.845V194.4C409.897 194.646 409.803 194.882 409.637 195.055C409.471 195.229 409.247 195.326 409.013 195.326Z" fill="#376285"/>
<path d="M411.955 193.658C411.826 193.861 411.625 194.003 411.397 194.052C411.168 194.102 410.931 194.054 410.735 193.921L406.32 190.87C406.209 190.81 406.111 190.727 406.032 190.625C405.954 190.523 405.897 190.405 405.865 190.278C405.833 190.152 405.826 190.019 405.846 189.89C405.866 189.761 405.912 189.637 405.981 189.528C406.049 189.418 406.139 189.325 406.244 189.254C406.35 189.184 406.468 189.138 406.591 189.118C406.714 189.099 406.84 189.108 406.96 189.143C407.08 189.179 407.192 189.24 407.288 189.324L411.703 192.375C411.897 192.511 412.033 192.722 412.08 192.962C412.127 193.202 412.082 193.452 411.955 193.658Z" fill="#376285"/>
<path d="M406.117 193.73C405.985 193.528 405.935 193.28 405.976 193.039C406.017 192.798 406.148 192.584 406.338 192.443L410.682 189.28C410.776 189.195 410.886 189.132 411.005 189.094C411.124 189.057 411.249 189.046 411.372 189.062C411.495 189.079 411.614 189.122 411.72 189.19C411.826 189.258 411.917 189.348 411.988 189.456C412.059 189.563 412.107 189.684 412.13 189.813C412.153 189.941 412.15 190.073 412.122 190.2C412.093 190.327 412.04 190.446 411.964 190.55C411.889 190.654 411.794 190.74 411.685 190.802L407.341 193.965C407.148 194.103 406.912 194.156 406.683 194.112C406.454 194.068 406.25 193.93 406.117 193.73Z" fill="#376285"/>
<path d="M421.39 195.326C421.155 195.326 420.929 195.228 420.763 195.054C420.597 194.879 420.504 194.642 420.504 194.395V188.845C420.504 188.598 420.597 188.361 420.763 188.187C420.929 188.012 421.155 187.914 421.39 187.914C421.624 187.914 421.85 188.012 422.016 188.187C422.182 188.361 422.275 188.598 422.275 188.845V194.4C422.274 194.646 422.18 194.882 422.014 195.055C421.848 195.229 421.624 195.326 421.39 195.326Z" fill="#376285"/>
<path d="M424.334 193.658C424.205 193.861 424.004 194.003 423.775 194.052C423.547 194.102 423.309 194.054 423.114 193.921L418.699 190.87C418.588 190.81 418.49 190.727 418.411 190.625C418.333 190.523 418.276 190.405 418.244 190.278C418.212 190.152 418.205 190.019 418.225 189.89C418.245 189.761 418.291 189.637 418.36 189.528C418.428 189.418 418.518 189.325 418.623 189.254C418.728 189.184 418.847 189.138 418.97 189.118C419.093 189.099 419.219 189.108 419.339 189.143C419.459 189.179 419.571 189.24 419.667 189.324L424.082 192.375C424.276 192.511 424.411 192.722 424.459 192.962C424.506 193.202 424.461 193.452 424.334 193.658Z" fill="#376285"/>
<path d="M418.493 193.73C418.361 193.528 418.311 193.279 418.352 193.039C418.393 192.798 418.524 192.584 418.714 192.443L423.058 189.28C423.25 189.17 423.474 189.138 423.687 189.191C423.9 189.244 424.086 189.378 424.211 189.567C424.336 189.756 424.389 189.987 424.361 190.215C424.334 190.443 424.227 190.652 424.061 190.802L419.717 193.965C419.524 194.103 419.288 194.155 419.059 194.111C418.83 194.067 418.626 193.93 418.493 193.73Z" fill="#376285"/>
<path d="M438.588 193.472H431.151C430.837 193.472 430.582 193.739 430.582 194.07V194.107C430.582 194.437 430.837 194.705 431.151 194.705H438.588C438.902 194.705 439.157 194.437 439.157 194.107V194.07C439.157 193.739 438.902 193.472 438.588 193.472Z" fill="#376285"/>
<path d="M451.22 193.472H443.783C443.469 193.472 443.214 193.739 443.214 194.07V194.107C443.214 194.437 443.469 194.705 443.783 194.705H451.22C451.534 194.705 451.789 194.437 451.789 194.107V194.07C451.789 193.739 451.534 193.472 451.22 193.472Z" fill="#376285"/>
<path d="M463.26 193.472H455.823C455.509 193.472 455.254 193.739 455.254 194.07V194.107C455.254 194.437 455.509 194.705 455.823 194.705H463.26C463.574 194.705 463.829 194.437 463.829 194.107V194.07C463.829 193.739 463.574 193.472 463.26 193.472Z" fill="#376285"/>
<path d="M194.579 249.089L167.702 277.339C167.261 277.8 166.664 278.059 166.042 278.059C165.42 278.059 164.823 277.8 164.381 277.339L137.495 249.089C137.057 248.625 136.812 247.998 136.812 247.344C136.812 246.69 137.057 246.062 137.495 245.598L164.379 217.344C164.82 216.883 165.417 216.624 166.04 216.624C166.662 216.624 167.259 216.883 167.7 217.344L194.579 245.594C195.019 246.058 195.265 246.686 195.265 247.341C195.265 247.996 195.019 248.625 194.579 249.089Z" fill="#E8F0F6"/>
<path d="M192.597 248.966L167.578 275.263C167.167 275.695 166.609 275.937 166.028 275.937C165.447 275.937 164.89 275.695 164.478 275.263L139.488 248.966C139.078 248.533 138.848 247.948 138.848 247.337C138.848 246.726 139.078 246.141 139.488 245.708L164.507 219.411C164.918 218.979 165.476 218.737 166.057 218.737C166.638 218.737 167.195 218.979 167.607 219.411L192.626 245.708C193.033 246.144 193.259 246.732 193.254 247.343C193.248 247.954 193.012 248.538 192.597 248.966Z" fill="#6791B2"/>
<path d="M192.965 244.763H139.116C137.91 244.763 136.933 245.79 136.933 247.057V280.711C136.933 281.978 137.91 283.006 139.116 283.006H192.965C194.17 283.006 195.148 281.978 195.148 280.711V247.057C195.148 245.79 194.17 244.763 192.965 244.763Z" fill="#E8F0F6"/>
<path opacity="0.3" d="M195.148 246.89C195.148 245.726 195.241 245.726 194.13 244.982C193.759 244.827 193.364 244.748 192.965 244.749C135.222 244.749 138.744 244.64 137.952 244.982C136.876 245.706 136.933 245.68 136.933 246.89C137.186 247.414 135.308 246.043 164.388 265.557C164.894 265.858 165.466 266.017 166.049 266.017C166.631 266.017 167.203 265.858 167.709 265.557C196.771 246.043 194.896 247.414 195.148 246.89Z" fill="#79C3F0"/>
<path d="M178.051 225.496C184.732 225.496 190.149 221.637 190.149 216.876C190.149 212.116 184.732 208.256 178.051 208.256C171.369 208.256 165.953 212.116 165.953 216.876C165.953 221.637 171.369 225.496 178.051 225.496Z" fill="#376285"/>
<path d="M183.023 219.95H173.078C171.872 219.95 170.895 220.978 170.895 222.245V227.6C170.895 228.867 171.872 229.894 173.078 229.894H183.023C184.229 229.894 185.207 228.867 185.207 227.6V222.245C185.207 220.978 184.229 219.95 183.023 219.95Z" fill="#376285"/>
<path d="M176.838 215.543C176.838 217.656 175.51 221.479 173.867 221.479C172.224 221.479 170.909 219.748 170.351 217.719C169.563 214.852 171.261 213.674 172.837 213.195C174.717 212.62 176.838 213.432 176.838 215.543Z" fill="#0B3658"/>
<path d="M178.884 215.543C178.884 217.656 180.212 221.479 181.855 221.479C183.498 221.479 184.813 219.748 185.371 217.719C186.159 214.852 184.461 213.674 182.885 213.195C181.005 212.62 178.884 213.432 178.884 215.543Z" fill="#0B3658"/>
<path d="M178.051 220.46C179.38 220.46 179.809 225.114 179.202 225.305C178.596 225.496 177.323 225.687 176.838 225.305C176.353 224.924 177.081 220.46 178.051 220.46Z" fill="#0B3658"/>
<path d="M154.053 200.302C161.08 200.302 166.777 196.243 166.777 191.235C166.777 186.228 161.08 182.168 154.053 182.168C147.025 182.168 141.328 186.228 141.328 191.235C141.328 196.243 147.025 200.302 154.053 200.302Z" fill="#376285"/>
<path d="M159.284 194.47H148.822C147.554 194.47 146.526 195.55 146.526 196.883V202.515C146.526 203.848 147.554 204.928 148.822 204.928H159.284C160.552 204.928 161.58 203.848 161.58 202.515V196.883C161.58 195.55 160.552 194.47 159.284 194.47Z" fill="#376285"/>
<path d="M152.773 189.834C152.773 192.056 151.373 196.078 149.646 196.078C147.919 196.078 146.533 194.256 145.947 192.121C145.118 189.096 146.905 187.867 148.564 187.362C150.545 186.76 152.773 187.611 152.773 189.834Z" fill="#0B3658"/>
<path d="M154.927 189.834C154.927 192.056 156.326 196.078 158.053 196.078C159.78 196.078 161.153 194.256 161.751 192.121C162.581 189.096 160.794 187.867 159.136 187.362C157.159 186.76 154.927 187.611 154.927 189.834Z" fill="#0B3658"/>
<path d="M154.053 195.005C155.456 195.005 155.901 199.892 155.264 200.099C154.626 200.306 153.287 200.502 152.777 200.099C152.268 199.697 153.032 195.005 154.053 195.005Z" fill="#0B3658"/>
<path d="M199.41 191.794C203.153 191.794 206.188 189.632 206.188 186.965C206.188 184.298 203.153 182.136 199.41 182.136C195.667 182.136 192.633 184.298 192.633 186.965C192.633 189.632 195.667 191.794 199.41 191.794Z" fill="#376285"/>
<path d="M202.198 188.687H196.626C195.951 188.687 195.403 189.262 195.403 189.971V192.973C195.403 193.683 195.951 194.258 196.626 194.258H202.198C202.873 194.258 203.421 193.683 203.421 192.973V189.971C203.421 189.262 202.873 188.687 202.198 188.687Z" fill="#376285"/>
<path d="M198.731 186.218C198.731 187.4 197.987 189.543 197.068 189.543C196.149 189.543 195.41 188.573 195.098 187.437C194.655 185.829 195.607 185.17 196.49 184.901C197.542 184.579 198.731 185.033 198.731 186.218Z" fill="#0B3658"/>
<path d="M199.878 186.218C199.878 187.4 200.622 189.543 201.541 189.543C202.46 189.543 203.199 188.573 203.511 187.437C203.954 185.829 203.002 185.17 202.119 184.901C201.067 184.579 199.878 185.033 199.878 186.218Z" fill="#0B3658"/>
<path d="M199.411 188.971C200.159 188.971 200.396 191.577 200.057 191.684C199.719 191.791 199.003 191.898 198.729 191.684C198.454 191.47 198.868 188.971 199.411 188.971Z" fill="#0B3658"/>
<path d="M154.818 240.83C158.561 240.83 161.596 238.668 161.596 236.001C161.596 233.334 158.561 231.172 154.818 231.172C151.075 231.172 148.041 233.334 148.041 236.001C148.041 238.668 151.075 240.83 154.818 240.83Z" fill="#376285"/>
<path d="M157.604 237.723H152.031C151.356 237.723 150.809 238.298 150.809 239.008V242.01C150.809 242.719 151.356 243.294 152.031 243.294H157.604C158.279 243.294 158.826 242.719 158.826 242.01V239.008C158.826 238.298 158.279 237.723 157.604 237.723Z" fill="#376285"/>
<path d="M154.139 235.256C154.139 236.439 153.393 238.582 152.474 238.582C151.555 238.582 150.816 237.611 150.504 236.473C150.061 234.868 151.015 234.209 151.896 233.939C152.95 233.618 154.139 234.072 154.139 235.256Z" fill="#0B3658"/>
<path d="M155.283 235.256C155.283 236.439 156.029 238.582 156.948 238.582C157.867 238.582 158.607 237.611 158.919 236.473C159.362 234.868 158.41 234.209 157.526 233.939C156.472 233.618 155.283 234.072 155.283 235.256Z" fill="#0B3658"/>
<path d="M154.818 238.009C155.564 238.009 155.803 240.616 155.462 240.723C155.121 240.83 154.411 240.937 154.134 240.723C153.857 240.509 154.273 238.009 154.818 238.009Z" fill="#0B3658"/>
<path d="M175.31 165.71C184.06 165.71 191.154 160.656 191.154 154.421C191.154 148.186 184.06 143.132 175.31 143.132C166.559 143.132 159.466 148.186 159.466 154.421C159.466 160.656 166.559 165.71 175.31 165.71Z" fill="#376285"/>
<path d="M181.821 158.447H168.796C167.217 158.447 165.938 159.792 165.938 161.452V168.466C165.938 170.125 167.217 171.47 168.796 171.47H181.821C183.4 171.47 184.68 170.125 184.68 168.466V161.452C184.68 159.792 183.4 158.447 181.821 158.447Z" fill="#376285"/>
<path d="M173.72 152.676C173.72 155.443 171.978 160.451 169.83 160.451C167.683 160.451 165.953 158.184 165.223 155.526C164.191 151.768 166.416 150.227 168.48 149.599C170.942 148.847 173.72 149.908 173.72 152.676Z" fill="#0B3658"/>
<path d="M176.399 152.676C176.399 155.443 178.14 160.451 180.29 160.451C182.439 160.451 184.166 158.184 184.897 155.526C185.929 151.768 183.704 150.227 181.64 149.599C179.178 148.847 176.399 149.908 176.399 152.676Z" fill="#0B3658"/>
<path d="M175.31 159.115C177.057 159.115 177.613 165.21 176.818 165.459C176.023 165.708 174.356 165.96 173.718 165.459C173.081 164.959 174.039 159.115 175.31 159.115Z" fill="#0B3658"/>
<path d="M190.373 274.498H170.743C170.586 274.498 170.435 274.432 170.325 274.316C170.214 274.199 170.151 274.041 170.151 273.876C170.151 273.711 170.214 273.553 170.325 273.437C170.435 273.32 170.586 273.255 170.743 273.255H190.373C190.529 273.255 190.68 273.32 190.791 273.437C190.902 273.553 190.964 273.711 190.964 273.876C190.964 274.041 190.902 274.199 190.791 274.316C190.68 274.432 190.529 274.498 190.373 274.498Z" fill="#3973CF"/>
<path d="M190.373 277.174H170.743C170.586 277.174 170.435 277.108 170.325 276.992C170.214 276.875 170.151 276.717 170.151 276.552C170.151 276.388 170.214 276.23 170.325 276.113C170.435 275.997 170.586 275.931 170.743 275.931H190.373C190.529 275.931 190.68 275.997 190.791 276.113C190.902 276.23 190.964 276.388 190.964 276.552C190.964 276.717 190.902 276.875 190.791 276.992C190.68 277.108 190.529 277.174 190.373 277.174Z" fill="#3973CF"/>
<path d="M175.403 168.445C171.808 168.448 168.294 167.33 165.304 165.232C162.314 163.135 159.983 160.153 158.606 156.663C157.229 153.172 156.869 149.332 157.569 145.626C158.27 141.92 160 138.516 162.542 135.844C165.084 133.173 168.323 131.354 171.848 130.617C175.374 129.881 179.028 130.26 182.349 131.707C185.669 133.154 188.507 135.604 190.502 138.747C192.497 141.89 193.561 145.584 193.558 149.362C193.55 154.42 191.634 159.269 188.231 162.845C184.828 166.422 180.215 168.436 175.403 168.445ZM175.403 133.046C172.334 133.043 169.334 133.997 166.781 135.787C164.229 137.577 162.238 140.122 161.062 143.101C159.886 146.08 159.577 149.359 160.174 152.523C160.771 155.686 162.247 158.593 164.416 160.874C166.585 163.156 169.349 164.71 172.358 165.34C175.368 165.971 178.487 165.648 181.323 164.415C184.158 163.181 186.581 161.091 188.286 158.41C189.991 155.728 190.902 152.576 190.902 149.35C190.896 145.031 189.261 140.89 186.356 137.835C183.451 134.78 179.512 133.059 175.403 133.051V133.046Z" fill="#DF9961"/>
<path d="M175.403 157.249C173.917 157.249 172.465 156.786 171.229 155.919C169.994 155.052 169.031 153.818 168.462 152.376C167.894 150.933 167.745 149.345 168.035 147.814C168.325 146.282 169.041 144.875 170.092 143.771C171.143 142.667 172.482 141.916 173.939 141.612C175.396 141.308 176.907 141.465 178.279 142.064C179.651 142.662 180.824 143.675 181.648 144.974C182.473 146.273 182.912 147.8 182.911 149.362C182.905 151.452 182.111 153.455 180.705 154.933C179.298 156.411 177.392 157.243 175.403 157.249ZM175.403 144.254C174.443 144.253 173.505 144.552 172.707 145.112C171.909 145.672 171.286 146.468 170.918 147.399C170.55 148.331 170.454 149.357 170.64 150.346C170.827 151.336 171.288 152.245 171.966 152.959C172.644 153.673 173.508 154.159 174.449 154.357C175.39 154.555 176.366 154.455 177.253 154.07C178.14 153.685 178.899 153.032 179.433 152.194C179.967 151.356 180.253 150.371 180.254 149.362C180.255 148.008 179.744 146.71 178.835 145.752C177.925 144.795 176.691 144.255 175.403 144.254Z" fill="#DF9961"/>
<path d="M196.971 150.758H153.659C153.306 150.758 152.968 150.611 152.719 150.349C152.47 150.087 152.33 149.732 152.33 149.362C152.33 148.991 152.47 148.636 152.719 148.374C152.968 148.112 153.306 147.965 153.659 147.965H196.971C197.323 147.965 197.661 148.112 197.91 148.374C198.159 148.636 198.299 148.991 198.299 149.362C198.299 149.732 198.159 150.087 197.91 150.349C197.661 150.611 197.323 150.758 196.971 150.758Z" fill="#DF9961"/>
<path d="M175.403 172.196C175.05 172.196 174.712 172.049 174.463 171.787C174.214 171.525 174.074 171.17 174.074 170.8V127.486C174.074 127.116 174.214 126.761 174.463 126.499C174.712 126.237 175.05 126.09 175.403 126.09C175.755 126.09 176.093 126.237 176.342 126.499C176.591 126.761 176.731 127.116 176.731 127.486V170.8C176.731 171.17 176.591 171.525 176.342 171.787C176.093 172.049 175.755 172.196 175.403 172.196Z" fill="#DF9961"/>
<path d="M145.823 218.712C142.65 218.712 139.548 217.723 136.909 215.87C134.271 214.017 132.215 211.384 131.001 208.302C129.786 205.221 129.469 201.83 130.088 198.559C130.707 195.288 132.235 192.284 134.478 189.925C136.722 187.567 139.581 185.961 142.693 185.31C145.805 184.66 149.031 184.994 151.962 186.27C154.894 187.546 157.399 189.708 159.162 192.481C160.925 195.254 161.866 198.514 161.866 201.849C161.861 206.32 160.169 210.606 157.162 213.768C154.154 216.929 150.076 218.707 145.823 218.712ZM145.823 187.779C143.175 187.779 140.587 188.604 138.386 190.15C136.184 191.696 134.468 193.894 133.455 196.465C132.442 199.036 132.177 201.865 132.693 204.594C133.21 207.324 134.485 209.831 136.357 211.798C138.229 213.766 140.614 215.106 143.211 215.649C145.808 216.192 148.499 215.913 150.945 214.848C153.391 213.783 155.482 211.98 156.953 209.666C158.424 207.352 159.209 204.632 159.209 201.849C159.203 198.12 157.791 194.546 155.281 191.909C152.772 189.273 149.371 187.79 145.823 187.786V187.779Z" fill="#DF9961"/>
<path d="M145.823 208.938C144.491 208.938 143.19 208.523 142.083 207.746C140.976 206.968 140.114 205.863 139.604 204.571C139.095 203.278 138.961 201.855 139.221 200.483C139.481 199.111 140.122 197.85 141.063 196.861C142.005 195.871 143.204 195.197 144.51 194.925C145.815 194.652 147.169 194.792 148.398 195.327C149.628 195.863 150.68 196.769 151.419 197.933C152.159 199.096 152.554 200.464 152.554 201.863C152.552 203.739 151.842 205.537 150.58 206.864C149.318 208.19 147.607 208.936 145.823 208.938ZM145.823 197.584C145.016 197.583 144.228 197.834 143.558 198.305C142.887 198.775 142.365 199.445 142.056 200.227C141.748 201.01 141.668 201.872 141.825 202.703C141.983 203.534 142.372 204.297 142.942 204.896C143.513 205.495 144.239 205.902 145.03 206.066C145.821 206.231 146.641 206.145 147.385 205.819C148.13 205.494 148.765 204.943 149.212 204.238C149.659 203.533 149.896 202.704 149.894 201.856C149.893 200.722 149.464 199.634 148.701 198.831C147.937 198.029 146.902 197.578 145.823 197.577V197.584Z" fill="#DF9961"/>
<path d="M164.671 203.253H126.81C126.458 203.253 126.12 203.106 125.871 202.844C125.621 202.582 125.481 202.227 125.481 201.856C125.481 201.486 125.621 201.131 125.871 200.869C126.12 200.607 126.458 200.46 126.81 200.46H164.671C165.023 200.46 165.361 200.607 165.61 200.869C165.859 201.131 165.999 201.486 165.999 201.856C165.999 202.227 165.859 202.582 165.61 202.844C165.361 203.106 165.023 203.253 164.671 203.253Z" fill="#DF9961"/>
<path d="M145.823 221.993C145.47 221.993 145.132 221.846 144.883 221.584C144.634 221.323 144.494 220.967 144.494 220.597V182.752C144.494 182.382 144.634 182.027 144.883 181.765C145.132 181.503 145.47 181.356 145.823 181.356C146.175 181.356 146.513 181.503 146.762 181.765C147.011 182.027 147.151 182.382 147.151 182.752V220.597C147.151 220.967 147.011 221.323 146.762 221.584C146.513 221.846 146.175 221.993 145.823 221.993Z" fill="#DF9961"/>
<path d="M396.901 283.508H315.827C314.944 283.508 314.229 284.261 314.229 285.189V321.858C314.229 322.786 314.944 323.538 315.827 323.538H396.901C397.784 323.538 398.499 322.786 398.499 321.858V285.189C398.499 284.261 397.784 283.508 396.901 283.508Z" fill="#6791B2"/>
<path d="M394.907 294.025H317.825C317.112 294.025 316.534 294.632 316.534 295.382V320.301C316.534 321.051 317.112 321.658 317.825 321.658H394.907C395.619 321.658 396.197 321.051 396.197 320.301V295.382C396.197 294.632 395.619 294.025 394.907 294.025Z" fill="#E8F0F6"/>
<path d="M320.289 286.455H318.418C318.023 286.455 317.703 286.791 317.703 287.206V288.826C317.703 289.241 318.023 289.578 318.418 289.578H320.289C320.684 289.578 321.004 289.241 321.004 288.826V287.206C321.004 286.791 320.684 286.455 320.289 286.455Z" fill="#E8F0F6"/>
<path d="M326.291 286.455H324.42C324.025 286.455 323.705 286.791 323.705 287.206V288.826C323.705 289.241 324.025 289.578 324.42 289.578H326.291C326.686 289.578 327.006 289.241 327.006 288.826V287.206C327.006 286.791 326.686 286.455 326.291 286.455Z" fill="#E8F0F6"/>
<path d="M332.294 286.455H330.423C330.028 286.455 329.708 286.791 329.708 287.206V288.826C329.708 289.241 330.028 289.578 330.423 289.578H332.294C332.689 289.578 333.009 289.241 333.009 288.826V287.206C333.009 286.791 332.689 286.455 332.294 286.455Z" fill="#E8F0F6"/>
<path d="M392.953 300.081H350.816C350.482 300.081 350.162 299.941 349.926 299.693C349.689 299.444 349.557 299.108 349.557 298.756C349.557 298.405 349.689 298.068 349.926 297.82C350.162 297.572 350.482 297.432 350.816 297.432H392.953C393.287 297.432 393.608 297.572 393.844 297.82C394.08 298.068 394.213 298.405 394.213 298.756C394.213 299.108 394.08 299.444 393.844 299.693C393.608 299.941 393.287 300.081 392.953 300.081Z" fill="#6791B2"/>
<path d="M361.261 320.522H319.124C318.954 320.53 318.785 320.501 318.626 320.438C318.466 320.375 318.321 320.278 318.198 320.155C318.075 320.031 317.978 319.882 317.911 319.718C317.844 319.553 317.81 319.376 317.81 319.197C317.81 319.018 317.844 318.841 317.911 318.677C317.978 318.512 318.075 318.363 318.198 318.24C318.321 318.116 318.466 318.019 318.626 317.956C318.785 317.893 318.954 317.864 319.124 317.872H361.261C361.586 317.886 361.894 318.032 362.119 318.279C362.344 318.526 362.47 318.855 362.47 319.197C362.47 319.539 362.344 319.868 362.119 320.115C361.894 320.362 361.586 320.508 361.261 320.522Z" fill="#6791B2"/>
<path d="M369.024 317.872H364.664C364.426 317.872 364.232 318.075 364.232 318.325V320.069C364.232 320.319 364.426 320.522 364.664 320.522H369.024C369.262 320.522 369.455 320.319 369.455 320.069V318.325C369.455 318.075 369.262 317.872 369.024 317.872Z" fill="#6791B2"/>
<path d="M375.597 317.872H371.237C370.999 317.872 370.806 318.075 370.806 318.325V320.069C370.806 320.319 370.999 320.522 371.237 320.522H375.597C375.835 320.522 376.029 320.319 376.029 320.069V318.325C376.029 318.075 375.835 317.872 375.597 317.872Z" fill="#6791B2"/>
<path d="M393.358 305.854H323.581C323.465 305.861 323.349 305.842 323.24 305.799C323.131 305.757 323.031 305.692 322.947 305.608C322.863 305.524 322.796 305.422 322.75 305.31C322.704 305.198 322.681 305.077 322.681 304.955C322.681 304.833 322.704 304.712 322.75 304.6C322.796 304.487 322.863 304.386 322.947 304.302C323.031 304.218 323.131 304.153 323.24 304.11C323.349 304.068 323.465 304.049 323.581 304.055H393.358C393.474 304.049 393.59 304.068 393.699 304.11C393.808 304.153 393.908 304.218 393.992 304.302C394.076 304.386 394.143 304.487 394.189 304.6C394.235 304.712 394.259 304.833 394.259 304.955C394.259 305.077 394.235 305.198 394.189 305.31C394.143 305.422 394.076 305.524 393.992 305.608C393.908 305.692 393.808 305.757 393.699 305.799C393.59 305.842 393.474 305.861 393.358 305.854Z" fill="#6791B2"/>
<path d="M393.359 309.734H323.581C323.355 309.734 323.137 309.639 322.977 309.47C322.817 309.302 322.727 309.074 322.727 308.835C322.727 308.597 322.817 308.369 322.977 308.2C323.137 308.032 323.355 307.937 323.581 307.937H393.359C393.585 307.937 393.803 308.032 393.963 308.2C394.123 308.369 394.213 308.597 394.213 308.835C394.213 309.074 394.123 309.302 393.963 309.47C393.803 309.639 393.585 309.734 393.359 309.734Z" fill="#6791B2"/>
<path d="M352.143 238.914H346.081C344.825 238.913 343.62 238.388 342.731 237.455C341.843 236.521 341.343 235.255 341.341 233.934V227.555C341.343 226.235 341.843 224.969 342.731 224.035C343.62 223.101 344.825 222.576 346.081 222.575H352.143C353.4 222.576 354.604 223.102 355.493 224.035C356.381 224.969 356.881 226.235 356.882 227.555V233.93C356.882 235.251 356.383 236.518 355.494 237.453C354.606 238.387 353.401 238.913 352.143 238.914ZM346.081 225.372C345.529 225.373 345 225.604 344.609 226.014C344.219 226.424 343.999 226.98 343.998 227.56V233.934C343.999 234.514 344.219 235.07 344.609 235.481C345 235.891 345.529 236.121 346.081 236.122H352.143C352.695 236.121 353.224 235.891 353.615 235.48C354.005 235.07 354.224 234.514 354.225 233.934V227.555C354.224 226.975 354.005 226.419 353.615 226.009C353.224 225.599 352.695 225.368 352.143 225.368L346.081 225.372Z" fill="#376285"/>
<g opacity="0.8">
<path opacity="0.8" d="M352.143 266.234H346.081C344.765 266.232 343.504 265.682 342.574 264.705C341.643 263.727 341.12 262.401 341.119 261.018V254.646C341.121 253.264 341.644 251.938 342.574 250.961C343.504 249.983 344.765 249.433 346.081 249.431H352.143C353.458 249.434 354.719 249.984 355.648 250.962C356.578 251.939 357.101 253.264 357.103 254.646V261.018C357.102 262.401 356.579 263.726 355.649 264.704C354.719 265.682 353.458 266.232 352.143 266.234ZM346.081 252.689C345.587 252.69 345.114 252.896 344.765 253.263C344.416 253.63 344.219 254.128 344.219 254.646V261.018C344.219 261.537 344.416 262.035 344.765 262.402C345.114 262.768 345.587 262.975 346.081 262.975H352.143C352.637 262.975 353.11 262.768 353.458 262.401C353.807 262.034 354.003 261.537 354.003 261.018V254.646C354.003 254.128 353.807 253.63 353.458 253.263C353.11 252.896 352.637 252.69 352.143 252.689H346.081Z" fill="#376285"/>
</g>
<path d="M349.491 235.331H349.427C349.234 235.321 349.046 235.267 348.875 235.173C348.704 235.079 348.554 234.947 348.437 234.786L344.071 228.808C343.856 228.514 343.762 228.142 343.808 227.775C343.855 227.408 344.038 227.075 344.318 226.849C344.598 226.624 344.951 226.525 345.3 226.574C345.65 226.622 345.967 226.815 346.181 227.109L349.584 231.763L359.127 221.04C359.244 220.898 359.387 220.783 359.547 220.701C359.707 220.619 359.882 220.571 360.06 220.561C360.238 220.552 360.416 220.58 360.584 220.644C360.751 220.708 360.905 220.807 361.035 220.935C361.166 221.063 361.27 221.217 361.343 221.388C361.415 221.559 361.454 221.744 361.457 221.932C361.46 222.119 361.428 222.305 361.361 222.479C361.294 222.653 361.195 222.811 361.068 222.943L350.458 234.893C350.334 235.032 350.184 235.142 350.018 235.217C349.851 235.293 349.672 235.331 349.491 235.331Z" fill="#DF9961"/>
<path d="M349.491 262.415H349.427C349.234 262.405 349.045 262.351 348.874 262.256C348.704 262.162 348.554 262.029 348.437 261.868L344.071 255.894C343.856 255.6 343.762 255.228 343.808 254.861C343.855 254.494 344.038 254.161 344.318 253.936C344.598 253.71 344.951 253.611 345.3 253.66C345.65 253.708 345.967 253.901 346.181 254.195L349.584 258.85L359.127 248.117C359.368 247.85 359.7 247.694 360.05 247.683C360.4 247.672 360.74 247.807 360.996 248.058C361.252 248.309 361.404 248.657 361.417 249.025C361.431 249.393 361.305 249.751 361.068 250.023L350.458 261.973C350.334 262.112 350.185 262.223 350.018 262.299C349.852 262.375 349.672 262.414 349.491 262.415Z" fill="#DF9961"/>
<path d="M367.03 229.262H412.827C413.211 229.262 413.58 229.101 413.852 228.815C414.124 228.529 414.277 228.141 414.277 227.737C414.277 227.333 414.124 226.945 413.852 226.659C413.58 226.373 413.211 226.213 412.827 226.213H367.03C366.646 226.213 366.277 226.373 366.005 226.659C365.733 226.945 365.58 227.333 365.58 227.737C365.58 228.141 365.733 228.529 366.005 228.815C366.277 229.101 366.646 229.262 367.03 229.262Z" fill="#376285"/>
<path d="M367.03 235.235H401.092C401.477 235.235 401.845 235.075 402.117 234.789C402.389 234.503 402.542 234.115 402.542 233.711C402.542 233.307 402.389 232.919 402.117 232.633C401.845 232.347 401.477 232.187 401.092 232.187H367.03C366.646 232.187 366.277 232.347 366.005 232.633C365.733 232.919 365.58 233.307 365.58 233.711C365.58 234.115 365.733 234.503 366.005 234.789C366.277 235.075 366.646 235.235 367.03 235.235Z" fill="#376285"/>
<path d="M367.03 256.376H412.827C413.211 256.376 413.58 256.215 413.852 255.929C414.124 255.643 414.277 255.256 414.277 254.851C414.277 254.447 414.124 254.059 413.852 253.774C413.58 253.488 413.211 253.327 412.827 253.327H367.03C366.646 253.327 366.277 253.488 366.005 253.774C365.733 254.059 365.58 254.447 365.58 254.851C365.58 255.256 365.733 255.643 366.005 255.929C366.277 256.215 366.646 256.376 367.03 256.376Z" fill="#376285"/>
<path d="M367.03 262.343H407.154C407.539 262.343 407.908 262.182 408.18 261.896C408.452 261.61 408.604 261.223 408.604 260.818C408.604 260.414 408.452 260.026 408.18 259.74C407.908 259.455 407.539 259.294 407.154 259.294H367.03C366.646 259.294 366.277 259.455 366.005 259.74C365.733 260.026 365.58 260.414 365.58 260.818C365.58 261.223 365.733 261.61 366.005 261.896C366.277 262.182 366.646 262.343 367.03 262.343Z" fill="#376285"/>
<path d="M271.437 288.016H221.532C221.063 288.016 220.684 288.415 220.684 288.907V318.139C220.684 318.632 221.063 319.031 221.532 319.031H271.437C271.906 319.031 272.285 318.632 272.285 318.139V288.907C272.285 288.415 271.906 288.016 271.437 288.016Z" fill="#6791B2"/>
<path d="M270.363 289.382H222.605C222.168 289.382 221.814 289.754 221.814 290.213V316.834C221.814 317.293 222.168 317.665 222.605 317.665H270.363C270.799 317.665 271.153 317.293 271.153 316.834V290.213C271.153 289.754 270.799 289.382 270.363 289.382Z" fill="#E8F0F6"/>
<path d="M268.9 291.114H224.069C223.577 291.114 223.179 291.533 223.179 292.049V314.993C223.179 315.51 223.577 315.929 224.069 315.929H268.9C269.391 315.929 269.79 315.51 269.79 314.993V292.049C269.79 291.533 269.391 291.114 268.9 291.114Z" fill="#6791B2"/>
<path d="M246.484 312.133C251.009 312.133 254.676 308.278 254.676 303.522C254.676 298.767 251.009 294.912 246.484 294.912C241.96 294.912 238.292 298.767 238.292 303.522C238.292 308.278 241.96 312.133 246.484 312.133Z" fill="#E8F0F6"/>
<path d="M246.484 310.937C250.38 310.937 253.538 307.617 253.538 303.522C253.538 299.427 250.38 296.108 246.484 296.108C242.588 296.108 239.43 299.427 239.43 303.522C239.43 307.617 242.588 310.937 246.484 310.937Z" fill="#6791B2"/>
<path d="M249.96 303.127L247.383 304.691L244.804 306.254V303.127V299.997L247.383 301.56L249.96 303.127Z" fill="#E8F0F6"/>
<g style="mix-blend-mode:multiply" opacity="0.5">
<path d="M259.233 298.368H220.684V318.149C220.684 318.385 220.773 318.611 220.931 318.778C221.09 318.944 221.305 319.038 221.529 319.038H260.079V299.257C260.079 299.14 260.057 299.024 260.015 298.916C259.972 298.809 259.91 298.711 259.831 298.628C259.753 298.546 259.659 298.48 259.557 298.435C259.454 298.391 259.344 298.368 259.233 298.368Z" fill="#99A8C2"/>
</g>
<path d="M254.734 300.013H204.828C204.36 300.013 203.98 300.412 203.98 300.904V330.136C203.98 330.628 204.36 331.027 204.828 331.027H254.734C255.203 331.027 255.582 330.628 255.582 330.136V300.904C255.582 300.412 255.203 300.013 254.734 300.013Z" fill="#6791B2"/>
<path d="M253.66 301.379H205.902C205.465 301.379 205.111 301.751 205.111 302.21V328.83C205.111 329.289 205.465 329.661 205.902 329.661H253.66C254.096 329.661 254.45 329.289 254.45 328.83V302.21C254.45 301.751 254.096 301.379 253.66 301.379Z" fill="#E8F0F6"/>
<path d="M252.197 303.11H207.366C206.874 303.11 206.476 303.529 206.476 304.046V326.99C206.476 327.506 206.874 327.925 207.366 327.925H252.197C252.688 327.925 253.087 327.506 253.087 326.99V304.046C253.087 303.529 252.688 303.11 252.197 303.11Z" fill="#6791B2"/>
<path d="M229.781 324.129C234.305 324.129 237.973 320.274 237.973 315.519C237.973 310.763 234.305 306.908 229.781 306.908C225.257 306.908 221.589 310.763 221.589 315.519C221.589 320.274 225.257 324.129 229.781 324.129Z" fill="#E8F0F6"/>
<path d="M236.835 315.524C236.835 316.99 236.421 318.424 235.646 319.643C234.871 320.862 233.769 321.813 232.48 322.374C231.191 322.935 229.773 323.082 228.405 322.796C227.036 322.51 225.779 321.804 224.793 320.767C223.806 319.73 223.134 318.409 222.862 316.97C222.59 315.532 222.73 314.041 223.264 312.686C223.797 311.332 224.702 310.174 225.862 309.359C227.022 308.544 228.386 308.109 229.781 308.109C231.651 308.11 233.445 308.891 234.768 310.282C236.091 311.672 236.834 313.558 236.835 315.524Z" fill="#6791B2"/>
<path d="M233.257 315.123L230.68 316.687L228.101 318.253V315.123V311.993L230.68 313.557L233.257 315.123Z" fill="#E8F0F6"/>
<path d="M383.501 116.718C385.423 116.718 386.982 114.893 386.982 112.641C386.982 110.389 385.423 108.563 383.501 108.563C381.579 108.563 380.021 110.389 380.021 112.641C380.021 114.893 381.579 116.718 383.501 116.718Z" fill="#E8F0F6"/>
<g style="mix-blend-mode:multiply" opacity="0.5">
<path d="M188.935 337.727V327.071C188.933 326.36 188.663 325.679 188.185 325.176C187.707 324.674 187.059 324.39 186.383 324.388H110.344V340.41H186.383C187.059 340.408 187.707 340.125 188.185 339.622C188.663 339.119 188.933 338.438 188.935 337.727Z" fill="#99A8C2"/>
</g>
<g style="mix-blend-mode:multiply" opacity="0.5">
<path d="M186.383 300.581H110.344V316.606H186.383C187.059 316.603 187.708 316.319 188.186 315.816C188.664 315.313 188.934 314.631 188.935 313.92V303.264C188.933 302.553 188.663 301.872 188.185 301.369C187.707 300.867 187.059 300.583 186.383 300.581Z" fill="#99A8C2"/>
</g>
<path d="M182.129 296.108H104.942C103.532 296.108 102.389 297.309 102.389 298.791V309.447C102.389 310.929 103.532 312.131 104.942 312.131H182.129C183.539 312.131 184.682 310.929 184.682 309.447V298.791C184.682 297.309 183.539 296.108 182.129 296.108Z" fill="#376285"/>
<path d="M178.699 298.368H108.366C107.23 298.368 106.31 299.336 106.31 300.53V307.711C106.31 308.905 107.23 309.873 108.366 309.873H178.699C179.835 309.873 180.756 308.905 180.756 307.711V300.53C180.756 299.336 179.835 298.368 178.699 298.368Z" fill="#E8F0F6"/>
<path d="M182.129 319.915H104.942C103.532 319.915 102.389 321.116 102.389 322.598V333.255C102.389 334.736 103.532 335.938 104.942 335.938H182.129C183.539 335.938 184.682 334.736 184.682 333.255V322.598C184.682 321.116 183.539 319.915 182.129 319.915Z" fill="#376285"/>
<path d="M178.699 322.172H108.366C107.23 322.172 106.31 323.14 106.31 324.334V331.516C106.31 332.71 107.23 333.678 108.366 333.678H178.699C179.835 333.678 180.756 332.71 180.756 331.516V324.334C180.756 323.14 179.835 322.172 178.699 322.172Z" fill="#E8F0F6"/>
<path d="M115.366 304.121C115.366 304.489 115.262 304.849 115.067 305.155C114.873 305.461 114.596 305.7 114.272 305.841C113.949 305.982 113.593 306.018 113.249 305.947C112.905 305.875 112.59 305.697 112.342 305.437C112.094 305.177 111.926 304.845 111.857 304.484C111.789 304.123 111.824 303.748 111.958 303.408C112.092 303.068 112.319 302.777 112.61 302.573C112.902 302.368 113.244 302.259 113.595 302.259C114.064 302.259 114.515 302.455 114.847 302.804C115.179 303.153 115.366 303.627 115.366 304.121ZM121.787 302.259C121.436 302.259 121.094 302.368 120.803 302.573C120.511 302.777 120.284 303.068 120.15 303.408C120.016 303.748 119.981 304.123 120.049 304.484C120.118 304.845 120.286 305.177 120.534 305.437C120.782 305.697 121.098 305.875 121.441 305.947C121.785 306.018 122.141 305.982 122.465 305.841C122.788 305.7 123.065 305.461 123.259 305.155C123.454 304.849 123.558 304.489 123.558 304.121C123.558 303.628 123.373 303.156 123.042 302.807C122.712 302.458 122.264 302.261 121.796 302.259H121.787ZM129.979 302.259C129.629 302.259 129.286 302.368 128.995 302.573C128.703 302.777 128.476 303.068 128.342 303.408C128.208 303.748 128.173 304.123 128.242 304.484C128.31 304.845 128.479 305.177 128.726 305.437C128.974 305.697 129.29 305.875 129.633 305.947C129.977 306.018 130.333 305.982 130.657 305.841C130.98 305.7 131.257 305.461 131.452 305.155C131.646 304.849 131.75 304.489 131.75 304.121C131.75 303.628 131.565 303.156 131.234 302.807C130.904 302.458 130.456 302.261 129.988 302.259H129.979ZM138.171 302.259C137.821 302.259 137.478 302.368 137.187 302.573C136.896 302.777 136.669 303.068 136.535 303.408C136.4 303.748 136.365 304.123 136.434 304.484C136.502 304.845 136.671 305.177 136.919 305.437C137.166 305.697 137.482 305.875 137.825 305.947C138.169 306.018 138.525 305.982 138.849 305.841C139.172 305.7 139.449 305.461 139.644 305.155C139.838 304.849 139.942 304.489 139.942 304.121C139.942 303.628 139.757 303.156 139.426 302.807C139.095 302.458 138.646 302.261 138.178 302.259H138.171ZM146.363 302.259C146.013 302.259 145.67 302.368 145.379 302.573C145.088 302.777 144.861 303.068 144.727 303.408C144.593 303.748 144.558 304.123 144.626 304.484C144.694 304.845 144.863 305.177 145.111 305.437C145.358 305.697 145.674 305.875 146.018 305.947C146.361 306.018 146.717 305.982 147.041 305.841C147.365 305.7 147.641 305.461 147.836 305.155C148.031 304.849 148.134 304.489 148.134 304.121C148.134 303.628 147.949 303.156 147.618 302.807C147.287 302.458 146.838 302.261 146.37 302.259H146.363ZM154.555 302.259C154.205 302.259 153.863 302.368 153.571 302.573C153.28 302.777 153.053 303.068 152.919 303.408C152.785 303.748 152.75 304.123 152.818 304.484C152.886 304.845 153.055 305.177 153.303 305.437C153.551 305.697 153.866 305.875 154.21 305.947C154.553 306.018 154.909 305.982 155.233 305.841C155.557 305.7 155.833 305.461 156.028 305.155C156.223 304.849 156.327 304.489 156.327 304.121C156.327 303.628 156.141 303.156 155.81 302.807C155.479 302.458 155.031 302.261 154.562 302.259H154.555Z" fill="#376285"/>
<path d="M115.366 327.769C115.366 328.138 115.262 328.498 115.067 328.804C114.873 329.11 114.596 329.349 114.272 329.49C113.949 329.63 113.593 329.667 113.249 329.595C112.905 329.524 112.59 329.346 112.342 329.086C112.094 328.826 111.926 328.494 111.857 328.133C111.789 327.772 111.824 327.397 111.958 327.057C112.092 326.717 112.319 326.426 112.61 326.221C112.902 326.017 113.244 325.908 113.595 325.908C114.064 325.908 114.515 326.104 114.847 326.453C115.179 326.802 115.366 327.276 115.366 327.769ZM121.787 325.908C121.436 325.908 121.094 326.017 120.803 326.221C120.511 326.426 120.284 326.717 120.15 327.057C120.016 327.397 119.981 327.772 120.049 328.133C120.118 328.494 120.286 328.826 120.534 329.086C120.782 329.346 121.098 329.524 121.441 329.595C121.785 329.667 122.141 329.63 122.465 329.49C122.788 329.349 123.065 329.11 123.259 328.804C123.454 328.498 123.558 328.138 123.558 327.769C123.556 327.279 123.369 326.809 123.039 326.462C122.709 326.115 122.262 325.919 121.796 325.917L121.787 325.908ZM129.979 325.908C129.629 325.908 129.286 326.017 128.995 326.221C128.703 326.426 128.476 326.717 128.342 327.057C128.208 327.397 128.173 327.772 128.242 328.133C128.31 328.494 128.479 328.826 128.726 329.086C128.974 329.346 129.29 329.524 129.633 329.595C129.977 329.667 130.333 329.63 130.657 329.49C130.98 329.349 131.257 329.11 131.452 328.804C131.646 328.498 131.75 328.138 131.75 327.769C131.748 327.279 131.561 326.809 131.231 326.462C130.901 326.115 130.454 325.919 129.988 325.917L129.979 325.908ZM138.171 325.908C137.821 325.908 137.478 326.017 137.187 326.221C136.896 326.426 136.669 326.717 136.535 327.057C136.4 327.397 136.365 327.772 136.434 328.133C136.502 328.494 136.671 328.826 136.919 329.086C137.166 329.346 137.482 329.524 137.825 329.595C138.169 329.667 138.525 329.63 138.849 329.49C139.172 329.349 139.449 329.11 139.644 328.804C139.838 328.498 139.942 328.138 139.942 327.769C139.94 327.279 139.753 326.808 139.423 326.461C139.092 326.115 138.645 325.919 138.178 325.917L138.171 325.908ZM146.363 325.908C146.013 325.908 145.67 326.017 145.379 326.221C145.088 326.426 144.861 326.717 144.727 327.057C144.593 327.397 144.558 327.772 144.626 328.133C144.694 328.494 144.863 328.826 145.111 329.086C145.358 329.346 145.674 329.524 146.018 329.595C146.361 329.667 146.717 329.63 147.041 329.49C147.365 329.349 147.641 329.11 147.836 328.804C148.031 328.498 148.134 328.138 148.134 327.769C148.132 327.279 147.945 326.808 147.615 326.461C147.284 326.115 146.837 325.919 146.37 325.917L146.363 325.908ZM154.555 325.908C154.205 325.908 153.863 326.017 153.571 326.221C153.28 326.426 153.053 326.717 152.919 327.057C152.785 327.397 152.75 327.772 152.818 328.133C152.886 328.494 153.055 328.826 153.303 329.086C153.551 329.346 153.866 329.524 154.21 329.595C154.553 329.667 154.909 329.63 155.233 329.49C155.557 329.349 155.833 329.11 156.028 328.804C156.223 328.498 156.327 328.138 156.327 327.769C156.324 327.279 156.138 326.808 155.807 326.461C155.477 326.115 155.029 325.919 154.562 325.917L154.555 325.908Z" fill="#376285"/>
<path d="M171.322 307.05C168.063 307.05 165.484 304.551 165.375 304.444C165.309 304.378 165.256 304.3 165.22 304.212C165.184 304.124 165.165 304.03 165.165 303.934C165.165 303.839 165.184 303.744 165.22 303.656C165.256 303.569 165.309 303.49 165.375 303.424C165.484 303.317 168.063 300.82 171.322 300.82C174.582 300.82 177.163 303.317 177.272 303.424C177.338 303.49 177.391 303.569 177.427 303.656C177.463 303.744 177.482 303.839 177.482 303.934C177.482 304.03 177.463 304.124 177.427 304.212C177.391 304.3 177.338 304.378 177.272 304.444C177.163 304.551 174.582 307.05 171.322 307.05ZM166.894 303.934C167.753 304.59 169.436 305.654 171.322 305.654C173.209 305.654 174.894 304.593 175.751 303.934C174.889 303.278 173.209 302.217 171.322 302.217C169.436 302.217 167.747 303.276 166.89 303.934H166.894Z" fill="#376285"/>
<path d="M171.322 306.755C170.791 306.755 170.273 306.589 169.831 306.28C169.39 305.97 169.046 305.529 168.843 305.014C168.64 304.498 168.587 303.931 168.69 303.384C168.794 302.837 169.049 302.334 169.425 301.94C169.8 301.545 170.278 301.277 170.799 301.168C171.319 301.059 171.859 301.115 172.349 301.328C172.839 301.542 173.259 301.903 173.553 302.367C173.848 302.831 174.006 303.376 174.006 303.934C174.005 304.682 173.722 305.399 173.219 305.928C172.716 306.457 172.034 306.754 171.322 306.755ZM171.322 302.512C171.054 302.512 170.792 302.596 170.569 302.753C170.346 302.909 170.173 303.132 170.07 303.392C169.968 303.653 169.941 303.939 169.993 304.215C170.046 304.492 170.175 304.745 170.365 304.945C170.555 305.144 170.796 305.279 171.059 305.334C171.322 305.389 171.595 305.36 171.842 305.252C172.09 305.144 172.301 304.961 172.45 304.726C172.599 304.492 172.678 304.216 172.677 303.934C172.677 303.557 172.534 303.195 172.28 302.929C172.025 302.662 171.681 302.512 171.322 302.512Z" fill="#376285"/>
<path d="M169.343 325.449H166.016C165.073 325.449 164.309 326.253 164.309 327.243V328.747C164.309 329.738 165.073 330.541 166.016 330.541H169.343C170.286 330.541 171.05 329.738 171.05 328.747V327.243C171.05 326.253 170.286 325.449 169.343 325.449Z" fill="#376285"/>
<path d="M176.696 329.547H165.108C164.931 329.547 164.762 329.474 164.638 329.343C164.513 329.212 164.443 329.034 164.443 328.849C164.443 328.664 164.513 328.486 164.638 328.355C164.762 328.224 164.931 328.151 165.108 328.151H176.032V326.331C176.032 326.146 176.102 325.968 176.226 325.837C176.351 325.706 176.52 325.633 176.696 325.633C176.872 325.633 177.041 325.706 177.166 325.837C177.29 325.968 177.36 326.146 177.36 326.331V328.849C177.36 329.034 177.29 329.212 177.166 329.343C177.041 329.474 176.872 329.547 176.696 329.547Z" fill="#376285"/>
<path d="M175.135 329.438C174.959 329.438 174.79 329.364 174.665 329.233C174.541 329.102 174.471 328.925 174.471 328.74V326.668C174.471 326.483 174.541 326.306 174.665 326.175C174.79 326.044 174.959 325.97 175.135 325.97C175.311 325.97 175.48 326.044 175.605 326.175C175.729 326.306 175.799 326.483 175.799 326.668V328.74C175.799 328.925 175.729 329.102 175.605 329.233C175.48 329.364 175.311 329.438 175.135 329.438Z" fill="#376285"/>
<path d="M172.711 329.438C172.535 329.438 172.366 329.365 172.241 329.234C172.117 329.103 172.047 328.925 172.047 328.74V325.929C172.047 325.743 172.117 325.566 172.241 325.435C172.366 325.304 172.535 325.23 172.711 325.23C172.887 325.23 173.056 325.304 173.181 325.435C173.305 325.566 173.375 325.743 173.375 325.929V328.74C173.375 328.925 173.305 329.103 173.181 329.234C173.056 329.365 172.887 329.438 172.711 329.438Z" fill="#376285"/>
<path d="M165.614 328.849C165.483 328.849 165.357 328.795 165.264 328.697C165.171 328.6 165.119 328.468 165.118 328.33V327.523C165.118 327.385 165.17 327.252 165.263 327.154C165.356 327.056 165.483 327.001 165.614 327.001C165.746 327.001 165.872 327.056 165.965 327.154C166.058 327.252 166.11 327.385 166.11 327.523V328.323C166.111 328.392 166.098 328.46 166.074 328.524C166.049 328.588 166.013 328.646 165.966 328.695C165.92 328.744 165.865 328.783 165.805 328.809C165.745 328.836 165.68 328.849 165.614 328.849Z" fill="#E8F0F6"/>
<path d="M104.262 418.167C104.262 418.167 60.7726 386.417 42.3757 404.725C27.6874 419.342 53.7606 436.515 87.1159 431.897C110.596 428.639 113.256 433.368 117.369 433.266C147.97 430.801 189.206 421.178 169.139 406.052C141.802 385.456 123.308 407.29 113.787 412.726L104.262 418.167Z" fill="#0E5D82"/>
<path d="M160.491 405.295C149.06 402.817 105.515 419.789 105.515 419.789C105.515 419.789 67.5964 407.776 58.523 406.631C49.4497 405.486 45.2783 409.11 45.2783 409.11C45.2783 409.11 49.5604 404.041 54.531 403.58C59.5017 403.119 66.6886 401.863 66.6886 401.863C66.6886 401.863 139.262 398.239 148.878 400.529C158.494 402.819 160.491 405.295 160.491 405.295Z" fill="#17466C"/>
<path d="M98.8195 343.51C97.0947 343.796 70.2864 356.077 69.9565 361.236C69.6266 366.396 77.3029 408.155 92.1417 413.598C106.981 419.042 123.582 413.598 123.582 413.598C123.582 413.598 140.998 368.402 135.828 359.822C130.658 351.241 107.253 343.517 107.253 343.517L98.8195 343.51Z" fill="url(#paint6_linear)"/>
<path d="M79.1159 353.241C53.5032 367.669 47.213 393.708 53.9881 399.447C58.7329 403.471 76.6294 412.368 92.1414 411.795C107.653 411.223 122.218 412.759 122.218 412.759C122.218 412.759 148.829 407.066 154.136 398.686C159.443 390.306 144.72 363.08 131.517 355.205C118.314 347.33 79.1159 353.241 79.1159 353.241Z" fill="url(#paint7_linear)"/>
<path d="M103.536 359.815C101.829 359.81 100.193 359.095 98.9864 357.827C97.7795 356.558 97.0994 354.839 97.0947 353.045V330.257C97.0947 328.462 97.7733 326.74 98.9812 325.47C100.189 324.201 101.827 323.487 103.536 323.487C105.244 323.487 106.882 324.201 108.09 325.47C109.298 326.74 109.976 328.462 109.976 330.257V353.045C109.972 354.839 109.292 356.558 108.085 357.827C106.878 359.095 105.242 359.81 103.536 359.815Z" fill="#F09959"/>
<path d="M103.536 323.487C101.829 323.492 100.193 324.207 98.9864 325.476C97.7795 326.744 97.0994 328.463 97.0947 330.257V348.891C100.892 352.226 104.57 350.478 109.976 346.075V330.25C109.97 328.457 109.289 326.74 108.082 325.473C106.876 324.206 105.241 323.492 103.536 323.487Z" fill="#E38540"/>
<path d="M117.672 331.179C116.614 333.45 114.896 334.709 113.833 333.992C112.77 333.276 112.768 330.853 113.833 328.582C114.898 326.31 116.61 325.051 117.672 325.768C118.735 326.485 118.731 328.908 117.672 331.179Z" fill="#F09959"/>
<path d="M92.7505 328.749C93.9749 330.815 94.2096 333.313 93.2752 334.334C92.3409 335.356 90.5918 334.495 89.3674 332.428C88.143 330.362 87.9105 327.865 88.8426 326.843C89.7748 325.821 91.5261 326.694 92.7505 328.749Z" fill="#F09959"/>
<path d="M114.911 331.034C114.911 339.312 109.952 346.026 103.841 346.026C97.7301 346.026 92.7705 339.312 92.7705 331.034C92.7705 322.756 97.7301 316.04 103.841 316.04C109.952 316.04 114.911 322.754 114.911 331.034Z" fill="#F09959"/>
<path d="M127.974 368.139C135.232 372.207 141.556 387.625 141.556 387.625C141.556 387.625 125.227 390.294 121.839 392.963C118.452 395.633 122.324 391.946 124.259 384.585C126.194 377.225 127.974 368.139 127.974 368.139Z" fill="#FB8627"/>
<path d="M77.4538 367.029C79.1476 375.174 87.2512 397.881 87.2512 397.881C87.2512 397.881 79.7454 388.896 71.768 388.388C63.7906 387.881 60.8325 387.751 60.8835 389.785C60.8835 390.187 62.2119 380.76 68.3826 374.912C74.5533 369.063 77.4538 367.029 77.4538 367.029Z" fill="#FB8627"/>
<path d="M126.1 418.253H82.2784C81.4237 418.253 80.5966 417.934 79.944 417.354C79.2915 416.774 78.8556 415.969 78.7137 415.083L73.4309 381.935C73.3447 381.391 73.3723 380.834 73.5118 380.302C73.6512 379.77 73.8992 379.277 74.2385 378.856C74.5777 378.435 75.0001 378.097 75.4762 377.865C75.9524 377.633 76.4708 377.513 76.9956 377.513H131.385C131.909 377.514 132.428 377.634 132.904 377.866C133.38 378.098 133.802 378.436 134.141 378.857C134.48 379.277 134.728 379.771 134.868 380.302C135.007 380.834 135.035 381.391 134.95 381.935L129.664 415.083C129.523 415.97 129.088 416.775 128.435 417.355C127.782 417.936 126.955 418.254 126.1 418.253Z" fill="#0B3658"/>
<path d="M126.1 418.253H82.2782C81.437 418.266 80.6187 417.966 79.9667 417.407C79.3148 416.848 78.8711 416.066 78.7135 415.198L73.4306 383.245C73.0609 381.011 74.7591 378.977 76.9953 378.977H131.385C133.619 378.977 135.319 381.011 134.949 383.245L129.664 415.198C129.507 416.066 129.063 416.849 128.411 417.408C127.759 417.967 126.941 418.266 126.1 418.253Z" fill="url(#paint8_linear)"/>
<path d="M100.299 309.899C93.1032 312.193 95.6073 333.485 103.842 332.784C112.076 332.084 112.401 322.875 111.812 316.913C111.223 310.951 107.714 307.532 100.299 309.899Z" fill="#0B3658"/>
<path d="M97.7039 325.682C95.7112 323.664 92.9503 330.013 94.033 332.801C95.1156 335.589 93.6012 337.222 95.0691 340.215C96.5371 343.208 92.3657 338.307 91.7812 334.714C91.1967 331.12 90.8646 324.893 90.0299 322.086C89.1951 319.28 90.0719 314.406 93.7938 313.406C97.5157 312.405 98.3748 310.613 99.794 310.513C101.213 310.413 107.968 311.127 111.307 313.057C114.646 314.986 116.479 317.879 116.229 322.263C115.979 326.647 114.901 337.869 113.893 339.717C112.886 341.565 112.375 341.113 112.676 340.068C112.977 339.023 114.062 332.703 113.227 330.425C112.392 328.146 112.808 322.533 110.641 322.093C108.473 321.653 108.971 325.542 106.385 325.835C103.799 326.129 97.7039 325.682 97.7039 325.682Z" fill="#0B3658"/>
<path d="M470.352 415.216C470.352 415.216 471.523 428.237 468.543 429.356C465.563 430.475 462.16 433.156 466.415 433.156C470.671 433.156 475.936 434.213 477.313 429.356C478.994 423.429 482.791 422.428 481.438 419.412C480.085 416.396 475.991 410.801 475.991 410.801L470.352 415.216Z" fill="#17466C"/>
<path d="M408.262 278.139L420.014 422.807C420.014 422.807 426.116 425.772 430.516 426.219C434.915 426.666 444.022 362.95 443.242 350.899C442.463 338.849 451.191 300.59 449.172 288.188C447.152 275.787 408.262 278.139 408.262 278.139Z" fill="#0E5D82"/>
<path d="M431.769 278.968C430.941 278.849 430.106 278.747 429.269 278.654L408.975 286.899L412.716 333.003C422.445 355.472 433.106 375.882 438.953 389.591C441.61 373.287 443.603 356.503 443.238 350.897C442.866 345.095 444.695 333.21 446.466 321.069L431.769 278.968Z" fill="#27557A"/>
<path d="M414.054 301.758C425.443 354.974 470.221 419.812 470.172 419.812C470.124 419.812 478.544 418.286 478.969 414.26C479.394 410.234 474.189 370.159 462.806 358.509C451.423 346.86 450.633 291.554 450.633 291.554L414.054 301.758Z" fill="#0E5D82"/>
<path d="M426.495 197.481L431.568 224.014L417.694 239.715L415.848 207.54L426.495 197.481Z" fill="#F09959"/>
<path d="M431.569 215.74C431.569 215.74 438.112 218.153 445.396 237.59C452.68 257.027 457.74 304.918 457.74 304.918C457.74 304.918 443.744 317.408 423.707 317.404C410.938 317.404 404.491 314.378 404.491 314.378C404.491 314.378 403.215 269.231 404.491 252.94C405.766 236.65 425.246 215.331 431.569 215.74Z" fill="url(#paint9_linear)"/>
<path d="M421.168 219.813C425.291 214.763 426.818 207.053 427.388 202.14L426.586 197.951L425.55 198.372L415.848 207.542L416.797 224.095C418.414 222.859 419.881 221.421 421.168 219.813Z" fill="#E38540"/>
<path d="M425.03 203.666C420.211 210.125 412.541 212.433 407.897 208.818C403.254 205.204 403.385 197.038 408.194 190.583C413.004 184.128 420.671 181.81 425.327 185.431C429.983 189.051 429.833 197.213 425.03 203.666Z" fill="#F09959"/>
<path d="M429.608 209.746L433.963 217.465L410.914 235.573C410.914 235.573 412.65 227.181 413.115 224.093C413.58 221.005 429.242 209.099 429.608 209.746Z" fill="url(#paint10_linear)"/>
<path d="M415.432 174.811C405.316 173.564 406.982 188.534 409.746 189.97C412.51 191.407 414.833 189.138 416.84 190.864C418.847 192.591 423.07 189.308 424.032 190.919C424.994 192.53 419.957 200.865 418.742 202.105C417.526 203.345 419.778 204.575 419.778 204.575C419.778 204.575 423.651 198.82 424.921 199.915C426.191 201.01 425.222 205.829 426.801 207.897L428.381 209.962C428.381 209.962 434.087 201.213 436.857 200.327C439.627 199.441 441.357 192.672 439.197 190.171C437.037 187.669 438.992 181.836 435.412 179.64C431.831 177.445 427.477 178.691 422.796 175.651C418.116 172.611 418.26 175.16 415.432 174.811Z" fill="#17466C"/>
<path d="M427.945 203.201C426.384 204.641 424.315 204.872 423.325 203.719C422.335 202.566 422.799 200.461 424.359 199.021C425.92 197.581 427.99 197.351 428.98 198.506C429.969 199.661 429.503 201.76 427.945 203.201Z" fill="#F09959"/>
<path d="M436.277 230.176C436.277 230.176 412.535 257.928 403.986 266.515C403.871 274.507 403.931 283.82 404.041 292.096C408.673 289.692 421.542 282.71 428.87 275.263C437.913 266.103 441.947 245.081 436.277 230.176Z" fill="#FB8627"/>
<path d="M375.566 264.211C375.566 264.211 369.887 256.82 367.622 257.532C365.357 258.244 364.502 258.358 362.516 258.242C360.53 258.126 360.388 261.144 363.225 266.569C366.061 271.993 373.722 273.085 375.566 272.985C377.41 272.885 375.566 264.211 375.566 264.211Z" fill="#F09959"/>
<path d="M368.227 262.622C368.022 262.622 367.821 262.572 367.638 262.477C367.454 262.382 367.295 262.243 367.171 262.072L362.253 255.3C362.14 255.155 362.056 254.988 362.005 254.808C361.955 254.628 361.939 254.439 361.96 254.253C361.981 254.067 362.037 253.887 362.125 253.724C362.213 253.561 362.331 253.418 362.473 253.304C362.615 253.19 362.777 253.108 362.95 253.061C363.123 253.015 363.303 253.005 363.479 253.033C363.656 253.062 363.825 253.127 363.977 253.225C364.129 253.324 364.26 253.453 364.363 253.606L369.281 260.369C369.431 260.576 369.524 260.823 369.548 261.082C369.573 261.341 369.527 261.602 369.418 261.836C369.308 262.07 369.138 262.266 368.928 262.404C368.718 262.542 368.475 262.615 368.227 262.615V262.622Z" fill="#FB8627"/>
<path d="M433.627 224.093C442.809 226.653 439.826 251.123 434.647 261.226C430.928 268.484 418.504 275.887 410.914 277.963C403.325 280.039 373.193 273.83 373.193 273.83C373.193 273.83 371.982 262.426 374.273 262.426C376.565 262.426 400.958 263.66 408.262 256.72C415.566 249.781 422.538 220.993 433.627 224.093Z" fill="url(#paint11_linear)"/>
<path d="M404.5 256L374.5 258L371 262.5C382.167 262.667 404.9 262.3 406.5 259.5C408.1 256.7 405.833 256 404.5 256Z" fill="#FB8627"/>
<path d="M355.055 250.333L367.922 264.369C368.255 264.732 368.802 264.799 369.213 264.526L388.027 252.011C388.538 251.671 388.625 250.955 388.211 250.502L379.933 241.472C379.669 241.184 379.262 241.076 378.89 241.196L366.75 245.091L355.487 248.705C354.792 248.928 354.562 249.795 355.055 250.333Z" fill="#C4C4C4" stroke="#376285"/>
<path d="M384.5 247L364 259L367.932 263.806C368.255 264.201 368.824 264.29 369.251 264.012L387.525 252.134C388.038 251.8 388.134 251.088 387.727 250.631L384.5 247Z" fill="#92A4B1"/>
<defs>
<linearGradient id="paint0_linear" x1="107.535" y1="359.268" x2="102.051" y2="200.997" gradientUnits="userSpaceOnUse">
<stop stop-color="#6985B3"/>
<stop offset="1" stop-color="#477E8F"/>
</linearGradient>
<linearGradient id="paint1_linear" x1="76.4881" y1="192.61" x2="212.138" y2="115.055" gradientUnits="userSpaceOnUse">
<stop stop-color="#6791B2"/>
<stop offset="1" stop-color="#376285"/>
</linearGradient>
<linearGradient id="paint2_linear" x1="307484" y1="136635" x2="231792" y2="217707" gradientUnits="userSpaceOnUse">
<stop stop-color="#3AA1E0"/>
<stop offset="1" stop-color="#376285"/>
</linearGradient>
<linearGradient id="paint3_linear" x1="187388" y1="9211.82" x2="192222" y2="56921.1" gradientUnits="userSpaceOnUse">
<stop stop-color="#7C9BA5"/>
<stop offset="1" stop-color="#27557A"/>
</linearGradient>
<linearGradient id="paint4_linear" x1="191.597" y1="141.198" x2="301.449" y2="308.086" gradientUnits="userSpaceOnUse">
<stop stop-color="white"/>
<stop offset="1"/>
</linearGradient>
<linearGradient id="paint5_linear" x1="99806.2" y1="24672.6" x2="41943.5" y2="64692.2" gradientUnits="userSpaceOnUse">
<stop stop-color="white"/>
<stop offset="1"/>
</linearGradient>
<linearGradient id="paint6_linear" x1="122.614" y1="338.239" x2="77.8271" y2="415.084" gradientUnits="userSpaceOnUse">
<stop stop-color="#FFC34E"/>
<stop offset="1" stop-color="#FB8627"/>
</linearGradient>
<linearGradient id="paint7_linear" x1="60719" y1="69152.7" x2="51825.7" y2="96157.3" gradientUnits="userSpaceOnUse">
<stop stop-color="#FFC34E"/>
<stop offset="1" stop-color="#FB8627"/>
</linearGradient>
<linearGradient id="paint8_linear" x1="127.501" y1="364.979" x2="83.1881" y2="416.967" gradientUnits="userSpaceOnUse">
<stop stop-color="#7C9BA5"/>
<stop offset="1" stop-color="#376285"/>
</linearGradient>
<linearGradient id="paint9_linear" x1="94190.2" y1="62814.6" x2="129288" y2="84454.7" gradientUnits="userSpaceOnUse">
<stop stop-color="#FFC34E"/>
<stop offset="1" stop-color="#FB8627"/>
</linearGradient>
<linearGradient id="paint10_linear" x1="43685.8" y1="15256" x2="44846.8" y2="16461.8" gradientUnits="userSpaceOnUse">
<stop stop-color="#FFC34E"/>
<stop offset="1" stop-color="#FB8627"/>
</linearGradient>
<linearGradient id="paint11_linear" x1="110984" y1="47111.7" x2="135368" y2="31040.8" gradientUnits="userSpaceOnUse">
<stop stop-color="#FFC34E"/>
<stop offset="1" stop-color="#FB8627"/>
</linearGradient>
</defs>
</svg>
